<?xml version="1.0" encoding="utf-8"?>
<!-- Generator: Adobe Illustrator 13.0.0, SVG Export Plug-In . SVG Version: 6.00 Build 14948)  -->
<!DOCTYPE svg PUBLIC "-//W3C//DTD SVG 1.1//EN" "http://www.w3.org/Graphics/SVG/1.1/DTD/svg11.dtd" [
	<!ENTITY ns_extend "http://ns.adobe.com/Extensibility/1.0/">
	<!ENTITY ns_ai "http://ns.adobe.com/AdobeIllustrator/10.0/">
	<!ENTITY ns_graphs "http://ns.adobe.com/Graphs/1.0/">
	<!ENTITY ns_vars "http://ns.adobe.com/Variables/1.0/">
	<!ENTITY ns_imrep "http://ns.adobe.com/ImageReplacement/1.0/">
	<!ENTITY ns_sfw "http://ns.adobe.com/SaveForWeb/1.0/">
	<!ENTITY ns_custom "http://ns.adobe.com/GenericCustomNamespace/1.0/">
	<!ENTITY ns_adobe_xpath "http://ns.adobe.com/XPath/1.0/">
]>
<svg version="1.1" id="Ebene_1" xmlns:x="&ns_extend;" xmlns:i="&ns_ai;" xmlns:graph="&ns_graphs;"
	 xmlns="http://www.w3.org/2000/svg" xmlns:xlink="http://www.w3.org/1999/xlink" x="0px" y="0px" width="148.67px"
	 height="28.17px" viewBox="2.83 -5 148.67 28.17" enable-background="new 2.83 -5 148.67 28.17" xml:space="preserve">
<metadata>
	<sfw  xmlns="&ns_sfw;">
		<slices></slices>
		<sliceSourceBounds  height="23.46" width="139.31" x="2.42" y="1.81" bottomLeftOrigin="true"></sliceSourceBounds>
	</sfw>
</metadata>
<g>
	<path d="M6.84,20.61v-1.19h1.97v3.17h0.34V24H8.68v-0.98h-2.1V24H6.1V22.6h0.31C6.73,21.92,6.84,21.52,6.84,20.61z M8.29,19.86
		H7.33v1.03c0,0.74-0.11,1.11-0.39,1.71h1.36V19.86z"/>
	<path d="M12.2,21.22c0,1.47-0.5,1.9-1.29,1.9c-0.78,0-1.29-0.43-1.29-1.91c0-1.2,0.4-1.88,1.29-1.88S12.2,20.01,12.2,21.22z
		 M10.16,21.27c0,0.85,0.16,1.42,0.76,1.42c0.61,0,0.76-0.57,0.76-1.42c0-1.09-0.22-1.5-0.76-1.5
		C10.37,19.76,10.16,20.17,10.16,21.27z"/>
	<path d="M13.41,21.27c0,0.59,0.03,1.42,0.69,1.42c0.55,0,0.61-0.48,0.63-0.92h0.49c0,0.68-0.28,1.35-1.09,1.35
		c-1.1,0-1.25-0.92-1.25-1.85c0-0.95,0.22-1.94,1.25-1.94c0.72,0,1.09,0.55,1.09,1.22h-0.49c0-0.39-0.13-0.79-0.61-0.79
		C13.5,19.76,13.41,20.53,13.41,21.27z"/>
	<path d="M16.51,23.03v-3.17h-0.94v-0.43h2.39v0.43h-0.94v3.17H16.51z"/>
	<path d="M18.47,20.4c0-0.74,0.36-1.07,1.04-1.07c0.72,0,1,0.43,1,0.92v2.12c0,0.17,0.06,0.29,0.2,0.29c0.03,0,0.09-0.01,0.11-0.01
		v0.38c-0.03,0.02-0.12,0.04-0.21,0.04c-0.31,0-0.47-0.04-0.55-0.53h-0.01c-0.12,0.32-0.45,0.58-0.8,0.58
		c-0.63,0-0.92-0.34-0.92-0.99c0-0.64,0.27-0.87,0.9-1.11c0.24-0.09,0.59-0.24,0.64-0.27C19.99,20.69,20,20.5,20,20.32
		c0-0.41-0.13-0.56-0.55-0.56c-0.38,0-0.53,0.22-0.53,0.63H18.47z M18.86,22.11c0,0.32,0.13,0.55,0.48,0.55
		c0.53,0,0.66-0.36,0.66-0.73v-0.87C19.46,21.38,18.86,21.42,18.86,22.11z"/>
	<path d="M21.46,19.43h1.17c0.54,0,0.97,0.33,0.97,0.86c0,0.47-0.24,0.77-0.56,0.86v0.01c0.4,0.09,0.65,0.4,0.65,0.9
		c0,0.62-0.42,0.98-0.89,0.98h-1.34V19.43z M21.97,20.92h0.54c0.39,0,0.57-0.15,0.57-0.55c0-0.35-0.18-0.51-0.55-0.51h-0.56V20.92z
		 M21.97,22.6h0.6c0.47,0,0.59-0.2,0.59-0.63c0-0.42-0.22-0.62-0.6-0.62h-0.59V22.6z"/>
	<path d="M25.01,21.11l1.25-1.68h0.61l-1.11,1.4l1.15,2.2h-0.6l-0.9-1.79l-0.39,0.51v1.28h-0.51v-3.6h0.51V21.11z"/>
	<path d="M27.4,20.4c0-0.74,0.36-1.07,1.04-1.07c0.72,0,1,0.43,1,0.92v2.12c0,0.17,0.06,0.29,0.2,0.29c0.03,0,0.09-0.01,0.11-0.01
		v0.38c-0.03,0.02-0.12,0.04-0.21,0.04c-0.31,0-0.47-0.04-0.55-0.53h-0.01c-0.12,0.32-0.45,0.58-0.8,0.58
		c-0.63,0-0.92-0.34-0.92-0.99c0-0.64,0.27-0.87,0.9-1.11c0.24-0.09,0.59-0.24,0.64-0.27c0.13-0.06,0.13-0.24,0.13-0.42
		c0-0.41-0.13-0.56-0.55-0.56c-0.38,0-0.53,0.22-0.53,0.63H27.4z M27.79,22.11c0,0.32,0.13,0.55,0.48,0.55
		c0.53,0,0.66-0.36,0.66-0.73v-0.87C28.4,21.38,27.79,21.42,27.79,22.11z"/>
	<path d="M32.58,23.03v-3.17h-0.94v-0.43h2.39v0.43h-0.94v3.17H32.58z"/>
	<path d="M37.04,21.22c0,1.47-0.5,1.9-1.29,1.9c-0.78,0-1.29-0.43-1.29-1.91c0-1.2,0.4-1.88,1.29-1.88S37.04,20.01,37.04,21.22z
		 M35,21.27c0,0.85,0.16,1.42,0.76,1.42c0.61,0,0.76-0.57,0.76-1.42c0-1.09-0.22-1.5-0.76-1.5C35.21,19.76,35,20.17,35,21.27z"/>
	<path d="M37.85,19.43h1.17c0.54,0,0.97,0.33,0.97,0.86c0,0.47-0.24,0.77-0.56,0.86v0.01c0.4,0.09,0.65,0.4,0.65,0.9
		c0,0.62-0.42,0.98-0.89,0.98h-1.34V19.43z M38.36,20.92h0.54c0.39,0,0.57-0.15,0.57-0.55c0-0.35-0.18-0.51-0.55-0.51h-0.56V20.92z
		 M38.36,22.6h0.6c0.47,0,0.59-0.2,0.59-0.63c0-0.42-0.22-0.62-0.6-0.62h-0.59V22.6z"/>
	<path d="M40.83,20.4c0-0.74,0.36-1.07,1.04-1.07c0.72,0,1,0.43,1,0.92v2.12c0,0.17,0.06,0.29,0.2,0.29c0.03,0,0.09-0.01,0.11-0.01
		v0.38c-0.03,0.02-0.12,0.04-0.21,0.04c-0.31,0-0.47-0.04-0.55-0.53h-0.01c-0.12,0.32-0.45,0.58-0.8,0.58
		c-0.63,0-0.92-0.34-0.92-0.99c0-0.64,0.27-0.87,0.9-1.11c0.24-0.09,0.59-0.24,0.64-0.27c0.13-0.06,0.13-0.24,0.13-0.42
		c0-0.41-0.13-0.56-0.55-0.56c-0.38,0-0.53,0.22-0.53,0.63H40.83z M41.22,22.11c0,0.32,0.13,0.55,0.48,0.55
		c0.53,0,0.66-0.36,0.66-0.73v-0.87C41.83,21.38,41.22,21.42,41.22,22.11z"/>
	<path d="M44.33,19.83L44.33,19.83c0.17-0.34,0.49-0.5,0.74-0.5c0.91,0,1.18,0.83,1.18,1.83c0,1.09-0.24,1.96-1.15,1.96
		c-0.36,0-0.58-0.18-0.78-0.47v1.63h-0.51v-4.86h0.51V19.83z M44.33,21.22c0,0.69,0.04,1.47,0.69,1.47c0.53,0,0.7-0.55,0.7-1.52
		c0-0.47-0.05-1.4-0.71-1.4C44.39,19.76,44.33,20.59,44.33,21.22z"/>
	<path d="M49.51,21.22c0,1.47-0.5,1.9-1.29,1.9c-0.78,0-1.29-0.43-1.29-1.91c0-1.2,0.4-1.88,1.29-1.88S49.51,20.01,49.51,21.22z
		 M47.46,21.27c0,0.85,0.16,1.42,0.76,1.42c0.61,0,0.76-0.57,0.76-1.42c0-1.09-0.22-1.5-0.76-1.5
		C47.67,19.76,47.46,20.17,47.46,21.27z"/>
	<path d="M50.32,19.43h1.17c0.54,0,0.97,0.33,0.97,0.86c0,0.47-0.24,0.77-0.56,0.86v0.01c0.4,0.09,0.65,0.4,0.65,0.9
		c0,0.62-0.42,0.98-0.89,0.98h-1.34V19.43z M50.83,20.92h0.54c0.39,0,0.57-0.15,0.57-0.55c0-0.35-0.18-0.51-0.55-0.51h-0.56V20.92z
		 M50.83,22.6h0.6c0.47,0,0.59-0.2,0.59-0.63c0-0.42-0.22-0.62-0.6-0.62h-0.59V22.6z"/>
	<path d="M55.49,19.43v2.74c0,0.13-0.03,0.3-0.05,0.43h0.01c0.03-0.17,0.07-0.35,0.11-0.43l1.19-2.74h0.62v3.6h-0.51V20.3
		c0-0.1,0.03-0.33,0.05-0.45H56.9c-0.02,0.12-0.08,0.39-0.11,0.45l-1.19,2.73h-0.62v-3.6H55.49z"/>
	<path d="M58.09,20.39c0.03-0.57,0.45-1.06,1.1-1.06c0.61,0,1.07,0.39,1.07,0.9c0,0.49-0.27,0.78-0.64,0.88v0.01
		c0.34,0.07,0.73,0.34,0.73,0.92c0,0.63-0.44,1.07-1.14,1.07c-0.75,0-1.11-0.38-1.17-1.23h0.47c0.05,0.61,0.26,0.8,0.67,0.8
		c0.39,0,0.65-0.18,0.65-0.67c0-0.38-0.22-0.67-0.6-0.67h-0.28v-0.43h0.28c0.29,0,0.53-0.22,0.53-0.59c0-0.28-0.16-0.56-0.57-0.56
		c-0.41,0-0.59,0.28-0.61,0.63H58.09z"/>
	<path d="M63.3,19.43v2.74c0,0.13-0.03,0.3-0.05,0.43h0.01c0.03-0.17,0.07-0.35,0.11-0.43l1.19-2.74h0.62v3.6h-0.51V20.3
		c0-0.1,0.03-0.33,0.05-0.45h-0.01c-0.02,0.12-0.08,0.39-0.11,0.45l-1.19,2.73h-0.62v-3.6H63.3z"/>
	<path d="M66.63,20.92h1.27v-1.49h0.51v3.6h-0.51v-1.68h-1.27v1.68h-0.51v-3.6h0.51V20.92z"/>
	<path d="M69.93,23.03v-3.17h-0.94v-0.43h2.39v0.43h-0.94v3.17H69.93z"/>
	<path d="M74.1,21.83c0,0.71-0.33,1.29-1.09,1.29s-1.19-0.45-1.19-1.9c0-0.9,0.2-1.89,1.15-1.89c1.02,0,1.13,1.07,1.13,2.02h-1.75
		c0,0.82,0.05,1.34,0.65,1.34c0.49,0,0.59-0.45,0.59-0.86H74.1z M73.56,20.92c0-0.55-0.07-1.15-0.59-1.15
		c-0.57,0-0.63,0.67-0.63,1.15H73.56z"/>
	<path d="M75.42,19.83L75.42,19.83c0.17-0.34,0.49-0.5,0.74-0.5c0.91,0,1.18,0.83,1.18,1.83c0,1.09-0.24,1.96-1.15,1.96
		c-0.36,0-0.58-0.18-0.78-0.47v1.63h-0.51v-4.86h0.51V19.83z M75.42,21.22c0,0.69,0.04,1.47,0.69,1.47c0.53,0,0.7-0.55,0.7-1.52
		c0-0.47-0.05-1.4-0.71-1.4C75.48,19.76,75.42,20.59,75.42,21.22z"/>
	<path d="M78.67,20.92h1.28v-1.49h0.51v3.6h-0.51v-1.68h-1.28v1.68h-0.51v-3.6h0.51V20.92z"/>
	<path d="M83.55,21.83c0,0.71-0.33,1.29-1.09,1.29c-0.76,0-1.19-0.45-1.19-1.9c0-0.9,0.2-1.89,1.15-1.89c1.02,0,1.13,1.07,1.13,2.02
		H81.8c0,0.82,0.05,1.34,0.65,1.34c0.49,0,0.59-0.45,0.59-0.86H83.55z M83.01,20.92c0-0.55-0.07-1.15-0.59-1.15
		c-0.57,0-0.63,0.67-0.63,1.15H83.01z"/>
	<path d="M84.92,23.03v-3.17h-0.94v-0.43h2.39v0.43h-0.94v3.17H84.92z"/>
	<path d="M88.44,21.15v0.46h-1.69v-0.46H88.44z"/>
	<path d="M89.99,19.43l0.65,2.37c0.05,0.17,0.09,0.49,0.13,0.73h0.01c0.04-0.24,0.07-0.53,0.12-0.73l0.65-2.37h0.8v3.6h-0.49v-3.17
		h-0.01l-0.91,3.17H90.6l-0.9-3.17h-0.01v3.17H89.2v-3.6H89.99z"/>
	<path d="M93.24,20.4c0-0.74,0.36-1.07,1.04-1.07c0.72,0,1,0.43,1,0.92v2.12c0,0.17,0.06,0.29,0.2,0.29c0.03,0,0.09-0.01,0.12-0.01
		v0.38c-0.03,0.02-0.12,0.04-0.21,0.04c-0.31,0-0.47-0.04-0.55-0.53h-0.01c-0.12,0.32-0.45,0.58-0.8,0.58
		c-0.63,0-0.92-0.34-0.92-0.99c0-0.64,0.27-0.87,0.9-1.11c0.24-0.09,0.59-0.24,0.64-0.27c0.13-0.06,0.13-0.24,0.13-0.42
		c0-0.41-0.13-0.56-0.55-0.56c-0.38,0-0.53,0.22-0.53,0.63H93.24z M93.63,22.11c0,0.32,0.13,0.55,0.48,0.55
		c0.53,0,0.66-0.36,0.66-0.73v-0.87C94.24,21.38,93.63,21.42,93.63,22.11z"/>
	<path d="M98.13,19.43v0.43h-1.39v3.17h-0.51v-3.6H98.13z"/>
	<path d="M98.64,20.4c0-0.74,0.36-1.07,1.04-1.07c0.72,0,1,0.43,1,0.92v2.12c0,0.17,0.06,0.29,0.2,0.29c0.03,0,0.09-0.01,0.12-0.01
		v0.38c-0.03,0.02-0.12,0.04-0.21,0.04c-0.31,0-0.47-0.04-0.55-0.53h-0.01c-0.12,0.32-0.45,0.58-0.8,0.58
		c-0.63,0-0.92-0.34-0.92-0.99c0-0.64,0.27-0.87,0.9-1.11c0.24-0.09,0.59-0.24,0.64-0.27c0.13-0.06,0.13-0.24,0.13-0.42
		c0-0.41-0.13-0.56-0.55-0.56c-0.38,0-0.53,0.22-0.53,0.63H98.64z M99.03,22.11c0,0.32,0.13,0.55,0.48,0.55
		c0.53,0,0.66-0.36,0.66-0.73v-0.87C99.64,21.38,99.03,21.42,99.03,22.11z"/>
	<path d="M101.42,20.39c0.03-0.57,0.45-1.06,1.1-1.06c0.61,0,1.07,0.39,1.07,0.9c0,0.49-0.27,0.78-0.64,0.88v0.01
		c0.34,0.07,0.74,0.34,0.74,0.92c0,0.63-0.44,1.07-1.14,1.07c-0.75,0-1.11-0.38-1.17-1.23h0.47c0.05,0.61,0.26,0.8,0.67,0.8
		c0.39,0,0.65-0.18,0.65-0.67c0-0.38-0.22-0.67-0.6-0.67h-0.28v-0.43h0.28c0.29,0,0.53-0.22,0.53-0.59c0-0.28-0.16-0.56-0.57-0.56
		c-0.41,0-0.59,0.28-0.61,0.63H101.42z"/>
	<path d="M105,19.43v2.74c0,0.13-0.03,0.3-0.05,0.43h0.01c0.03-0.17,0.07-0.35,0.11-0.43l1.19-2.74h0.62v3.6h-0.51V20.3
		c0-0.1,0.03-0.33,0.05-0.45h-0.01c-0.02,0.12-0.08,0.39-0.11,0.45l-1.19,2.73h-0.62v-3.6H105z"/>
	<path d="M108.33,20.92h1.28v-1.49h0.51v3.6h-0.51v-1.68h-1.28v1.68h-0.51v-3.6h0.51V20.92z"/>
	<path d="M111.01,20.4c0-0.74,0.36-1.07,1.04-1.07c0.72,0,1,0.43,1,0.92v2.12c0,0.17,0.06,0.29,0.2,0.29c0.03,0,0.09-0.01,0.12-0.01
		v0.38c-0.03,0.02-0.12,0.04-0.21,0.04c-0.31,0-0.47-0.04-0.55-0.53h-0.01c-0.12,0.32-0.45,0.58-0.8,0.58
		c-0.63,0-0.92-0.34-0.92-0.99c0-0.64,0.27-0.87,0.9-1.11c0.24-0.09,0.59-0.24,0.64-0.27c0.13-0.06,0.13-0.24,0.13-0.42
		c0-0.41-0.13-0.56-0.55-0.56c-0.38,0-0.53,0.22-0.53,0.63H111.01z M111.4,22.11c0,0.32,0.13,0.55,0.48,0.55
		c0.53,0,0.66-0.36,0.66-0.73v-0.87C112,21.38,111.4,21.42,111.4,22.11z"/>
	<path d="M116.01,21.27c0,0.59,0.03,1.42,0.69,1.42c0.55,0,0.61-0.48,0.63-0.92h0.49c0,0.68-0.28,1.35-1.09,1.35
		c-1.1,0-1.25-0.92-1.25-1.85c0-0.95,0.22-1.94,1.25-1.94c0.72,0,1.09,0.55,1.09,1.22h-0.49c0-0.39-0.13-0.79-0.61-0.79
		C116.11,19.76,116.01,20.53,116.01,21.27z"/>
	<path d="M120.99,21.22c0,1.47-0.5,1.9-1.29,1.9c-0.78,0-1.29-0.43-1.29-1.91c0-1.2,0.4-1.88,1.29-1.88
		C120.59,19.33,120.99,20.01,120.99,21.22z M118.94,21.27c0,0.85,0.16,1.42,0.75,1.42c0.61,0,0.76-0.57,0.76-1.42
		c0-1.09-0.22-1.5-0.76-1.5C119.15,19.76,118.94,20.17,118.94,21.27z"/>
	<path d="M122.31,19.82L122.31,19.82c0.22-0.3,0.51-0.49,0.9-0.49c0.54,0,0.89,0.28,0.89,0.92v2.78h-0.51v-2.64
		c0-0.37-0.12-0.63-0.54-0.63c-0.44,0-0.74,0.34-0.74,0.78v2.49h-0.51v-3.6h0.51V19.82z"/>
	<path d="M125.56,23.03h-0.51v-4.86h0.51V23.03z"/>
	<path d="M128.65,21.83c0,0.71-0.33,1.29-1.09,1.29c-0.76,0-1.19-0.45-1.19-1.9c0-0.9,0.2-1.89,1.15-1.89
		c1.02,0,1.13,1.07,1.13,2.02h-1.75c0,0.82,0.05,1.34,0.65,1.34c0.49,0,0.59-0.45,0.59-0.86H128.65z M128.12,20.92
		c0-0.55-0.07-1.15-0.59-1.15c-0.57,0-0.63,0.67-0.63,1.15H128.12z"/>
	<path d="M129.62,19.43l0.85,2.87h0.01l0.8-2.87h0.53l-1.12,3.62c-0.2,0.66-0.38,1.21-1.11,1.21c-0.12,0-0.24-0.02-0.36-0.06v-0.45
		c0.11,0.05,0.26,0.08,0.38,0.08c0.36,0,0.51-0.32,0.63-0.74l-1.15-3.66H129.62z"/>
	<path d="M133.83,20.39c0-0.42-0.16-0.63-0.57-0.63c-0.36,0-0.51,0.23-0.51,0.55c0,0.39,0.26,0.52,0.65,0.65
		c0.53,0.19,1.07,0.42,1.07,1.08c0,0.69-0.43,1.07-1.19,1.07c-0.83,0-1.12-0.37-1.12-1.15h0.49c0,0.46,0.14,0.71,0.61,0.71
		c0.42,0,0.69-0.17,0.69-0.61c0-0.46-0.45-0.55-0.82-0.7c-0.56-0.24-0.88-0.47-0.88-1.05c0-0.62,0.4-1,1.02-1
		c0.68,0,1.09,0.37,1.09,1.06H133.83z"/>
	<path d="M135.83,22.38v0.65h-0.59v-0.65H135.83z"/>
	<path d="M139.12,18.17v4.86h-0.51v-0.45h-0.01c-0.22,0.43-0.43,0.54-0.86,0.54c-0.89,0-1.05-0.94-1.05-1.98
		c0-1.04,0.35-1.81,1.08-1.81c0.37,0,0.59,0.16,0.83,0.47h0.01v-1.63H139.12z M137.22,21.22c0,0.69,0.04,1.47,0.69,1.47
		c0.53,0,0.7-0.55,0.7-1.52c0-0.47-0.05-1.4-0.71-1.4C137.27,19.76,137.22,20.59,137.22,21.22z"/>
	<path d="M142.21,21.83c0,0.71-0.33,1.29-1.09,1.29c-0.76,0-1.19-0.45-1.19-1.9c0-0.9,0.2-1.89,1.15-1.89
		c1.02,0,1.13,1.07,1.13,2.02h-1.75c0,0.82,0.05,1.34,0.65,1.34c0.49,0,0.59-0.45,0.59-0.86H142.21z M141.68,20.92
		c0-0.55-0.07-1.15-0.59-1.15c-0.57,0-0.63,0.67-0.63,1.15H141.68z"/>
</g>
<g>
	<path fill="#282525" d="M16.21,1.36v3.29h-1.18C14.84,3.96,14.6,3.41,14.31,3c-0.29-0.4-0.63-0.7-1.02-0.87s-0.85-0.26-1.4-0.26
		c-0.82,0-1.54,0.27-2.18,0.81s-1.14,1.36-1.5,2.44c-0.36,1.09-0.55,2.4-0.55,3.94c0,1.55,0.15,2.87,0.45,3.97
		c0.3,1.1,0.74,1.92,1.33,2.48c0.58,0.56,1.31,0.84,2.16,0.84c0.65,0,1.18-0.09,1.59-0.28c0.41-0.19,0.76-0.48,1.04-0.88
		c0.28-0.4,0.55-1,0.8-1.78h1.18v3.4c-0.74,0.19-1.51,0.35-2.28,0.44c-0.78,0.1-1.64,0.15-2.57,0.15c-2.01,0-3.53-0.68-4.56-2.04
		C5.77,14,5.26,11.97,5.26,9.27c0-1.69,0.27-3.18,0.8-4.45c0.53-1.27,1.32-2.26,2.35-2.95c1.04-0.69,2.27-1.04,3.72-1.04
		c0.72,0,1.38,0.04,1.99,0.11C14.72,1.01,15.42,1.15,16.21,1.36z"/>
	<path fill="#282525" d="M26.96,17.21v-0.58c0.4-0.08,0.69-0.17,0.88-0.26s0.34-0.23,0.43-0.4s0.14-0.4,0.14-0.68
		c0-0.27-0.03-0.56-0.1-0.87c-0.06-0.31-0.15-0.66-0.27-1.05l-0.43-1.54h-5.53l-0.4,1.16c-0.21,0.58-0.34,1.03-0.4,1.33
		c-0.06,0.3-0.09,0.57-0.09,0.82c0,0.48,0.12,0.82,0.36,1.04c0.24,0.22,0.61,0.37,1.11,0.44v0.58H17.6v-0.58
		c0.44-0.07,0.83-0.33,1.16-0.77c0.33-0.44,0.65-1.08,0.96-1.9l4.92-13.13h1.88l4.03,13.23c0.19,0.62,0.36,1.09,0.5,1.41
		c0.15,0.32,0.32,0.58,0.53,0.76s0.49,0.31,0.84,0.4v0.58L26.96,17.21L26.96,17.21z M22.4,10.8h4.96l-2.25-7.65L22.4,10.8z"/>
	<path fill="#282525" d="M32.01,1.02h12.84v4.13h-1.16c-0.17-0.68-0.35-1.22-0.52-1.61c-0.17-0.4-0.35-0.69-0.54-0.9
		s-0.4-0.35-0.61-0.44c-0.22-0.09-0.54-0.13-0.98-0.13h-1.51v12.15c0,0.47,0.03,0.84,0.08,1.11c0.05,0.28,0.13,0.5,0.24,0.66
		c0.11,0.16,0.25,0.29,0.43,0.38c0.18,0.09,0.47,0.18,0.85,0.27v0.58h-5.42v-0.58c0.24-0.06,0.45-0.11,0.63-0.18
		c0.18-0.06,0.33-0.14,0.44-0.23c0.11-0.09,0.21-0.21,0.29-0.35c0.08-0.14,0.13-0.34,0.18-0.58c0.04-0.25,0.06-0.6,0.06-1.08V2.06
		h-1.49c-0.37,0-0.68,0.04-0.92,0.1c-0.24,0.06-0.46,0.22-0.67,0.44c-0.21,0.23-0.39,0.54-0.56,0.96s-0.33,0.94-0.48,1.57h-1.18
		L32.01,1.02L32.01,1.02z"/>
	<path fill="#282525" d="M53.15,17.21v-0.58c0.4-0.08,0.69-0.17,0.89-0.26c0.19-0.09,0.34-0.23,0.43-0.4
		c0.09-0.17,0.14-0.4,0.14-0.68c0-0.27-0.03-0.56-0.09-0.87c-0.06-0.31-0.15-0.66-0.27-1.05l-0.44-1.54h-5.53l-0.4,1.16
		c-0.21,0.58-0.34,1.03-0.4,1.33c-0.06,0.3-0.09,0.57-0.09,0.82c0,0.48,0.12,0.82,0.36,1.04c0.24,0.22,0.61,0.37,1.11,0.44v0.58
		h-5.07v-0.58c0.44-0.07,0.83-0.33,1.16-0.77c0.33-0.44,0.65-1.08,0.96-1.9l4.93-13.13h1.88l4.03,13.23
		c0.19,0.62,0.36,1.09,0.5,1.41c0.15,0.32,0.32,0.58,0.53,0.76s0.49,0.31,0.84,0.4v0.58L53.15,17.21L53.15,17.21L53.15,17.21z
		 M48.6,10.8h4.96l-2.25-7.65L48.6,10.8z"/>
	<path fill="#282525" d="M63.89,16.12H67c0.34,0,0.63-0.02,0.85-0.06c0.23-0.04,0.42-0.1,0.59-0.19s0.31-0.2,0.44-0.35
		c0.13-0.15,0.25-0.34,0.37-0.57c0.12-0.24,0.23-0.54,0.34-0.9c0.11-0.36,0.24-0.9,0.4-1.62h1.2l-0.24,4.77H60.28v-0.58
		c0.49-0.13,0.82-0.27,0.99-0.42s0.28-0.37,0.33-0.66c0.05-0.28,0.08-0.72,0.08-1.31V3.98c0-0.55-0.02-0.94-0.06-1.19
		s-0.1-0.44-0.19-0.58c-0.1-0.14-0.22-0.25-0.37-0.34c-0.15-0.09-0.41-0.18-0.77-0.28V1.02h5V1.6c-0.35,0.1-0.59,0.18-0.74,0.26
		c-0.15,0.07-0.27,0.17-0.36,0.3c-0.09,0.13-0.17,0.32-0.21,0.58C63.93,3,63.91,3.42,63.91,3.99L63.89,16.12L63.89,16.12z"/>
	<path fill="#282525" d="M79.47,17.4c-0.95,0-1.81-0.16-2.59-0.47c-0.78-0.31-1.45-0.8-2.01-1.46c-0.56-0.66-0.99-1.51-1.29-2.53
		c-0.31-1.03-0.46-2.26-0.46-3.69c0-1.77,0.27-3.28,0.81-4.54c0.54-1.27,1.31-2.23,2.31-2.89c1-0.66,2.16-0.99,3.48-0.99
		c1.41,0,2.59,0.31,3.56,0.93c0.96,0.62,1.69,1.53,2.17,2.74s0.73,2.68,0.73,4.41c0,1.85-0.28,3.41-0.83,4.69
		c-0.55,1.27-1.34,2.23-2.34,2.86C81.99,17.09,80.82,17.4,79.47,17.4z M75.57,8.92c0,2.43,0.35,4.27,1.06,5.54
		c0.71,1.27,1.74,1.9,3.1,1.9c0.86,0,1.6-0.27,2.19-0.82c0.6-0.55,1.05-1.35,1.35-2.42c0.3-1.06,0.45-2.3,0.45-3.71
		c0-1.73-0.18-3.15-0.53-4.29c-0.35-1.13-0.83-1.96-1.44-2.47c-0.61-0.52-1.32-0.77-2.13-0.77c-0.71,0-1.32,0.17-1.83,0.5
		s-0.93,0.81-1.27,1.42c-0.34,0.61-0.58,1.36-0.74,2.23C75.64,6.88,75.57,7.85,75.57,8.92z"/>
	<path fill="#282525" d="M100.38,17.15l-0.93,0.25l-0.86-0.92c-0.52,0.31-1.05,0.55-1.61,0.7c-0.56,0.15-1.21,0.23-1.94,0.23
		c-2,0-3.51-0.69-4.52-2.06C89.51,13.98,89,11.94,89,9.24c0-1.69,0.27-3.16,0.83-4.44c0.55-1.27,1.35-2.25,2.39-2.94
		c1.04-0.69,2.25-1.03,3.65-1.03c0.74,0,1.44,0.04,2.13,0.13c0.68,0.08,1.44,0.23,2.27,0.43v3.27H99.1
		c-0.21-0.71-0.47-1.27-0.76-1.67c-0.29-0.4-0.64-0.69-1.05-0.85c-0.41-0.17-0.92-0.26-1.55-0.26c-0.86,0-1.62,0.28-2.27,0.83
		c-0.65,0.56-1.15,1.37-1.52,2.45c-0.36,1.08-0.54,2.38-0.54,3.91c0,1.55,0.15,2.88,0.46,3.97c0.31,1.1,0.76,1.93,1.36,2.49
		c0.6,0.56,1.34,0.84,2.22,0.84c0.94,0,1.63-0.2,2.08-0.61c0.45-0.41,0.68-1.03,0.68-1.88v-0.73c0-0.71-0.04-1.23-0.11-1.54
		c-0.07-0.31-0.21-0.56-0.4-0.73c-0.19-0.18-0.5-0.31-0.94-0.43V9.87h4.79v0.58c-0.28,0.1-0.5,0.2-0.64,0.33
		c-0.14,0.12-0.25,0.27-0.33,0.46c-0.08,0.19-0.13,0.41-0.15,0.67c-0.03,0.27-0.04,0.64-0.04,1.13L100.38,17.15L100.38,17.15
		L100.38,17.15z"/>
	<path fill="#282525" d="M107.48,14.24c0,0.53,0.02,0.92,0.06,1.16c0.03,0.25,0.1,0.44,0.18,0.58c0.08,0.14,0.21,0.26,0.37,0.35
		c0.16,0.1,0.42,0.19,0.79,0.28v0.58h-5.01v-0.58c0.49-0.13,0.82-0.27,0.99-0.42c0.17-0.15,0.27-0.37,0.33-0.66
		c0.05-0.28,0.08-0.72,0.08-1.31V3.98c0-0.55-0.02-0.94-0.06-1.19s-0.1-0.44-0.19-0.58c-0.1-0.14-0.21-0.25-0.36-0.33
		c-0.15-0.08-0.41-0.18-0.77-0.28V1.02h5.01V1.6c-0.35,0.09-0.6,0.17-0.76,0.26c-0.15,0.09-0.27,0.2-0.37,0.33
		c-0.09,0.13-0.16,0.32-0.2,0.59c-0.04,0.26-0.06,0.67-0.06,1.21L107.48,14.24L107.48,14.24z"/>
	<path fill="#282525" d="M114,14.46v2.75h-2.4v-2.75H114z"/>
	<path fill="#282525" d="M120.35,10.18v4.03c0,0.57,0.02,0.98,0.06,1.24s0.11,0.45,0.19,0.58c0.09,0.13,0.21,0.24,0.36,0.32
		s0.41,0.18,0.77,0.28v0.58h-5.01v-0.59c0.49-0.13,0.82-0.27,0.98-0.42c0.17-0.15,0.27-0.37,0.32-0.66
		c0.05-0.28,0.08-0.72,0.08-1.31V3.98c0-0.55-0.02-0.94-0.06-1.19s-0.1-0.44-0.19-0.58c-0.09-0.14-0.21-0.25-0.36-0.33
		c-0.15-0.08-0.41-0.18-0.77-0.28V1.02h5.87c1.85,0,3.23,0.34,4.15,1.01c0.92,0.67,1.38,1.72,1.38,3.13c0,1.08-0.3,2.01-0.9,2.77
		c-0.6,0.76-1.49,1.35-2.69,1.78V9.8c0.48,0.2,0.9,0.48,1.24,0.85s0.73,0.94,1.15,1.71l1.07,1.94c0.31,0.57,0.57,1.01,0.79,1.31
		c0.22,0.3,0.44,0.53,0.68,0.69c0.23,0.16,0.53,0.27,0.91,0.33v0.58h-3.29c-0.3-0.42-0.59-0.87-0.85-1.35
		c-0.27-0.48-0.53-0.97-0.79-1.47l-1.04-1.98c-0.31-0.6-0.57-1.04-0.77-1.33c-0.2-0.28-0.39-0.48-0.56-0.6
		c-0.17-0.12-0.35-0.19-0.54-0.24c-0.19-0.04-0.48-0.06-0.87-0.06H120.35L120.35,10.18L120.35,10.18L120.35,10.18z M120.35,2.11
		v7.05h1.34c0.69,0,1.25-0.05,1.67-0.15c0.43-0.1,0.82-0.29,1.19-0.56c0.37-0.27,0.65-0.66,0.87-1.16c0.22-0.49,0.33-1.1,0.33-1.82
		c0-0.75-0.13-1.38-0.39-1.88s-0.65-0.88-1.17-1.14c-0.52-0.26-1.23-0.39-2.11-0.39C121.37,2.06,120.79,2.07,120.35,2.11z"/>
	<path fill="#282525" d="M143.19,11.61c0,0.86-0.08,1.6-0.23,2.23c-0.15,0.6-0.38,1.12-0.68,1.58c-0.27,0.41-0.62,0.76-1.03,1.05
		c-0.41,0.29-0.91,0.52-1.49,0.68c-0.58,0.16-1.27,0.25-2.06,0.25c-0.96,0-1.77-0.1-2.46-0.32c-0.68-0.21-1.25-0.56-1.69-1.05
		c-0.45-0.48-0.77-1.06-0.97-1.72c-0.2-0.66-0.3-1.5-0.3-2.52V3.98c0-0.62-0.02-1.03-0.06-1.25c-0.04-0.22-0.1-0.39-0.17-0.52
		s-0.19-0.23-0.32-0.33c-0.15-0.09-0.41-0.19-0.8-0.29V1.01h4.98v0.58c-0.44,0.11-0.75,0.23-0.93,0.37
		c-0.17,0.14-0.29,0.35-0.35,0.62c-0.06,0.28-0.1,0.74-0.1,1.39v8.4c0,0.77,0.08,1.41,0.24,1.94c0.16,0.52,0.39,0.93,0.68,1.22
		c0.29,0.29,0.64,0.5,1.04,0.63c0.4,0.13,0.9,0.19,1.51,0.19c0.56,0,1.04-0.1,1.46-0.29c0.42-0.19,0.77-0.49,1.05-0.88
		c0.28-0.4,0.47-0.88,0.57-1.46c0.1-0.58,0.15-1.35,0.15-2.33V3.97c0-0.69-0.03-1.16-0.1-1.41s-0.18-0.45-0.33-0.58
		s-0.48-0.26-0.96-0.39V1.01h4.73v0.58c-0.46,0.12-0.77,0.25-0.94,0.39s-0.29,0.35-0.35,0.62c-0.06,0.27-0.1,0.73-0.1,1.38
		L143.19,11.61L143.19,11.61z"/>
</g>
</svg>
