<?xml version="1.0" encoding="utf-8"?>
<!-- Generator: Adobe Illustrator 16.0.3, SVG Export Plug-In . SVG Version: 6.00 Build 0)  -->
<!DOCTYPE svg PUBLIC "-//W3C//DTD SVG 1.1//EN" "http://www.w3.org/Graphics/SVG/1.1/DTD/svg11.dtd" [
	<!ENTITY ns_flows "http://ns.adobe.com/Flows/1.0/">
	<!ENTITY ns_extend "http://ns.adobe.com/Extensibility/1.0/">
	<!ENTITY ns_ai "http://ns.adobe.com/AdobeIllustrator/10.0/">
	<!ENTITY ns_graphs "http://ns.adobe.com/Graphs/1.0/">
]>
<svg version="1.1" id="Ebene_1" xmlns:x="&ns_extend;" xmlns:i="&ns_ai;" xmlns:graph="&ns_graphs;"
	 xmlns="http://www.w3.org/2000/svg" xmlns:xlink="http://www.w3.org/1999/xlink" xmlns:a="http://ns.adobe.com/AdobeSVGViewerExtensions/3.0/"
	 x="0px" y="0px" width="149px" height="29px" viewBox="-148.7 -0.4 149 29" enable-background="new -148.7 -0.4 149 29"
	 xml:space="preserve">
<g>
	<path fill="#282525" d="M-136,1.2v3.5h-1.3c-0.2-0.7-0.5-1.3-0.8-1.8c-0.3-0.4-0.7-0.7-1.1-0.9c-0.4-0.2-0.9-0.3-1.5-0.3
		c-0.9,0-1.6,0.3-2.3,0.9c-0.7,0.6-1.2,1.4-1.6,2.6c-0.4,1.2-0.6,2.6-0.6,4.2c0,1.6,0.2,3.1,0.5,4.2c0.3,1.2,0.8,2,1.4,2.6
		c0.6,0.6,1.4,0.9,2.3,0.9c0.7,0,1.3-0.1,1.7-0.3c0.4-0.2,0.8-0.5,1.1-0.9s0.6-1.1,0.9-1.9h1.3v3.6c-0.8,0.2-1.6,0.4-2.4,0.5
		c-0.8,0.1-1.7,0.2-2.7,0.2c-2.1,0-3.8-0.7-4.8-2.2s-1.6-3.6-1.6-6.5c0-1.8,0.3-3.4,0.9-4.7c0.6-1.3,1.4-2.4,2.5-3.1
		c1.1-0.7,2.4-1.1,4-1.1c0.8,0,1.5,0,2.1,0.1C-137.6,0.9-136.8,1-136,1.2z"/>
	<path fill="#282525" d="M-124.6,18.1v-0.6c0.4-0.1,0.7-0.2,0.9-0.3c0.2-0.1,0.4-0.2,0.5-0.4c0.1-0.2,0.1-0.4,0.1-0.7
		c0-0.3,0-0.6-0.1-0.9c-0.1-0.3-0.2-0.7-0.3-1.1l-0.5-1.6h-5.9l-0.4,1.2c-0.2,0.6-0.4,1.1-0.4,1.4c-0.1,0.3-0.1,0.6-0.1,0.9
		c0,0.5,0.1,0.9,0.4,1.1c0.3,0.2,0.6,0.4,1.2,0.5v0.6h-5.4v-0.6c0.5-0.1,0.9-0.4,1.2-0.8c0.4-0.5,0.7-1.1,1-2l5.2-14h2l4.3,14.1
		c0.2,0.7,0.4,1.2,0.5,1.5c0.2,0.3,0.3,0.6,0.6,0.8c0.2,0.2,0.5,0.3,0.9,0.4v0.6L-124.6,18.1L-124.6,18.1z M-129.4,11.3h5.3
		l-2.4-8.1L-129.4,11.3z"/>
	<path fill="#282525" d="M-119.2,0.9h13.6v4.4h-1.2c-0.2-0.7-0.4-1.3-0.6-1.7c-0.2-0.4-0.4-0.7-0.6-1c-0.2-0.2-0.4-0.4-0.6-0.5
		c-0.2-0.1-0.6-0.1-1-0.1h-1.6v12.9c0,0.5,0,0.9,0.1,1.2c0.1,0.3,0.1,0.5,0.3,0.7c0.1,0.2,0.3,0.3,0.5,0.4c0.2,0.1,0.5,0.2,0.9,0.3
		v0.6h-5.8v-0.6c0.3-0.1,0.5-0.1,0.7-0.2c0.2-0.1,0.4-0.1,0.5-0.2c0.1-0.1,0.2-0.2,0.3-0.4s0.1-0.4,0.2-0.6c0-0.3,0.1-0.6,0.1-1.1V2
		h-1.6c-0.4,0-0.7,0-1,0.1c-0.3,0.1-0.5,0.2-0.7,0.5c-0.2,0.2-0.4,0.6-0.6,1s-0.4,1-0.5,1.7h-1.3V0.9L-119.2,0.9z"/>
	<path fill="#282525" d="M-96.7,18.1v-0.6c0.4-0.1,0.7-0.2,0.9-0.3c0.2-0.1,0.4-0.2,0.5-0.4c0.1-0.2,0.1-0.4,0.1-0.7
		c0-0.3,0-0.6-0.1-0.9c-0.1-0.3-0.2-0.7-0.3-1.1l-0.5-1.6h-5.9l-0.4,1.2c-0.2,0.6-0.4,1.1-0.4,1.4c-0.1,0.3-0.1,0.6-0.1,0.9
		c0,0.5,0.1,0.9,0.4,1.1c0.3,0.2,0.6,0.4,1.2,0.5v0.6h-5.4v-0.6c0.5-0.1,0.9-0.4,1.2-0.8c0.4-0.5,0.7-1.1,1-2l5.2-14h2l4.3,14.1
		c0.2,0.7,0.4,1.2,0.5,1.5c0.2,0.3,0.3,0.6,0.6,0.8c0.2,0.2,0.5,0.3,0.9,0.4v0.6L-96.7,18.1L-96.7,18.1L-96.7,18.1z M-101.6,11.3
		h5.3l-2.4-8.1L-101.6,11.3z"/>
	<path fill="#282525" d="M-85.3,16.9h3.3c0.4,0,0.7,0,0.9-0.1c0.2,0,0.4-0.1,0.6-0.2s0.3-0.2,0.5-0.4c0.1-0.2,0.3-0.4,0.4-0.6
		c0.1-0.3,0.2-0.6,0.4-1c0.1-0.4,0.3-1,0.4-1.7h1.3l-0.3,5.1h-11.3v-0.6c0.5-0.1,0.9-0.3,1.1-0.4c0.2-0.2,0.3-0.4,0.4-0.7
		c0.1-0.3,0.1-0.8,0.1-1.4V4c0-0.6,0-1-0.1-1.3c0-0.3-0.1-0.5-0.2-0.6c-0.1-0.1-0.2-0.3-0.4-0.4c-0.2-0.1-0.4-0.2-0.8-0.3V0.9h5.3
		v0.6c-0.4,0.1-0.6,0.2-0.8,0.3c-0.2,0.1-0.3,0.2-0.4,0.3c-0.1,0.1-0.2,0.3-0.2,0.6C-85.3,3-85.3,3.4-85.3,4L-85.3,16.9L-85.3,16.9z
		"/>
	<path fill="#282525" d="M-68.8,18.3c-1,0-1.9-0.2-2.8-0.5c-0.8-0.3-1.5-0.9-2.1-1.6c-0.6-0.7-1.1-1.6-1.4-2.7
		c-0.3-1.1-0.5-2.4-0.5-3.9c0-1.9,0.3-3.5,0.9-4.8c0.6-1.3,1.4-2.4,2.5-3.1c1.1-0.7,2.3-1.1,3.7-1.1c1.5,0,2.8,0.3,3.8,1
		c1,0.7,1.8,1.6,2.3,2.9c0.5,1.3,0.8,2.8,0.8,4.7c0,2-0.3,3.6-0.9,5c-0.6,1.3-1.4,2.4-2.5,3C-66.1,17.9-67.3,18.3-68.8,18.3z
		 M-72.9,9.3c0,2.6,0.4,4.5,1.1,5.9c0.8,1.3,1.8,2,3.3,2c0.9,0,1.7-0.3,2.3-0.9c0.6-0.6,1.1-1.4,1.4-2.6c0.3-1.1,0.5-2.4,0.5-3.9
		c0-1.8-0.2-3.3-0.6-4.6c-0.4-1.2-0.9-2.1-1.5-2.6C-67,2-67.8,1.8-68.6,1.8c-0.8,0-1.4,0.2-1.9,0.5c-0.5,0.4-1,0.9-1.3,1.5
		c-0.4,0.6-0.6,1.4-0.8,2.4C-72.8,7.1-72.9,8.1-72.9,9.3z"/>
	<path fill="#282525" d="M-46.5,18l-1,0.3l-0.9-1c-0.6,0.3-1.1,0.6-1.7,0.7c-0.6,0.2-1.3,0.2-2.1,0.2c-2.1,0-3.7-0.7-4.8-2.2
		c-1.1-1.5-1.6-3.6-1.6-6.5c0-1.8,0.3-3.4,0.9-4.7c0.6-1.3,1.4-2.4,2.5-3.1c1.1-0.7,2.4-1.1,3.9-1.1c0.8,0,1.5,0,2.3,0.1
		c0.7,0.1,1.5,0.2,2.4,0.5v3.5h-1.2C-48.1,4-48.4,3.4-48.7,3s-0.7-0.7-1.1-0.9c-0.4-0.2-1-0.3-1.6-0.3c-0.9,0-1.7,0.3-2.4,0.9
		c-0.7,0.6-1.2,1.5-1.6,2.6c-0.4,1.1-0.6,2.5-0.6,4.2c0,1.6,0.2,3.1,0.5,4.2c0.3,1.2,0.8,2.1,1.4,2.6c0.6,0.6,1.4,0.9,2.4,0.9
		c1,0,1.7-0.2,2.2-0.6c0.5-0.4,0.7-1.1,0.7-2v-0.8c0-0.8,0-1.3-0.1-1.6c-0.1-0.3-0.2-0.6-0.4-0.8c-0.2-0.2-0.5-0.3-1-0.5v-0.6h5.1
		v0.6c-0.3,0.1-0.5,0.2-0.7,0.4c-0.1,0.1-0.3,0.3-0.4,0.5s-0.1,0.4-0.2,0.7c0,0.3,0,0.7,0,1.2L-46.5,18L-46.5,18L-46.5,18z"/>
	<path fill="#282525" d="M-39,14.9c0,0.6,0,1,0.1,1.2c0,0.3,0.1,0.5,0.2,0.6c0.1,0.1,0.2,0.3,0.4,0.4c0.2,0.1,0.4,0.2,0.8,0.3V18
		h-5.3v-0.6c0.5-0.1,0.9-0.3,1.1-0.4c0.2-0.2,0.3-0.4,0.4-0.7c0.1-0.3,0.1-0.8,0.1-1.4V4c0-0.6,0-1-0.1-1.3c0-0.3-0.1-0.5-0.2-0.6
		C-41.7,2-41.8,1.9-42,1.8c-0.2-0.1-0.4-0.2-0.8-0.3V0.9h5.3v0.6c-0.4,0.1-0.6,0.2-0.8,0.3c-0.2,0.1-0.3,0.2-0.4,0.4
		c-0.1,0.1-0.2,0.3-0.2,0.6C-38.9,3-39,3.4-39,4L-39,14.9L-39,14.9z"/>
	<path fill="#282525" d="M-32.1,15.1v2.9h-2.5v-2.9H-32.1z"/>
	<path fill="#282525" d="M-25.3,10.6v4.3c0,0.6,0,1,0.1,1.3c0,0.3,0.1,0.5,0.2,0.6c0.1,0.1,0.2,0.3,0.4,0.3c0.2,0.1,0.4,0.2,0.8,0.3
		v0.6h-5.3v-0.6c0.5-0.1,0.9-0.3,1-0.4c0.2-0.2,0.3-0.4,0.3-0.7c0.1-0.3,0.1-0.8,0.1-1.4V4c0-0.6,0-1-0.1-1.3s-0.1-0.5-0.2-0.6
		c-0.1-0.1-0.2-0.3-0.4-0.4c-0.2-0.1-0.4-0.2-0.8-0.3V0.9h6.2c2,0,3.4,0.4,4.4,1.1c1,0.7,1.5,1.8,1.5,3.3c0,1.1-0.3,2.1-1,2.9
		c-0.6,0.8-1.6,1.4-2.9,1.9v0.1c0.5,0.2,1,0.5,1.3,0.9c0.4,0.4,0.8,1,1.2,1.8l1.1,2.1c0.3,0.6,0.6,1.1,0.8,1.4
		c0.2,0.3,0.5,0.6,0.7,0.7c0.2,0.2,0.6,0.3,1,0.4v0.6h-3.5c-0.3-0.4-0.6-0.9-0.9-1.4c-0.3-0.5-0.6-1-0.8-1.6L-21,13
		c-0.3-0.6-0.6-1.1-0.8-1.4c-0.2-0.3-0.4-0.5-0.6-0.6c-0.2-0.1-0.4-0.2-0.6-0.3c-0.2,0-0.5-0.1-0.9-0.1H-25.3L-25.3,10.6L-25.3,10.6
		L-25.3,10.6z M-25.3,2v7.5h1.4c0.7,0,1.3-0.1,1.8-0.2c0.5-0.1,0.9-0.3,1.3-0.6c0.4-0.3,0.7-0.7,0.9-1.2c0.2-0.5,0.4-1.2,0.4-1.9
		c0-0.8-0.1-1.5-0.4-2c-0.3-0.5-0.7-0.9-1.2-1.2C-21.8,2.1-22.6,2-23.5,2C-24.2,2-24.9,2-25.3,2z"/>
	<path fill="#282525" d="M-1.1,12.1c0,0.9-0.1,1.7-0.2,2.4c-0.2,0.6-0.4,1.2-0.7,1.7c-0.3,0.4-0.7,0.8-1.1,1.1
		c-0.4,0.3-1,0.6-1.6,0.7c-0.6,0.2-1.3,0.3-2.2,0.3c-1,0-1.9-0.1-2.6-0.3c-0.7-0.2-1.3-0.6-1.8-1.1c-0.5-0.5-0.8-1.1-1-1.8
		c-0.2-0.7-0.3-1.6-0.3-2.7V4c0-0.7,0-1.1-0.1-1.3c0-0.2-0.1-0.4-0.2-0.6C-13,2-13.1,1.9-13.2,1.8c-0.2-0.1-0.4-0.2-0.8-0.3V0.9h5.3
		v0.6c-0.5,0.1-0.8,0.2-1,0.4C-10,2-10.1,2.2-10.1,2.5c-0.1,0.3-0.1,0.8-0.1,1.5v8.9c0,0.8,0.1,1.5,0.3,2.1c0.2,0.6,0.4,1,0.7,1.3
		c0.3,0.3,0.7,0.5,1.1,0.7c0.4,0.1,1,0.2,1.6,0.2c0.6,0,1.1-0.1,1.6-0.3c0.4-0.2,0.8-0.5,1.1-0.9c0.3-0.4,0.5-0.9,0.6-1.6
		c0.1-0.6,0.2-1.4,0.2-2.5V4c0-0.7,0-1.2-0.1-1.5C-3.3,2.2-3.4,2-3.6,1.9c-0.2-0.1-0.5-0.3-1-0.4V0.9h5v0.6c-0.5,0.1-0.8,0.3-1,0.4
		C-0.8,2-0.9,2.3-1,2.5C-1,2.8-1.1,3.3-1.1,4L-1.1,12.1L-1.1,12.1z"/>
</g>
<g>
	<path d="M-146.4,21.6v-1.3h2.1v3.4h0.4v1.5h-0.5v-1.1h-2.3v1.1h-0.5v-1.5h0.3C-146.5,23-146.4,22.6-146.4,21.6z M-144.8,20.8h-1
		v1.1c0,0.8-0.1,1.2-0.4,1.8h1.5V20.8z"/>
	<path d="M-140.6,22.3c0,1.6-0.5,2-1.4,2c-0.8,0-1.4-0.5-1.4-2.1c0-1.3,0.4-2,1.4-2C-141,20.2-140.6,21-140.6,22.3z M-142.8,22.3
		c0,0.9,0.2,1.5,0.8,1.5c0.7,0,0.8-0.6,0.8-1.5c0-1.2-0.2-1.6-0.8-1.6C-142.6,20.7-142.8,21.1-142.8,22.3z"/>
	<path d="M-139.3,22.3c0,0.6,0,1.5,0.7,1.5c0.6,0,0.7-0.5,0.7-1h0.5c0,0.7-0.3,1.5-1.2,1.5c-1.2,0-1.4-1-1.4-2c0-1,0.2-2.1,1.3-2.1
		c0.8,0,1.2,0.6,1.2,1.3h-0.5c0-0.4-0.1-0.8-0.7-0.8C-139.2,20.7-139.3,21.5-139.3,22.3z"/>
	<path d="M-136,24.2v-3.4h-1v-0.5h2.6v0.5h-1v3.4H-136z"/>
	<path d="M-133.9,21.4c0-0.8,0.4-1.1,1.1-1.1c0.8,0,1.1,0.5,1.1,1v2.3c0,0.2,0.1,0.3,0.2,0.3c0,0,0.1,0,0.1,0v0.4c0,0-0.1,0-0.2,0
		c-0.3,0-0.5,0-0.6-0.6h0c-0.1,0.3-0.5,0.6-0.9,0.6c-0.7,0-1-0.4-1-1.1c0-0.7,0.3-0.9,1-1.2c0.3-0.1,0.6-0.3,0.7-0.3
		c0.1-0.1,0.1-0.3,0.1-0.5c0-0.4-0.1-0.6-0.6-0.6c-0.4,0-0.6,0.2-0.6,0.7H-133.9z M-133.4,23.2c0,0.3,0.1,0.6,0.5,0.6
		c0.6,0,0.7-0.4,0.7-0.8v-0.9C-132.8,22.4-133.4,22.5-133.4,23.2z"/>
	<path d="M-130.6,20.3h1.3c0.6,0,1,0.4,1,0.9c0,0.5-0.3,0.8-0.6,0.9v0c0.4,0.1,0.7,0.4,0.7,1c0,0.7-0.5,1.1-1,1.1h-1.4V20.3z
		 M-130.1,21.9h0.6c0.4,0,0.6-0.2,0.6-0.6c0-0.4-0.2-0.6-0.6-0.6h-0.6V21.9z M-130.1,23.7h0.6c0.5,0,0.6-0.2,0.6-0.7
		c0-0.5-0.2-0.7-0.6-0.7h-0.6V23.7z"/>
	<path d="M-126.8,22.1l1.3-1.8h0.7l-1.2,1.5l1.2,2.4h-0.6l-1-1.9l-0.4,0.6v1.4h-0.6v-3.9h0.6V22.1z"/>
	<path d="M-124.2,21.4c0-0.8,0.4-1.1,1.1-1.1c0.8,0,1.1,0.5,1.1,1v2.3c0,0.2,0.1,0.3,0.2,0.3c0,0,0.1,0,0.1,0v0.4c0,0-0.1,0-0.2,0
		c-0.3,0-0.5,0-0.6-0.6h0c-0.1,0.3-0.5,0.6-0.9,0.6c-0.7,0-1-0.4-1-1.1c0-0.7,0.3-0.9,1-1.2c0.3-0.1,0.6-0.3,0.7-0.3
		c0.1-0.1,0.1-0.3,0.1-0.5c0-0.4-0.1-0.6-0.6-0.6c-0.4,0-0.6,0.2-0.6,0.7H-124.2z M-123.8,23.2c0,0.3,0.1,0.6,0.5,0.6
		c0.6,0,0.7-0.4,0.7-0.8v-0.9C-123.2,22.4-123.8,22.5-123.8,23.2z"/>
	<path d="M-118.7,24.2v-3.4h-1v-0.5h2.6v0.5h-1v3.4H-118.7z"/>
	<path d="M-113.9,22.3c0,1.6-0.5,2-1.4,2c-0.8,0-1.4-0.5-1.4-2.1c0-1.3,0.4-2,1.4-2C-114.3,20.2-113.9,21-113.9,22.3z M-116.1,22.3
		c0,0.9,0.2,1.5,0.8,1.5c0.7,0,0.8-0.6,0.8-1.5c0-1.2-0.2-1.6-0.8-1.6C-115.8,20.7-116.1,21.1-116.1,22.3z"/>
	<path d="M-113,20.3h1.3c0.6,0,1,0.4,1,0.9c0,0.5-0.3,0.8-0.6,0.9v0c0.4,0.1,0.7,0.4,0.7,1c0,0.7-0.5,1.1-1,1.1h-1.4V20.3z
		 M-112.4,21.9h0.6c0.4,0,0.6-0.2,0.6-0.6c0-0.4-0.2-0.6-0.6-0.6h-0.6V21.9z M-112.4,23.7h0.6c0.5,0,0.6-0.2,0.6-0.7
		c0-0.5-0.2-0.7-0.6-0.7h-0.6V23.7z"/>
	<path d="M-109.8,21.4c0-0.8,0.4-1.1,1.1-1.1c0.8,0,1.1,0.5,1.1,1v2.3c0,0.2,0.1,0.3,0.2,0.3c0,0,0.1,0,0.1,0v0.4c0,0-0.1,0-0.2,0
		c-0.3,0-0.5,0-0.6-0.6h0c-0.1,0.3-0.5,0.6-0.9,0.6c-0.7,0-1-0.4-1-1.1c0-0.7,0.3-0.9,1-1.2c0.3-0.1,0.6-0.3,0.7-0.3
		c0.1-0.1,0.1-0.3,0.1-0.5c0-0.4-0.1-0.6-0.6-0.6c-0.4,0-0.6,0.2-0.6,0.7H-109.8z M-109.4,23.2c0,0.3,0.1,0.6,0.5,0.6
		c0.6,0,0.7-0.4,0.7-0.8v-0.9C-108.7,22.4-109.4,22.5-109.4,23.2z"/>
	<path d="M-106,20.8L-106,20.8c0.2-0.4,0.5-0.5,0.8-0.5c1,0,1.3,0.9,1.3,2c0,1.2-0.3,2.1-1.2,2.1c-0.4,0-0.6-0.2-0.8-0.5v1.8h-0.6
		v-5.2h0.6V20.8z M-106,22.3c0,0.7,0,1.6,0.7,1.6c0.6,0,0.8-0.6,0.8-1.6c0-0.5-0.1-1.5-0.8-1.5C-106,20.7-106,21.6-106,22.3z"/>
	<path d="M-100.5,22.3c0,1.6-0.5,2-1.4,2c-0.8,0-1.4-0.5-1.4-2.1c0-1.3,0.4-2,1.4-2C-100.9,20.2-100.5,21-100.5,22.3z M-102.7,22.3
		c0,0.9,0.2,1.5,0.8,1.5c0.7,0,0.8-0.6,0.8-1.5c0-1.2-0.2-1.6-0.8-1.6C-102.4,20.7-102.7,21.1-102.7,22.3z"/>
	<path d="M-99.6,20.3h1.3c0.6,0,1,0.4,1,0.9c0,0.5-0.3,0.8-0.6,0.9v0c0.4,0.1,0.7,0.4,0.7,1c0,0.7-0.5,1.1-1,1.1h-1.4V20.3z
		 M-99,21.9h0.6c0.4,0,0.6-0.2,0.6-0.6c0-0.4-0.2-0.6-0.6-0.6H-99V21.9z M-99,23.7h0.6c0.5,0,0.6-0.2,0.6-0.7c0-0.5-0.2-0.7-0.6-0.7
		H-99V23.7z"/>
	<path d="M-94,20.3v2.9c0,0.1,0,0.3-0.1,0.5h0c0-0.2,0.1-0.4,0.1-0.5l1.3-2.9h0.7v3.9h-0.6v-2.9c0-0.1,0-0.4,0.1-0.5h0
		c0,0.1-0.1,0.4-0.1,0.5l-1.3,2.9h-0.7v-3.9H-94z"/>
	<path d="M-91.2,21.4c0-0.6,0.5-1.1,1.2-1.1c0.7,0,1.1,0.4,1.1,1c0,0.5-0.3,0.8-0.7,1v0c0.4,0.1,0.8,0.4,0.8,1
		c0,0.7-0.5,1.1-1.2,1.1c-0.8,0-1.2-0.4-1.3-1.3h0.5c0.1,0.7,0.3,0.9,0.7,0.9c0.4,0,0.7-0.2,0.7-0.7c0-0.4-0.2-0.7-0.6-0.7h-0.3
		v-0.5h0.3c0.3,0,0.6-0.2,0.6-0.6c0-0.3-0.2-0.6-0.6-0.6c-0.4,0-0.6,0.3-0.7,0.7H-91.2z"/>
	<path d="M-85.6,20.3v2.9c0,0.1,0,0.3-0.1,0.5h0c0-0.2,0.1-0.4,0.1-0.5l1.3-2.9h0.7v3.9h-0.6v-2.9c0-0.1,0-0.4,0.1-0.5h0
		c0,0.1-0.1,0.4-0.1,0.5l-1.3,2.9h-0.7v-3.9H-85.6z"/>
	<path d="M-82,21.9h1.4v-1.6h0.6v3.9h-0.6v-1.8H-82v1.8h-0.6v-3.9h0.6V21.9z"/>
	<path d="M-78.5,24.2v-3.4h-1v-0.5h2.6v0.5h-1v3.4H-78.5z"/>
	<path d="M-74,22.9c0,0.8-0.4,1.4-1.2,1.4s-1.3-0.5-1.3-2c0-1,0.2-2,1.2-2c1.1,0,1.2,1.1,1.2,2.2h-1.9c0,0.9,0.1,1.4,0.7,1.4
		c0.5,0,0.6-0.5,0.6-0.9H-74z M-74.6,21.9c0-0.6-0.1-1.2-0.6-1.2c-0.6,0-0.7,0.7-0.7,1.2H-74.6z"/>
	<path d="M-72.6,20.8L-72.6,20.8c0.2-0.4,0.5-0.5,0.8-0.5c1,0,1.3,0.9,1.3,2c0,1.2-0.3,2.1-1.2,2.1c-0.4,0-0.6-0.2-0.8-0.5v1.8h-0.6
		v-5.2h0.6V20.8z M-72.6,22.3c0,0.7,0,1.6,0.7,1.6c0.6,0,0.8-0.6,0.8-1.6c0-0.5-0.1-1.5-0.8-1.5C-72.5,20.7-72.6,21.6-72.6,22.3z"/>
	<path d="M-69.1,21.9h1.4v-1.6h0.6v3.9h-0.6v-1.8h-1.4v1.8h-0.6v-3.9h0.6V21.9z"/>
	<path d="M-63.8,22.9c0,0.8-0.4,1.4-1.2,1.4s-1.3-0.5-1.3-2c0-1,0.2-2,1.2-2c1.1,0,1.2,1.1,1.2,2.2h-1.9c0,0.9,0.1,1.4,0.7,1.4
		c0.5,0,0.6-0.5,0.6-0.9H-63.8z M-64.4,21.9c0-0.6-0.1-1.2-0.6-1.2c-0.6,0-0.7,0.7-0.7,1.2H-64.4z"/>
	<path d="M-62.4,24.2v-3.4h-1v-0.5h2.6v0.5h-1v3.4H-62.4z"/>
	<path d="M-58.6,22.2v0.5h-1.8v-0.5H-58.6z"/>
	<path d="M-56.9,20.3l0.7,2.6c0.1,0.2,0.1,0.5,0.1,0.8h0c0-0.3,0.1-0.6,0.1-0.8l0.7-2.6h0.9v3.9h-0.5v-3.4h0l-1,3.4h-0.4l-1-3.4h0
		v3.4h-0.5v-3.9H-56.9z"/>
	<path d="M-53.4,21.4c0-0.8,0.4-1.1,1.1-1.1c0.8,0,1.1,0.5,1.1,1v2.3c0,0.2,0.1,0.3,0.2,0.3c0,0,0.1,0,0.1,0v0.4c0,0-0.1,0-0.2,0
		c-0.3,0-0.5,0-0.6-0.6h0c-0.1,0.3-0.5,0.6-0.9,0.6c-0.7,0-1-0.4-1-1.1c0-0.7,0.3-0.9,1-1.2c0.3-0.1,0.6-0.3,0.7-0.3
		c0.1-0.1,0.1-0.3,0.1-0.5c0-0.4-0.1-0.6-0.6-0.6c-0.4,0-0.6,0.2-0.6,0.7H-53.4z M-53,23.2c0,0.3,0.1,0.6,0.5,0.6
		c0.6,0,0.7-0.4,0.7-0.8v-0.9C-52.3,22.4-53,22.5-53,23.2z"/>
	<path d="M-48.2,20.3v0.5h-1.5v3.4h-0.6v-3.9H-48.2z"/>
	<path d="M-47.6,21.4c0-0.8,0.4-1.1,1.1-1.1c0.8,0,1.1,0.5,1.1,1v2.3c0,0.2,0.1,0.3,0.2,0.3c0,0,0.1,0,0.1,0v0.4c0,0-0.1,0-0.2,0
		c-0.3,0-0.5,0-0.6-0.6h0c-0.1,0.3-0.5,0.6-0.9,0.6c-0.7,0-1-0.4-1-1.1c0-0.7,0.3-0.9,1-1.2c0.3-0.1,0.6-0.3,0.7-0.3
		c0.1-0.1,0.1-0.3,0.1-0.5c0-0.4-0.1-0.6-0.6-0.6c-0.4,0-0.6,0.2-0.6,0.7H-47.6z M-47.2,23.2c0,0.3,0.1,0.6,0.5,0.6
		c0.6,0,0.7-0.4,0.7-0.8v-0.9C-46.5,22.4-47.2,22.5-47.2,23.2z"/>
	<path d="M-44.6,21.4c0-0.6,0.5-1.1,1.2-1.1c0.7,0,1.1,0.4,1.1,1c0,0.5-0.3,0.8-0.7,1v0c0.4,0.1,0.8,0.4,0.8,1
		c0,0.7-0.5,1.1-1.2,1.1c-0.8,0-1.2-0.4-1.3-1.3h0.5c0.1,0.7,0.3,0.9,0.7,0.9c0.4,0,0.7-0.2,0.7-0.7c0-0.4-0.2-0.7-0.6-0.7h-0.3
		v-0.5h0.3c0.3,0,0.6-0.2,0.6-0.6c0-0.3-0.2-0.6-0.6-0.6c-0.4,0-0.6,0.3-0.7,0.7H-44.6z"/>
	<path d="M-40.8,20.3v2.9c0,0.1,0,0.3-0.1,0.5h0c0-0.2,0.1-0.4,0.1-0.5l1.3-2.9h0.7v3.9h-0.6v-2.9c0-0.1,0-0.4,0.1-0.5h0
		c0,0.1-0.1,0.4-0.1,0.5l-1.3,2.9h-0.7v-3.9H-40.8z"/>
	<path d="M-37.2,21.9h1.4v-1.6h0.6v3.9h-0.6v-1.8h-1.4v1.8h-0.6v-3.9h0.6V21.9z"/>
	<path d="M-34.3,21.4c0-0.8,0.4-1.1,1.1-1.1c0.8,0,1.1,0.5,1.1,1v2.3c0,0.2,0.1,0.3,0.2,0.3c0,0,0.1,0,0.1,0v0.4c0,0-0.1,0-0.2,0
		c-0.3,0-0.5,0-0.6-0.6h0c-0.1,0.3-0.5,0.6-0.9,0.6c-0.7,0-1-0.4-1-1.1c0-0.7,0.3-0.9,1-1.2c0.3-0.1,0.6-0.3,0.7-0.3
		c0.1-0.1,0.1-0.3,0.1-0.5c0-0.4-0.1-0.6-0.6-0.6c-0.4,0-0.6,0.2-0.6,0.7H-34.3z M-33.9,23.2c0,0.3,0.1,0.6,0.5,0.6
		c0.6,0,0.7-0.4,0.7-0.8v-0.9C-33.2,22.4-33.9,22.5-33.9,23.2z"/>
	<path d="M-28.9,22.3c0,0.6,0,1.5,0.7,1.5c0.6,0,0.7-0.5,0.7-1h0.5c0,0.7-0.3,1.5-1.2,1.5c-1.2,0-1.4-1-1.4-2c0-1,0.2-2.1,1.3-2.1
		c0.8,0,1.2,0.6,1.2,1.3h-0.5c0-0.4-0.1-0.8-0.7-0.8C-28.8,20.7-28.9,21.5-28.9,22.3z"/>
	<path d="M-23.6,22.3c0,1.6-0.5,2-1.4,2c-0.8,0-1.4-0.5-1.4-2.1c0-1.3,0.4-2,1.4-2C-24,20.2-23.6,21-23.6,22.3z M-25.8,22.3
		c0,0.9,0.2,1.5,0.8,1.5c0.7,0,0.8-0.6,0.8-1.5c0-1.2-0.2-1.6-0.8-1.6C-25.5,20.7-25.8,21.1-25.8,22.3z"/>
	<path d="M-22.2,20.8L-22.2,20.8c0.2-0.3,0.6-0.5,1-0.5c0.6,0,1,0.3,1,1v3h-0.6v-2.8c0-0.4-0.1-0.7-0.6-0.7c-0.5,0-0.8,0.4-0.8,0.8
		v2.7h-0.6v-3.9h0.6V20.8z"/>
	<path d="M-18.7,24.2h-0.6V19h0.6V24.2z"/>
	<path d="M-15.3,22.9c0,0.8-0.4,1.4-1.2,1.4s-1.3-0.5-1.3-2c0-1,0.2-2,1.2-2c1.1,0,1.2,1.1,1.2,2.2h-1.9c0,0.9,0.1,1.4,0.7,1.4
		c0.5,0,0.6-0.5,0.6-0.9H-15.3z M-15.9,21.9c0-0.6-0.1-1.2-0.6-1.2c-0.6,0-0.7,0.7-0.7,1.2H-15.9z"/>
	<path d="M-14.3,20.3l0.9,3.1h0l0.9-3.1h0.6l-1.2,3.9c-0.2,0.7-0.4,1.3-1.2,1.3c-0.1,0-0.3,0-0.4-0.1V25c0.1,0.1,0.3,0.1,0.4,0.1
		c0.4,0,0.6-0.3,0.7-0.8l-1.2-3.9H-14.3z"/>
	<path d="M-9.8,21.4c0-0.5-0.2-0.7-0.6-0.7c-0.4,0-0.6,0.2-0.6,0.6c0,0.4,0.3,0.6,0.7,0.7c0.6,0.2,1.1,0.5,1.1,1.2
		c0,0.7-0.5,1.2-1.3,1.2c-0.9,0-1.2-0.4-1.2-1.2h0.5c0,0.5,0.2,0.8,0.7,0.8c0.5,0,0.7-0.2,0.7-0.7c0-0.5-0.5-0.6-0.9-0.8
		c-0.6-0.3-0.9-0.5-0.9-1.1c0-0.7,0.4-1.1,1.1-1.1c0.7,0,1.2,0.4,1.2,1.1H-9.8z"/>
	<path d="M-7.6,23.5v0.7h-0.6v-0.7H-7.6z"/>
	<path d="M-4.1,19v5.2h-0.6v-0.5h0c-0.2,0.5-0.5,0.6-0.9,0.6c-1,0-1.1-1-1.1-2.1c0-1.1,0.4-1.9,1.2-1.9c0.4,0,0.6,0.2,0.9,0.5h0V19
		H-4.1z M-6.1,22.3c0,0.7,0,1.6,0.7,1.6c0.6,0,0.8-0.6,0.8-1.6c0-0.5-0.1-1.5-0.8-1.5C-6.1,20.7-6.1,21.6-6.1,22.3z"/>
	<path d="M-0.7,22.9c0,0.8-0.4,1.4-1.2,1.4s-1.3-0.5-1.3-2c0-1,0.2-2,1.2-2c1.1,0,1.2,1.1,1.2,2.2h-1.9c0,0.9,0.1,1.4,0.7,1.4
		c0.5,0,0.6-0.5,0.6-0.9H-0.7z M-1.3,21.9c0-0.6-0.1-1.2-0.6-1.2c-0.6,0-0.7,0.7-0.7,1.2H-1.3z"/>
</g>
</svg>
