<?xml version="1.0" encoding="utf-8"?>
<!-- Generator: Adobe Illustrator 13.0.0, SVG Export Plug-In . SVG Version: 6.00 Build 14948)  -->
<!DOCTYPE svg PUBLIC "-//W3C//DTD SVG 1.1//EN" "http://www.w3.org/Graphics/SVG/1.1/DTD/svg11.dtd" [
	<!ENTITY ns_extend "http://ns.adobe.com/Extensibility/1.0/">
	<!ENTITY ns_ai "http://ns.adobe.com/AdobeIllustrator/10.0/">
	<!ENTITY ns_graphs "http://ns.adobe.com/Graphs/1.0/">
	<!ENTITY ns_vars "http://ns.adobe.com/Variables/1.0/">
	<!ENTITY ns_imrep "http://ns.adobe.com/ImageReplacement/1.0/">
	<!ENTITY ns_sfw "http://ns.adobe.com/SaveForWeb/1.0/">
	<!ENTITY ns_custom "http://ns.adobe.com/GenericCustomNamespace/1.0/">
	<!ENTITY ns_adobe_xpath "http://ns.adobe.com/XPath/1.0/">
]>
<svg version="1.1" id="Ebene_1" xmlns:x="&ns_extend;" xmlns:i="&ns_ai;" xmlns:graph="&ns_graphs;"
	 xmlns="http://www.w3.org/2000/svg" xmlns:xlink="http://www.w3.org/1999/xlink" x="0px" y="0px" width="148.67px"
	 height="28.17px" viewBox="2.83 -5 148.67 28.17" enable-background="new 2.83 -5 148.67 28.17" xml:space="preserve">
<metadata>
	<sfw  xmlns="&ns_sfw;">
		<slices></slices>
		<sliceSourceBounds  y="2.47" x="-8120" width="16383" height="22.81" bottomLeftOrigin="true"></sliceSourceBounds>
	</sfw>
</metadata>
<g>
	<path d="M6.81,20.35v-0.99h1.91v2.65h0.33v1.18H8.6v-0.82H6.56v0.82H6.1v-1.18h0.3C6.71,21.44,6.81,21.11,6.81,20.35z M8.22,19.72
		H7.29v0.86c0,0.61-0.11,0.93-0.38,1.43h1.32L8.22,19.72L8.22,19.72z"/>
	<path d="M12.02,20.86c0,1.23-0.48,1.59-1.25,1.59c-0.75,0-1.25-0.36-1.25-1.59c0-1.01,0.39-1.57,1.25-1.57S12.02,19.85,12.02,20.86
		z M10.03,20.9c0,0.71,0.16,1.19,0.73,1.19c0.59,0,0.73-0.48,0.73-1.19c0-0.91-0.21-1.25-0.73-1.25
		C10.24,19.64,10.03,19.99,10.03,20.9z"/>
	<path d="M13.19,20.91c0,0.49,0.03,1.19,0.67,1.19c0.54,0,0.59-0.4,0.62-0.77h0.47c0,0.57-0.27,1.13-1.05,1.13
		c-1.07,0-1.22-0.77-1.22-1.54c0-0.79,0.21-1.62,1.21-1.62c0.7,0,1.06,0.46,1.06,1.01h-0.47c0-0.33-0.12-0.66-0.6-0.66
		C13.28,19.64,13.19,20.28,13.19,20.91z"/>
	<path d="M16.2,22.37v-2.65h-0.92v-0.36h2.32v0.36h-0.91v2.65H16.2z"/>
	<path d="M18.1,20.17c0-0.62,0.35-0.88,1.01-0.88c0.7,0,0.98,0.36,0.98,0.76v1.77c0,0.14,0.06,0.24,0.19,0.24
		c0.03,0,0.08-0.01,0.11-0.01v0.32c-0.03,0.02-0.12,0.03-0.2,0.03c-0.3,0-0.46-0.03-0.54-0.44h-0.01c-0.12,0.27-0.44,0.48-0.77,0.48
		c-0.61,0-0.9-0.28-0.9-0.83c0-0.53,0.26-0.72,0.87-0.93c0.23-0.07,0.57-0.21,0.62-0.22c0.12-0.05,0.13-0.21,0.13-0.35
		c0-0.34-0.13-0.46-0.53-0.46c-0.37,0-0.51,0.18-0.51,0.53H18.1V20.17z M18.48,21.6c0,0.27,0.13,0.46,0.46,0.46
		c0.52,0,0.64-0.3,0.64-0.61v-0.72C19.06,20.98,18.48,21.02,18.48,21.6z"/>
	<path d="M21,19.36h1.13c0.52,0,0.94,0.28,0.94,0.71c0,0.39-0.23,0.64-0.54,0.71v0.01c0.39,0.08,0.63,0.34,0.63,0.75
		c0,0.52-0.41,0.82-0.86,0.82H21V19.36z M21.49,20.61h0.52c0.38,0,0.55-0.13,0.55-0.46c0-0.29-0.17-0.43-0.53-0.43h-0.54
		L21.49,20.61L21.49,20.61z M21.49,22.01h0.58c0.46,0,0.58-0.17,0.58-0.52s-0.21-0.52-0.58-0.52h-0.58V22.01z"/>
	<path d="M24.44,20.76l1.21-1.4h0.59l-1.08,1.17l1.11,1.83h-0.58l-0.87-1.5l-0.38,0.43v1.07h-0.5v-3.01h0.5V20.76z"/>
	<path d="M26.77,20.17c0-0.62,0.35-0.88,1.01-0.88c0.7,0,0.98,0.36,0.98,0.76v1.77c0,0.14,0.06,0.24,0.19,0.24
		c0.03,0,0.08-0.01,0.11-0.01v0.32c-0.03,0.02-0.12,0.03-0.2,0.03c-0.3,0-0.46-0.03-0.54-0.44H28.3c-0.12,0.27-0.44,0.48-0.77,0.48
		c-0.61,0-0.9-0.28-0.9-0.83c0-0.53,0.26-0.72,0.87-0.93c0.23-0.07,0.57-0.21,0.62-0.22c0.12-0.05,0.13-0.21,0.13-0.35
		c0-0.34-0.13-0.46-0.53-0.46c-0.37,0-0.51,0.18-0.51,0.53h-0.44V20.17z M27.15,21.6c0,0.27,0.13,0.46,0.46,0.46
		c0.52,0,0.64-0.3,0.64-0.61v-0.72C27.74,20.98,27.15,21.02,27.15,21.6z"/>
	<path d="M31.79,22.37v-2.65h-0.92v-0.36h2.32v0.36h-0.91v2.65H31.79z"/>
	<path d="M36.12,20.86c0,1.23-0.48,1.59-1.25,1.59c-0.75,0-1.25-0.36-1.25-1.59c0-1.01,0.39-1.57,1.25-1.57
		C35.73,19.28,36.12,19.85,36.12,20.86z M34.14,20.9c0,0.71,0.16,1.19,0.73,1.19c0.59,0,0.73-0.48,0.73-1.19
		c0-0.91-0.21-1.25-0.73-1.25C34.34,19.64,34.14,19.99,34.14,20.9z"/>
	<path d="M36.91,19.36h1.13c0.52,0,0.94,0.28,0.94,0.71c0,0.39-0.23,0.64-0.54,0.71v0.01c0.39,0.08,0.63,0.34,0.63,0.75
		c0,0.52-0.41,0.82-0.86,0.82h-1.3V19.36z M37.4,20.61h0.52c0.38,0,0.55-0.13,0.55-0.46c0-0.29-0.17-0.43-0.53-0.43H37.4V20.61z
		 M37.4,22.01h0.58c0.46,0,0.58-0.17,0.58-0.52s-0.21-0.52-0.58-0.52H37.4V22.01z"/>
	<path d="M39.8,20.17c0-0.62,0.35-0.88,1.01-0.88c0.7,0,0.98,0.36,0.98,0.76v1.77c0,0.14,0.06,0.24,0.19,0.24
		c0.03,0,0.08-0.01,0.11-0.01v0.32c-0.03,0.02-0.12,0.03-0.2,0.03c-0.3,0-0.46-0.03-0.54-0.44h-0.01c-0.12,0.27-0.44,0.48-0.77,0.48
		c-0.61,0-0.9-0.28-0.9-0.83c0-0.53,0.26-0.72,0.87-0.93c0.23-0.07,0.57-0.21,0.62-0.22c0.12-0.05,0.13-0.21,0.13-0.35
		c0-0.34-0.13-0.46-0.53-0.46c-0.37,0-0.51,0.18-0.51,0.53H39.8V20.17z M40.18,21.6c0,0.27,0.13,0.46,0.46,0.46
		c0.52,0,0.64-0.3,0.64-0.61v-0.72C40.76,20.98,40.18,21.02,40.18,21.6z"/>
	<path d="M43.19,19.69L43.19,19.69c0.16-0.28,0.48-0.41,0.72-0.41c0.88,0,1.15,0.69,1.15,1.53c0,0.91-0.24,1.63-1.11,1.63
		c-0.35,0-0.56-0.15-0.75-0.39v1.36h-0.5v-4.05h0.5v0.33H43.19z M43.19,20.86c0,0.58,0.04,1.23,0.67,1.23
		c0.52,0,0.68-0.46,0.68-1.27c0-0.4-0.05-1.17-0.69-1.17C43.25,19.64,43.19,20.33,43.19,20.86z"/>
	<path d="M48.22,20.86c0,1.23-0.48,1.59-1.25,1.59c-0.75,0-1.25-0.36-1.25-1.59c0-1.01,0.39-1.57,1.25-1.57
		C47.83,19.28,48.22,19.85,48.22,20.86z M46.23,20.9c0,0.71,0.16,1.19,0.73,1.19c0.59,0,0.73-0.48,0.73-1.19
		c0-0.91-0.21-1.25-0.73-1.25S46.23,19.99,46.23,20.9z"/>
	<path d="M49,19.36h1.13c0.52,0,0.94,0.28,0.94,0.71c0,0.39-0.23,0.64-0.54,0.71v0.01c0.39,0.08,0.63,0.34,0.63,0.75
		c0,0.52-0.41,0.82-0.86,0.82H49V19.36z M49.5,20.61h0.52c0.38,0,0.55-0.13,0.55-0.46c0-0.29-0.17-0.43-0.53-0.43H49.5V20.61z
		 M49.5,22.01h0.58c0.46,0,0.58-0.17,0.58-0.52s-0.21-0.52-0.58-0.52H49.5V22.01z"/>
	<path d="M54.02,19.36v2.29c0,0.1-0.03,0.25-0.05,0.36h0.01c0.03-0.14,0.07-0.29,0.1-0.36l1.16-2.29h0.6v3.01h-0.5v-2.28
		c0-0.09,0.03-0.28,0.05-0.37h-0.01c-0.02,0.1-0.08,0.33-0.1,0.37l-1.16,2.28h-0.6v-3.01H54.02z"/>
	<path d="M56.55,20.17c0.03-0.47,0.43-0.88,1.07-0.88c0.59,0,1.03,0.33,1.03,0.76c0,0.4-0.26,0.65-0.62,0.74v0.01
		c0.33,0.06,0.71,0.28,0.71,0.77c0,0.53-0.43,0.89-1.11,0.89c-0.73,0-1.08-0.32-1.14-1.02h0.46c0.05,0.52,0.25,0.66,0.65,0.66
		c0.38,0,0.63-0.15,0.63-0.56c0-0.32-0.21-0.56-0.58-0.56h-0.27v-0.36h0.27c0.28,0,0.51-0.19,0.51-0.5c0-0.23-0.16-0.46-0.56-0.46
		s-0.58,0.23-0.6,0.52H56.55z"/>
	<path d="M61.6,19.36v2.29c0,0.1-0.03,0.25-0.05,0.36h0.01c0.03-0.14,0.07-0.29,0.1-0.36l1.16-2.29h0.6v3.01h-0.5v-2.28
		c0-0.09,0.03-0.28,0.05-0.37h-0.01c-0.02,0.1-0.08,0.33-0.1,0.37l-1.16,2.28h-0.6v-3.01H61.6z"/>
	<path d="M64.84,20.61h1.24v-1.25h0.5v3.01h-0.5v-1.4h-1.24v1.4h-0.5v-3.01h0.5V20.61z"/>
	<path d="M68.04,22.37v-2.65h-0.92v-0.36h2.32v0.36h-0.91v2.65H68.04z"/>
	<path d="M72.08,21.36c0,0.59-0.32,1.08-1.05,1.08c-0.73,0-1.16-0.38-1.16-1.59c0-0.76,0.2-1.57,1.12-1.57
		c0.99,0,1.09,0.88,1.09,1.68h-1.7c0,0.69,0.05,1.12,0.63,1.12c0.48,0,0.57-0.38,0.57-0.72H72.08z M71.56,20.61
		c0-0.46-0.07-0.96-0.57-0.96c-0.55,0-0.61,0.56-0.61,0.96H71.56z"/>
	<path d="M73.36,19.69L73.36,19.69c0.16-0.28,0.48-0.41,0.72-0.41c0.88,0,1.15,0.69,1.15,1.53c0,0.91-0.24,1.63-1.11,1.63
		c-0.35,0-0.56-0.15-0.75-0.39v1.36h-0.5v-4.05h0.5v0.33H73.36z M73.36,20.86c0,0.58,0.04,1.23,0.67,1.23
		c0.52,0,0.68-0.46,0.68-1.27c0-0.4-0.05-1.17-0.69-1.17C73.42,19.64,73.36,20.33,73.36,20.86z"/>
	<path d="M76.51,20.61h1.24v-1.25h0.5v3.01h-0.5v-1.4h-1.24v1.4h-0.5v-3.01h0.5V20.61z"/>
	<path d="M81.25,21.36c0,0.59-0.32,1.08-1.05,1.08s-1.16-0.38-1.16-1.59c0-0.76,0.2-1.57,1.12-1.57c0.99,0,1.09,0.88,1.09,1.68h-1.7
		c0,0.69,0.05,1.12,0.63,1.12c0.48,0,0.57-0.38,0.57-0.72H81.25z M80.73,20.61c0-0.46-0.07-0.96-0.57-0.96
		c-0.55,0-0.61,0.56-0.61,0.96H80.73z"/>
	<path d="M82.58,22.37v-2.65h-0.92v-0.36h2.32v0.36h-0.91v2.65H82.58z"/>
	<path d="M86,20.8v0.38h-1.64V20.8H86z"/>
	<path d="M87.5,19.36l0.63,1.98c0.05,0.14,0.09,0.4,0.13,0.61h0.01c0.04-0.21,0.07-0.45,0.12-0.61l0.63-1.98h0.77v3.01h-0.48v-2.65
		H89.3l-0.88,2.65h-0.33l-0.88-2.65H87.2v2.65h-0.48v-3.01H87.5z"/>
	<path d="M90.66,20.17c0-0.62,0.35-0.88,1.01-0.88c0.7,0,0.98,0.36,0.98,0.76v1.77c0,0.14,0.06,0.24,0.19,0.24
		c0.03,0,0.08-0.01,0.11-0.01v0.32c-0.03,0.02-0.12,0.03-0.2,0.03c-0.3,0-0.46-0.03-0.54-0.44H92.2c-0.12,0.27-0.44,0.48-0.77,0.48
		c-0.61,0-0.9-0.28-0.9-0.83c0-0.53,0.26-0.72,0.87-0.93c0.23-0.07,0.57-0.21,0.62-0.22c0.13-0.05,0.13-0.21,0.13-0.35
		c0-0.34-0.13-0.46-0.53-0.46c-0.37,0-0.51,0.18-0.51,0.53h-0.45V20.17z M91.04,21.6c0,0.27,0.13,0.46,0.46,0.46
		c0.52,0,0.64-0.3,0.64-0.61v-0.72C91.62,20.98,91.04,21.02,91.04,21.6z"/>
	<path d="M95.4,19.36v0.36h-1.35v2.65h-0.5v-3.01H95.4z"/>
	<path d="M95.9,20.17c0-0.62,0.35-0.88,1.01-0.88c0.7,0,0.98,0.36,0.98,0.76v1.77c0,0.14,0.06,0.24,0.19,0.24
		c0.03,0,0.08-0.01,0.11-0.01v0.32c-0.03,0.02-0.12,0.03-0.2,0.03c-0.3,0-0.46-0.03-0.54-0.44h-0.01c-0.12,0.27-0.44,0.48-0.77,0.48
		c-0.61,0-0.9-0.28-0.9-0.83c0-0.53,0.26-0.72,0.87-0.93c0.23-0.07,0.57-0.21,0.62-0.22c0.13-0.05,0.13-0.21,0.13-0.35
		c0-0.34-0.13-0.46-0.53-0.46c-0.37,0-0.51,0.18-0.51,0.53H95.9V20.17z M96.28,21.6c0,0.27,0.13,0.46,0.46,0.46
		c0.52,0,0.64-0.3,0.64-0.61v-0.72C96.86,20.98,96.28,21.02,96.28,21.6z"/>
	<path d="M98.59,20.17c0.03-0.47,0.43-0.88,1.07-0.88c0.59,0,1.03,0.33,1.03,0.76c0,0.4-0.26,0.65-0.62,0.74v0.01
		c0.33,0.06,0.71,0.28,0.71,0.77c0,0.53-0.42,0.89-1.11,0.89c-0.73,0-1.08-0.32-1.14-1.02h0.46c0.05,0.52,0.25,0.66,0.65,0.66
		c0.38,0,0.63-0.15,0.63-0.56c0-0.32-0.21-0.56-0.58-0.56h-0.28v-0.36h0.27c0.28,0,0.51-0.19,0.51-0.5c0-0.23-0.16-0.46-0.56-0.46
		s-0.58,0.23-0.6,0.52H98.59z"/>
	<path d="M102.07,19.36v2.29c0,0.1-0.03,0.25-0.05,0.36h0.01c0.03-0.14,0.07-0.29,0.1-0.36l1.16-2.29h0.6v3.01h-0.5v-2.28
		c0-0.09,0.03-0.28,0.05-0.37h-0.01c-0.02,0.1-0.08,0.33-0.11,0.37l-1.16,2.28h-0.6v-3.01H102.07z"/>
	<path d="M105.3,20.61h1.24v-1.25h0.5v3.01h-0.5v-1.4h-1.24v1.4h-0.5v-3.01h0.5V20.61z"/>
	<path d="M107.89,20.17c0-0.62,0.35-0.88,1.01-0.88c0.7,0,0.98,0.36,0.98,0.76v1.77c0,0.14,0.06,0.24,0.19,0.24
		c0.03,0,0.08-0.01,0.11-0.01v0.32c-0.03,0.02-0.12,0.03-0.2,0.03c-0.3,0-0.46-0.03-0.54-0.44h-0.01c-0.12,0.27-0.44,0.48-0.77,0.48
		c-0.61,0-0.9-0.28-0.9-0.83c0-0.53,0.26-0.72,0.87-0.93c0.23-0.07,0.57-0.21,0.62-0.22c0.13-0.05,0.13-0.21,0.13-0.35
		c0-0.34-0.13-0.46-0.53-0.46c-0.37,0-0.51,0.18-0.51,0.53h-0.45V20.17z M108.27,21.6c0,0.27,0.13,0.46,0.46,0.46
		c0.52,0,0.64-0.3,0.64-0.61v-0.72C108.86,20.98,108.27,21.02,108.27,21.6z"/>
	<path d="M113.83,20.17c0-0.35-0.16-0.52-0.56-0.52c-0.35,0-0.5,0.19-0.5,0.46c0,0.33,0.25,0.43,0.63,0.55
		c0.52,0.16,1.03,0.35,1.03,0.9c0,0.58-0.42,0.89-1.16,0.89c-0.81,0-1.09-0.31-1.09-0.95h0.47c0,0.39,0.14,0.59,0.59,0.59
		c0.41,0,0.67-0.14,0.67-0.51c0-0.39-0.44-0.46-0.8-0.58c-0.54-0.2-0.85-0.4-0.85-0.87c0-0.52,0.39-0.83,0.99-0.83
		c0.66,0,1.05,0.31,1.05,0.89h-0.47V20.17z"/>
	<path d="M115.54,20.91c0,0.49,0.03,1.19,0.67,1.19c0.54,0,0.59-0.4,0.62-0.77h0.47c0,0.57-0.27,1.13-1.05,1.13
		c-1.07,0-1.22-0.77-1.22-1.54c0-0.79,0.21-1.62,1.21-1.62c0.7,0,1.06,0.46,1.06,1.01h-0.47c0-0.33-0.13-0.66-0.6-0.66
		C115.64,19.64,115.54,20.28,115.54,20.91z"/>
	<path d="M118.5,19.69L118.5,19.69c0.21-0.25,0.5-0.41,0.87-0.41c0.52,0,0.86,0.23,0.86,0.76v2.32h-0.5v-2.2
		c0-0.31-0.12-0.52-0.52-0.52c-0.42,0-0.71,0.28-0.71,0.64v2.08H118v-4.05h0.5V19.69z"/>
	<path d="M121.65,19.69L121.65,19.69c0.21-0.25,0.5-0.41,0.87-0.41c0.52,0,0.86,0.23,0.86,0.76v2.32h-0.5v-2.2
		c0-0.31-0.12-0.52-0.52-0.52c-0.42,0-0.71,0.28-0.71,0.64v2.08h-0.5v-3.01h0.5V19.69z"/>
	<path d="M126.38,21.36c0,0.59-0.32,1.08-1.05,1.08s-1.16-0.38-1.16-1.59c0-0.76,0.2-1.57,1.12-1.57c0.99,0,1.09,0.88,1.09,1.68
		h-1.7c0,0.69,0.05,1.12,0.63,1.12c0.48,0,0.57-0.38,0.57-0.72H126.38z M125.87,20.61c0-0.46-0.07-0.96-0.57-0.96
		c-0.55,0-0.61,0.56-0.61,0.96H125.87z"/>
	<path d="M127.17,18.85v-0.54h0.5v0.54H127.17z M127.67,22.37h-0.5v-3.01h0.5V22.37z"/>
	<path d="M130.82,18.31v4.05h-0.5V22h-0.01c-0.22,0.36-0.42,0.45-0.84,0.45c-0.86,0-1.02-0.78-1.02-1.65c0-0.87,0.34-1.5,1.05-1.5
		c0.36,0,0.57,0.13,0.8,0.39h0.01v-1.36L130.82,18.31L130.82,18.31z M128.97,20.86c0,0.58,0.04,1.23,0.67,1.23
		c0.52,0,0.68-0.46,0.68-1.27c0-0.4-0.05-1.17-0.69-1.17C129.02,19.64,128.97,20.33,128.97,20.86z"/>
	<path d="M133.82,21.36c0,0.59-0.32,1.08-1.05,1.08c-0.73,0-1.16-0.38-1.16-1.59c0-0.76,0.2-1.57,1.12-1.57
		c0.99,0,1.09,0.88,1.09,1.68h-1.7c0,0.69,0.05,1.12,0.63,1.12c0.48,0,0.57-0.38,0.57-0.72H133.82z M133.3,20.61
		c0-0.46-0.07-0.96-0.57-0.96c-0.55,0-0.61,0.56-0.61,0.96H133.3z"/>
	<path d="M135.1,19.85L135.1,19.85c0.19-0.35,0.44-0.53,0.88-0.53c0.05,0,0.08,0.01,0.14,0.01v0.41c-0.07-0.01-0.14-0.02-0.21-0.02
		c-0.51,0-0.8,0.33-0.8,0.81v1.82h-0.5v-3.01h0.5L135.1,19.85L135.1,19.85z"/>
	<path d="M137.26,21.83v0.54h-0.57v-0.54H137.26z"/>
	<path d="M140.45,18.31v4.05h-0.5V22h-0.01c-0.22,0.36-0.42,0.45-0.84,0.45c-0.86,0-1.02-0.78-1.02-1.65c0-0.87,0.34-1.5,1.05-1.5
		c0.36,0,0.57,0.13,0.8,0.39h0.01v-1.36L140.45,18.31L140.45,18.31z M138.61,20.86c0,0.58,0.04,1.23,0.67,1.23
		c0.52,0,0.68-0.46,0.68-1.27c0-0.4-0.05-1.17-0.69-1.17C138.66,19.64,138.61,20.33,138.61,20.86z"/>
	<path d="M143.45,21.36c0,0.59-0.32,1.08-1.05,1.08c-0.73,0-1.16-0.38-1.16-1.59c0-0.76,0.2-1.57,1.12-1.57
		c0.99,0,1.09,0.88,1.09,1.68h-1.7c0,0.69,0.05,1.12,0.63,1.12c0.48,0,0.57-0.38,0.57-0.72H143.45z M142.93,20.61
		c0-0.46-0.07-0.96-0.57-0.96c-0.55,0-0.61,0.56-0.61,0.96H142.93z"/>
</g>
<g>
	<path fill="#282525" d="M16.21,1.36v3.29h-1.18C14.84,3.96,14.6,3.41,14.31,3c-0.29-0.4-0.63-0.7-1.02-0.87s-0.85-0.26-1.4-0.26
		c-0.82,0-1.54,0.27-2.18,0.81s-1.14,1.36-1.5,2.44c-0.36,1.09-0.55,2.4-0.55,3.94c0,1.55,0.15,2.87,0.45,3.97
		c0.3,1.1,0.74,1.92,1.33,2.48c0.58,0.56,1.31,0.84,2.16,0.84c0.65,0,1.18-0.09,1.59-0.28c0.41-0.19,0.76-0.48,1.04-0.88
		c0.28-0.4,0.55-1,0.8-1.78h1.18v3.4c-0.74,0.19-1.51,0.35-2.28,0.44c-0.78,0.1-1.64,0.15-2.57,0.15c-2.01,0-3.53-0.68-4.56-2.04
		C5.77,14,5.26,11.97,5.26,9.27c0-1.69,0.27-3.18,0.8-4.45c0.53-1.27,1.32-2.26,2.35-2.95c1.04-0.69,2.27-1.04,3.72-1.04
		c0.72,0,1.38,0.04,1.99,0.11C14.72,1.01,15.42,1.15,16.21,1.36z"/>
	<path fill="#282525" d="M26.96,17.21v-0.58c0.4-0.08,0.69-0.17,0.88-0.26s0.34-0.23,0.43-0.4s0.14-0.4,0.14-0.68
		c0-0.27-0.03-0.56-0.1-0.87c-0.06-0.31-0.15-0.66-0.27-1.05l-0.43-1.54h-5.53l-0.4,1.16c-0.21,0.58-0.34,1.03-0.4,1.33
		c-0.06,0.3-0.09,0.57-0.09,0.82c0,0.48,0.12,0.82,0.36,1.04c0.24,0.22,0.61,0.37,1.11,0.44v0.58H17.6v-0.58
		c0.44-0.07,0.83-0.33,1.16-0.77c0.33-0.44,0.65-1.08,0.96-1.9l4.92-13.13h1.88l4.03,13.23c0.19,0.62,0.36,1.09,0.5,1.41
		c0.15,0.32,0.32,0.58,0.53,0.76s0.49,0.31,0.84,0.4v0.58L26.96,17.21L26.96,17.21z M22.4,10.8h4.96l-2.25-7.65L22.4,10.8z"/>
	<path fill="#282525" d="M32.01,1.02h12.84v4.13h-1.16c-0.17-0.68-0.35-1.22-0.52-1.61c-0.17-0.4-0.35-0.69-0.54-0.9
		s-0.4-0.35-0.61-0.44c-0.22-0.09-0.54-0.13-0.98-0.13h-1.51v12.15c0,0.47,0.03,0.84,0.08,1.11c0.05,0.28,0.13,0.5,0.24,0.66
		c0.11,0.16,0.25,0.29,0.43,0.38c0.18,0.09,0.47,0.18,0.85,0.27v0.58h-5.42v-0.58c0.24-0.06,0.45-0.11,0.63-0.18
		c0.18-0.06,0.33-0.14,0.44-0.23c0.11-0.09,0.21-0.21,0.29-0.35c0.08-0.14,0.13-0.34,0.18-0.58c0.04-0.25,0.06-0.6,0.06-1.08V2.06
		h-1.49c-0.37,0-0.68,0.04-0.92,0.1c-0.24,0.06-0.46,0.22-0.67,0.44c-0.21,0.23-0.39,0.54-0.56,0.96s-0.33,0.94-0.48,1.57h-1.18
		L32.01,1.02L32.01,1.02z"/>
	<path fill="#282525" d="M53.15,17.21v-0.58c0.4-0.08,0.69-0.17,0.89-0.26c0.19-0.09,0.34-0.23,0.43-0.4
		c0.09-0.17,0.14-0.4,0.14-0.68c0-0.27-0.03-0.56-0.09-0.87c-0.06-0.31-0.15-0.66-0.27-1.05l-0.44-1.54h-5.53l-0.4,1.16
		c-0.21,0.58-0.34,1.03-0.4,1.33c-0.06,0.3-0.09,0.57-0.09,0.82c0,0.48,0.12,0.82,0.36,1.04c0.24,0.22,0.61,0.37,1.11,0.44v0.58
		h-5.07v-0.58c0.44-0.07,0.83-0.33,1.16-0.77c0.33-0.44,0.65-1.08,0.96-1.9l4.93-13.13h1.88l4.03,13.23
		c0.19,0.62,0.36,1.09,0.5,1.41c0.15,0.32,0.32,0.58,0.53,0.76s0.49,0.31,0.84,0.4v0.58L53.15,17.21L53.15,17.21L53.15,17.21z
		 M48.6,10.8h4.96l-2.25-7.65L48.6,10.8z"/>
	<path fill="#282525" d="M63.89,16.12H67c0.34,0,0.63-0.02,0.85-0.06c0.23-0.04,0.42-0.1,0.59-0.19s0.31-0.2,0.44-0.35
		c0.13-0.15,0.25-0.34,0.37-0.57c0.12-0.24,0.23-0.54,0.34-0.9c0.11-0.36,0.24-0.9,0.4-1.62h1.2l-0.24,4.77H60.28v-0.58
		c0.49-0.13,0.82-0.27,0.99-0.42s0.28-0.37,0.33-0.66c0.05-0.28,0.08-0.72,0.08-1.31V3.98c0-0.55-0.02-0.94-0.06-1.19
		s-0.1-0.44-0.19-0.58c-0.1-0.14-0.22-0.25-0.37-0.34c-0.15-0.09-0.41-0.18-0.77-0.28V1.02h5V1.6c-0.35,0.1-0.59,0.18-0.74,0.26
		c-0.15,0.07-0.27,0.17-0.36,0.3c-0.09,0.13-0.17,0.32-0.21,0.58C63.93,3,63.91,3.42,63.91,3.99L63.89,16.12L63.89,16.12z"/>
	<path fill="#282525" d="M79.47,17.4c-0.95,0-1.81-0.16-2.59-0.47c-0.78-0.31-1.45-0.8-2.01-1.46c-0.56-0.66-0.99-1.51-1.29-2.53
		c-0.31-1.03-0.46-2.26-0.46-3.69c0-1.77,0.27-3.28,0.81-4.54c0.54-1.27,1.31-2.23,2.31-2.89c1-0.66,2.16-0.99,3.48-0.99
		c1.41,0,2.59,0.31,3.56,0.93c0.96,0.62,1.69,1.53,2.17,2.74s0.73,2.68,0.73,4.41c0,1.85-0.28,3.41-0.83,4.69
		c-0.55,1.27-1.34,2.23-2.34,2.86C81.99,17.09,80.82,17.4,79.47,17.4z M75.57,8.92c0,2.43,0.35,4.27,1.06,5.54
		c0.71,1.27,1.74,1.9,3.1,1.9c0.86,0,1.6-0.27,2.19-0.82c0.6-0.55,1.05-1.35,1.35-2.42c0.3-1.06,0.45-2.3,0.45-3.71
		c0-1.73-0.18-3.15-0.53-4.29c-0.35-1.13-0.83-1.96-1.44-2.47c-0.61-0.52-1.32-0.77-2.13-0.77c-0.71,0-1.32,0.17-1.83,0.5
		s-0.93,0.81-1.27,1.42c-0.34,0.61-0.58,1.36-0.74,2.23C75.64,6.88,75.57,7.85,75.57,8.92z"/>
	<path fill="#282525" d="M100.38,17.15l-0.93,0.25l-0.86-0.92c-0.52,0.31-1.05,0.55-1.61,0.7c-0.56,0.15-1.21,0.23-1.94,0.23
		c-2,0-3.51-0.69-4.52-2.06C89.51,13.98,89,11.94,89,9.24c0-1.69,0.27-3.16,0.83-4.44c0.55-1.27,1.35-2.25,2.39-2.94
		c1.04-0.69,2.25-1.03,3.65-1.03c0.74,0,1.44,0.04,2.13,0.13c0.68,0.08,1.44,0.23,2.27,0.43v3.27H99.1
		c-0.21-0.71-0.47-1.27-0.76-1.67c-0.29-0.4-0.64-0.69-1.05-0.85c-0.41-0.17-0.92-0.26-1.55-0.26c-0.86,0-1.62,0.28-2.27,0.83
		c-0.65,0.56-1.15,1.37-1.52,2.45c-0.36,1.08-0.54,2.38-0.54,3.91c0,1.55,0.15,2.88,0.46,3.97c0.31,1.1,0.76,1.93,1.36,2.49
		c0.6,0.56,1.34,0.84,2.22,0.84c0.94,0,1.63-0.2,2.08-0.61c0.45-0.41,0.68-1.03,0.68-1.88v-0.73c0-0.71-0.04-1.23-0.11-1.54
		c-0.07-0.31-0.21-0.56-0.4-0.73c-0.19-0.18-0.5-0.31-0.94-0.43V9.87h4.79v0.58c-0.28,0.1-0.5,0.2-0.64,0.33
		c-0.14,0.12-0.25,0.27-0.33,0.46c-0.08,0.19-0.13,0.41-0.15,0.67c-0.03,0.27-0.04,0.64-0.04,1.13L100.38,17.15L100.38,17.15
		L100.38,17.15z"/>
	<path fill="#282525" d="M107.48,14.24c0,0.53,0.02,0.92,0.06,1.16c0.03,0.25,0.1,0.44,0.18,0.58c0.08,0.14,0.21,0.26,0.37,0.35
		c0.16,0.1,0.42,0.19,0.79,0.28v0.58h-5.01v-0.58c0.49-0.13,0.82-0.27,0.99-0.42c0.17-0.15,0.27-0.37,0.33-0.66
		c0.05-0.28,0.08-0.72,0.08-1.31V3.98c0-0.55-0.02-0.94-0.06-1.19s-0.1-0.44-0.19-0.58c-0.1-0.14-0.21-0.25-0.36-0.33
		c-0.15-0.08-0.41-0.18-0.77-0.28V1.02h5.01V1.6c-0.35,0.09-0.6,0.17-0.76,0.26c-0.15,0.09-0.27,0.2-0.37,0.33
		c-0.09,0.13-0.16,0.32-0.2,0.59c-0.04,0.26-0.06,0.67-0.06,1.21L107.48,14.24L107.48,14.24z"/>
	<path fill="#282525" d="M114,14.46v2.75h-2.4v-2.75H114z"/>
	<path fill="#282525" d="M120.35,10.18v4.03c0,0.57,0.02,0.98,0.06,1.24s0.11,0.45,0.19,0.58c0.09,0.13,0.21,0.24,0.36,0.32
		s0.41,0.18,0.77,0.28v0.58h-5.01v-0.59c0.49-0.13,0.82-0.27,0.98-0.42c0.17-0.15,0.27-0.37,0.32-0.66
		c0.05-0.28,0.08-0.72,0.08-1.31V3.98c0-0.55-0.02-0.94-0.06-1.19s-0.1-0.44-0.19-0.58c-0.09-0.14-0.21-0.25-0.36-0.33
		c-0.15-0.08-0.41-0.18-0.77-0.28V1.02h5.87c1.85,0,3.23,0.34,4.15,1.01c0.92,0.67,1.38,1.72,1.38,3.13c0,1.08-0.3,2.01-0.9,2.77
		c-0.6,0.76-1.49,1.35-2.69,1.78V9.8c0.48,0.2,0.9,0.48,1.24,0.85s0.73,0.94,1.15,1.71l1.07,1.94c0.31,0.57,0.57,1.01,0.79,1.31
		c0.22,0.3,0.44,0.53,0.68,0.69c0.23,0.16,0.53,0.27,0.91,0.33v0.58h-3.29c-0.3-0.42-0.59-0.87-0.85-1.35
		c-0.27-0.48-0.53-0.97-0.79-1.47l-1.04-1.98c-0.31-0.6-0.57-1.04-0.77-1.33c-0.2-0.28-0.39-0.48-0.56-0.6
		c-0.17-0.12-0.35-0.19-0.54-0.24c-0.19-0.04-0.48-0.06-0.87-0.06H120.35L120.35,10.18L120.35,10.18L120.35,10.18z M120.35,2.11
		v7.05h1.34c0.69,0,1.25-0.05,1.67-0.15c0.43-0.1,0.82-0.29,1.19-0.56c0.37-0.27,0.65-0.66,0.87-1.16c0.22-0.49,0.33-1.1,0.33-1.82
		c0-0.75-0.13-1.38-0.39-1.88s-0.65-0.88-1.17-1.14c-0.52-0.26-1.23-0.39-2.11-0.39C121.37,2.06,120.79,2.07,120.35,2.11z"/>
	<path fill="#282525" d="M143.19,11.61c0,0.86-0.08,1.6-0.23,2.23c-0.15,0.6-0.38,1.12-0.68,1.58c-0.27,0.41-0.62,0.76-1.03,1.05
		c-0.41,0.29-0.91,0.52-1.49,0.68c-0.58,0.16-1.27,0.25-2.06,0.25c-0.96,0-1.77-0.1-2.46-0.32c-0.68-0.21-1.25-0.56-1.69-1.05
		c-0.45-0.48-0.77-1.06-0.97-1.72c-0.2-0.66-0.3-1.5-0.3-2.52V3.98c0-0.62-0.02-1.03-0.06-1.25c-0.04-0.22-0.1-0.39-0.17-0.52
		s-0.19-0.23-0.32-0.33c-0.15-0.09-0.41-0.19-0.8-0.29V1.01h4.98v0.58c-0.44,0.11-0.75,0.23-0.93,0.37
		c-0.17,0.14-0.29,0.35-0.35,0.62c-0.06,0.28-0.1,0.74-0.1,1.39v8.4c0,0.77,0.08,1.41,0.24,1.94c0.16,0.52,0.39,0.93,0.68,1.22
		c0.29,0.29,0.64,0.5,1.04,0.63c0.4,0.13,0.9,0.19,1.51,0.19c0.56,0,1.04-0.1,1.46-0.29c0.42-0.19,0.77-0.49,1.05-0.88
		c0.28-0.4,0.47-0.88,0.57-1.46c0.1-0.58,0.15-1.35,0.15-2.33V3.97c0-0.69-0.03-1.16-0.1-1.41s-0.18-0.45-0.33-0.58
		s-0.48-0.26-0.96-0.39V1.01h4.73v0.58c-0.46,0.12-0.77,0.25-0.94,0.39s-0.29,0.35-0.35,0.62c-0.06,0.27-0.1,0.73-0.1,1.38
		L143.19,11.61L143.19,11.61z"/>
</g>
</svg>
