<?xml version="1.0" encoding="utf-8"?>
<!-- Generator: Adobe Illustrator 13.0.0, SVG Export Plug-In . SVG Version: 6.00 Build 14948)  -->
<!DOCTYPE svg PUBLIC "-//W3C//DTD SVG 1.1//EN" "http://www.w3.org/Graphics/SVG/1.1/DTD/svg11.dtd" [
	<!ENTITY ns_extend "http://ns.adobe.com/Extensibility/1.0/">
	<!ENTITY ns_ai "http://ns.adobe.com/AdobeIllustrator/10.0/">
	<!ENTITY ns_graphs "http://ns.adobe.com/Graphs/1.0/">
	<!ENTITY ns_vars "http://ns.adobe.com/Variables/1.0/">
	<!ENTITY ns_imrep "http://ns.adobe.com/ImageReplacement/1.0/">
	<!ENTITY ns_sfw "http://ns.adobe.com/SaveForWeb/1.0/">
	<!ENTITY ns_custom "http://ns.adobe.com/GenericCustomNamespace/1.0/">
	<!ENTITY ns_adobe_xpath "http://ns.adobe.com/XPath/1.0/">
]>
<svg version="1.1" id="Ebene_1" xmlns:x="&ns_extend;" xmlns:i="&ns_ai;" xmlns:graph="&ns_graphs;"
	 xmlns="http://www.w3.org/2000/svg" xmlns:xlink="http://www.w3.org/1999/xlink" x="0px" y="0px" width="148.67px"
	 height="28.17px" viewBox="2.83 -5 148.67 28.17" enable-background="new 2.83 -5 148.67 28.17" xml:space="preserve">
<metadata>
	<sfw  xmlns="&ns_sfw;">
		<slices></slices>
		<sliceSourceBounds  y="2.49" x="-8120" width="16383" height="22.79" bottomLeftOrigin="true"></sliceSourceBounds>
	</sfw>
</metadata>
<g>
	<path d="M6.84,20.31v-1.04h1.97v2.78h0.34v1.23H8.68v-0.86h-2.1v0.86H6.1v-1.23h0.31C6.73,21.45,6.84,21.1,6.84,20.31z M8.29,19.65
		H7.33v0.9c0,0.65-0.11,0.97-0.39,1.5H8.3L8.29,19.65L8.29,19.65z"/>
	<path d="M12.2,20.84c0,1.29-0.5,1.66-1.29,1.66c-0.78,0-1.29-0.38-1.29-1.67c0-1.05,0.4-1.65,1.29-1.65
		C11.8,19.19,12.2,19.78,12.2,20.84z M10.16,20.88c0,0.74,0.16,1.24,0.76,1.24c0.61,0,0.76-0.5,0.76-1.24
		c0-0.95-0.22-1.31-0.76-1.31C10.37,19.56,10.16,19.92,10.16,20.88z"/>
	<path d="M13.41,20.88c0,0.52,0.03,1.24,0.69,1.24c0.55,0,0.61-0.42,0.63-0.81h0.49c0,0.59-0.28,1.18-1.09,1.18
		c-1.1,0-1.25-0.81-1.25-1.62c0-0.83,0.22-1.7,1.25-1.7c0.72,0,1.09,0.48,1.09,1.07h-0.49c0-0.34-0.13-0.69-0.61-0.69
		C13.5,19.56,13.41,20.24,13.41,20.88z"/>
	<path d="M16.51,22.42v-2.78h-0.94v-0.38h2.39v0.38h-0.94v2.78H16.51z"/>
	<path d="M18.47,20.12c0-0.65,0.36-0.94,1.04-0.94c0.72,0,1,0.38,1,0.81v1.86c0,0.15,0.06,0.25,0.2,0.25c0.03,0,0.09-0.01,0.11-0.01
		v0.33c-0.03,0.02-0.12,0.03-0.21,0.03c-0.31,0-0.47-0.03-0.55-0.46h-0.01c-0.12,0.28-0.45,0.51-0.8,0.51
		c-0.63,0-0.92-0.3-0.92-0.87c0-0.56,0.27-0.76,0.9-0.97c0.24-0.08,0.59-0.21,0.64-0.24c0.12-0.05,0.13-0.22,0.13-0.38
		c0-0.36-0.13-0.49-0.55-0.49c-0.38,0-0.53,0.19-0.53,0.55L18.47,20.12L18.47,20.12z M18.86,21.62c0,0.28,0.13,0.48,0.48,0.48
		c0.53,0,0.66-0.32,0.66-0.64V20.7C19.46,20.98,18.86,21.02,18.86,21.62z"/>
	<path d="M21.46,19.27h1.17c0.54,0,0.97,0.29,0.97,0.75c0,0.41-0.24,0.67-0.56,0.75v0.01c0.4,0.08,0.65,0.35,0.65,0.79
		c0,0.54-0.42,0.86-0.89,0.86h-1.34V19.27z M21.97,20.58h0.54c0.39,0,0.57-0.13,0.57-0.48c0-0.31-0.18-0.45-0.55-0.45h-0.56V20.58z
		 M21.97,22.05h0.6c0.47,0,0.59-0.18,0.59-0.55c0-0.37-0.22-0.54-0.6-0.54h-0.59V22.05z"/>
	<path d="M25.01,20.74l1.25-1.47h0.61l-1.11,1.23l1.15,1.93h-0.6l-0.9-1.57l-0.39,0.45v1.12h-0.51v-3.15h0.51v1.47H25.01z"/>
	<path d="M27.4,20.12c0-0.65,0.36-0.94,1.04-0.94c0.72,0,1,0.38,1,0.81v1.86c0,0.15,0.06,0.25,0.2,0.25c0.03,0,0.09-0.01,0.11-0.01
		v0.33c-0.03,0.02-0.12,0.03-0.21,0.03c-0.31,0-0.47-0.03-0.55-0.46h-0.01c-0.12,0.28-0.45,0.51-0.8,0.51
		c-0.63,0-0.92-0.3-0.92-0.87c0-0.56,0.27-0.76,0.9-0.97c0.24-0.08,0.59-0.21,0.64-0.24c0.13-0.05,0.13-0.21,0.13-0.37
		c0-0.36-0.13-0.49-0.55-0.49c-0.38,0-0.53,0.19-0.53,0.55H27.4z M27.79,21.62c0,0.28,0.13,0.48,0.48,0.48
		c0.53,0,0.66-0.32,0.66-0.64V20.7C28.4,20.98,27.79,21.02,27.79,21.62z"/>
	<path d="M32.58,22.42v-2.78h-0.94v-0.38h2.39v0.38h-0.94v2.78H32.58z"/>
	<path d="M37.04,20.84c0,1.29-0.5,1.66-1.29,1.66c-0.78,0-1.29-0.38-1.29-1.67c0-1.05,0.4-1.65,1.29-1.65S37.04,19.78,37.04,20.84z
		 M35,20.88c0,0.74,0.16,1.24,0.76,1.24c0.61,0,0.76-0.5,0.76-1.24c0-0.95-0.22-1.31-0.76-1.31C35.21,19.56,35,19.92,35,20.88z"/>
	<path d="M37.85,19.27h1.17c0.54,0,0.97,0.29,0.97,0.75c0,0.41-0.24,0.67-0.56,0.75v0.01c0.4,0.08,0.65,0.35,0.65,0.79
		c0,0.54-0.42,0.86-0.89,0.86h-1.34V19.27z M38.36,20.58h0.54c0.39,0,0.57-0.13,0.57-0.48c0-0.31-0.18-0.45-0.55-0.45h-0.56V20.58z
		 M38.36,22.05h0.6c0.47,0,0.59-0.18,0.59-0.55c0-0.37-0.22-0.54-0.6-0.54h-0.59V22.05z"/>
	<path d="M40.83,20.12c0-0.65,0.36-0.94,1.04-0.94c0.72,0,1,0.38,1,0.81v1.86c0,0.15,0.06,0.25,0.2,0.25c0.03,0,0.09-0.01,0.11-0.01
		v0.33c-0.03,0.02-0.12,0.03-0.21,0.03c-0.31,0-0.47-0.03-0.55-0.46h-0.01c-0.12,0.28-0.45,0.51-0.8,0.51
		c-0.63,0-0.92-0.3-0.92-0.87c0-0.56,0.27-0.76,0.9-0.97c0.24-0.08,0.59-0.21,0.64-0.24c0.13-0.05,0.13-0.21,0.13-0.37
		c0-0.36-0.13-0.49-0.55-0.49c-0.38,0-0.53,0.19-0.53,0.55H40.83z M41.22,21.62c0,0.28,0.13,0.48,0.48,0.48
		c0.53,0,0.66-0.32,0.66-0.64V20.7C41.83,20.98,41.22,21.02,41.22,21.62z"/>
	<path d="M44.33,19.62L44.33,19.62c0.17-0.3,0.49-0.44,0.74-0.44c0.91,0,1.18,0.73,1.18,1.6c0,0.95-0.24,1.72-1.15,1.72
		c-0.36,0-0.58-0.16-0.78-0.41v1.43h-0.51v-4.25h0.51v0.36H44.33z M44.33,20.84c0,0.6,0.04,1.29,0.69,1.29c0.53,0,0.7-0.48,0.7-1.33
		c0-0.41-0.05-1.23-0.71-1.23C44.39,19.56,44.33,20.29,44.33,20.84z"/>
	<path d="M49.51,20.84c0,1.29-0.5,1.66-1.29,1.66c-0.78,0-1.29-0.38-1.29-1.67c0-1.05,0.4-1.65,1.29-1.65
		C49.11,19.19,49.51,19.78,49.51,20.84z M47.46,20.88c0,0.74,0.16,1.24,0.76,1.24c0.61,0,0.76-0.5,0.76-1.24
		c0-0.95-0.22-1.31-0.76-1.31C47.67,19.56,47.46,19.92,47.46,20.88z"/>
	<path d="M50.32,19.27h1.17c0.54,0,0.97,0.29,0.97,0.75c0,0.41-0.24,0.67-0.56,0.75v0.01c0.4,0.08,0.65,0.35,0.65,0.79
		c0,0.54-0.42,0.86-0.89,0.86h-1.34V19.27z M50.83,20.58h0.54c0.39,0,0.57-0.13,0.57-0.48c0-0.31-0.18-0.45-0.55-0.45h-0.56V20.58z
		 M50.83,22.05h0.6c0.47,0,0.59-0.18,0.59-0.55c0-0.37-0.22-0.54-0.6-0.54h-0.59V22.05z"/>
	<path d="M55.49,19.27v2.4c0,0.11-0.03,0.26-0.05,0.38h0.01c0.03-0.15,0.07-0.31,0.11-0.38l1.19-2.4h0.62v3.15h-0.51v-2.39
		c0-0.09,0.03-0.29,0.05-0.39H56.9c-0.02,0.1-0.08,0.34-0.11,0.39l-1.19,2.39h-0.62v-3.15H55.49z"/>
	<path d="M58.09,20.11c0.03-0.5,0.45-0.93,1.1-0.93c0.61,0,1.07,0.34,1.07,0.79c0,0.43-0.27,0.68-0.64,0.77v0.01
		c0.34,0.06,0.73,0.3,0.73,0.81c0,0.55-0.44,0.94-1.14,0.94c-0.75,0-1.11-0.33-1.17-1.08h0.47c0.05,0.53,0.26,0.7,0.67,0.7
		c0.39,0,0.65-0.16,0.65-0.59c0-0.33-0.22-0.59-0.6-0.59h-0.28v-0.38h0.28c0.29,0,0.53-0.19,0.53-0.52c0-0.24-0.16-0.49-0.57-0.49
		s-0.59,0.25-0.61,0.55H58.09L58.09,20.11z"/>
	<path d="M63.3,19.27v2.4c0,0.11-0.03,0.26-0.05,0.38h0.01c0.03-0.15,0.07-0.31,0.11-0.38l1.19-2.4h0.62v3.15h-0.51v-2.39
		c0-0.09,0.03-0.29,0.05-0.39h-0.01c-0.02,0.1-0.08,0.34-0.11,0.39l-1.19,2.39h-0.62v-3.15H63.3z"/>
	<path d="M66.63,20.58h1.27v-1.3h0.51v3.15H67.9v-1.47h-1.27v1.47h-0.51v-3.15h0.51V20.58z"/>
	<path d="M69.93,22.42v-2.78h-0.94v-0.38h2.39v0.38h-0.94v2.78H69.93z"/>
	<path d="M74.1,21.37c0,0.62-0.33,1.13-1.09,1.13c-0.76,0-1.19-0.39-1.19-1.66c0-0.79,0.2-1.65,1.15-1.65
		c1.02,0,1.13,0.94,1.13,1.77h-1.75c0,0.72,0.05,1.17,0.65,1.17c0.49,0,0.59-0.39,0.59-0.75H74.1z M73.56,20.58
		c0-0.48-0.07-1.01-0.59-1.01c-0.57,0-0.63,0.59-0.63,1.01H73.56z"/>
	<path d="M75.42,19.62L75.42,19.62c0.17-0.3,0.49-0.44,0.74-0.44c0.91,0,1.18,0.73,1.18,1.6c0,0.95-0.24,1.72-1.15,1.72
		c-0.36,0-0.58-0.16-0.78-0.41v1.43H74.9v-4.25h0.51L75.42,19.62L75.42,19.62z M75.42,20.84c0,0.6,0.04,1.29,0.69,1.29
		c0.53,0,0.7-0.48,0.7-1.33c0-0.41-0.05-1.23-0.71-1.23C75.48,19.56,75.42,20.29,75.42,20.84z"/>
	<path d="M78.67,20.58h1.28v-1.3h0.51v3.15h-0.51v-1.47h-1.28v1.47h-0.51v-3.15h0.51V20.58z"/>
	<path d="M83.55,21.37c0,0.62-0.33,1.13-1.09,1.13s-1.19-0.39-1.19-1.66c0-0.79,0.2-1.65,1.15-1.65c1.02,0,1.13,0.94,1.13,1.77H81.8
		c0,0.72,0.05,1.17,0.65,1.17c0.49,0,0.59-0.39,0.59-0.75H83.55z M83.01,20.58c0-0.48-0.07-1.01-0.59-1.01
		c-0.57,0-0.63,0.59-0.63,1.01H83.01z"/>
	<path d="M84.92,22.42v-2.78h-0.94v-0.38h2.39v0.38h-0.94v2.78H84.92z"/>
	<path d="M88.44,20.78v0.4h-1.69v-0.4H88.44z"/>
	<path d="M89.99,19.27l0.65,2.07c0.05,0.15,0.09,0.43,0.13,0.64h0.01c0.04-0.21,0.07-0.46,0.12-0.64l0.65-2.07h0.8v3.15h-0.49v-2.78
		h-0.01l-0.91,2.78H90.6l-0.9-2.78h-0.01v2.78H89.2v-3.15H89.99z"/>
	<path d="M93.24,20.12c0-0.65,0.36-0.94,1.04-0.94c0.72,0,1,0.38,1,0.81v1.86c0,0.15,0.06,0.25,0.2,0.25c0.03,0,0.09-0.01,0.12-0.01
		v0.33c-0.03,0.02-0.12,0.03-0.21,0.03c-0.31,0-0.47-0.03-0.55-0.46h-0.01c-0.12,0.28-0.45,0.51-0.8,0.51
		c-0.63,0-0.92-0.3-0.92-0.87c0-0.56,0.27-0.76,0.9-0.97c0.24-0.08,0.59-0.21,0.64-0.24c0.13-0.05,0.13-0.21,0.13-0.37
		c0-0.36-0.13-0.49-0.55-0.49c-0.38,0-0.53,0.19-0.53,0.55H93.24z M93.63,21.62c0,0.28,0.13,0.48,0.48,0.48
		c0.53,0,0.66-0.32,0.66-0.64V20.7C94.24,20.98,93.63,21.02,93.63,21.62z"/>
	<path d="M98.13,19.27v0.38h-1.39v2.78h-0.51v-3.15H98.13z"/>
	<path d="M98.64,20.12c0-0.65,0.36-0.94,1.04-0.94c0.72,0,1,0.38,1,0.81v1.86c0,0.15,0.06,0.25,0.2,0.25c0.03,0,0.09-0.01,0.12-0.01
		v0.33c-0.03,0.02-0.12,0.03-0.21,0.03c-0.31,0-0.47-0.03-0.55-0.46h-0.01c-0.12,0.28-0.45,0.51-0.8,0.51
		c-0.63,0-0.92-0.3-0.92-0.87c0-0.56,0.27-0.76,0.9-0.97c0.24-0.08,0.59-0.21,0.64-0.24c0.13-0.05,0.13-0.21,0.13-0.37
		c0-0.36-0.13-0.49-0.55-0.49c-0.38,0-0.53,0.19-0.53,0.55H98.64z M99.03,21.62c0,0.28,0.13,0.48,0.48,0.48
		c0.53,0,0.66-0.32,0.66-0.64V20.7C99.64,20.98,99.03,21.02,99.03,21.62z"/>
	<path d="M101.42,20.11c0.03-0.5,0.45-0.93,1.1-0.93c0.61,0,1.07,0.34,1.07,0.79c0,0.43-0.27,0.68-0.64,0.77v0.01
		c0.34,0.06,0.74,0.3,0.74,0.81c0,0.55-0.44,0.94-1.14,0.94c-0.75,0-1.11-0.33-1.17-1.08h0.47c0.05,0.53,0.26,0.7,0.67,0.7
		c0.39,0,0.65-0.16,0.65-0.59c0-0.33-0.22-0.59-0.6-0.59h-0.28v-0.38h0.28c0.29,0,0.53-0.19,0.53-0.52c0-0.24-0.16-0.49-0.57-0.49
		s-0.59,0.25-0.61,0.55H101.42L101.42,20.11z"/>
	<path d="M105,19.27v2.4c0,0.11-0.03,0.26-0.05,0.38h0.01c0.03-0.15,0.07-0.31,0.11-0.38l1.19-2.4h0.62v3.15h-0.51v-2.39
		c0-0.09,0.03-0.29,0.05-0.39h-0.01c-0.02,0.1-0.08,0.34-0.11,0.39l-1.19,2.39h-0.62v-3.15H105z"/>
	<path d="M108.33,20.58h1.28v-1.3h0.51v3.15h-0.51v-1.47h-1.28v1.47h-0.51v-3.15h0.51V20.58z"/>
	<path d="M111.01,20.12c0-0.65,0.36-0.94,1.04-0.94c0.72,0,1,0.38,1,0.81v1.86c0,0.15,0.06,0.25,0.2,0.25
		c0.03,0,0.09-0.01,0.12-0.01v0.33c-0.03,0.02-0.12,0.03-0.21,0.03c-0.31,0-0.47-0.03-0.55-0.46h-0.01
		c-0.12,0.28-0.45,0.51-0.8,0.51c-0.63,0-0.92-0.3-0.92-0.87c0-0.56,0.27-0.76,0.9-0.97c0.24-0.08,0.59-0.21,0.64-0.24
		c0.13-0.05,0.13-0.21,0.13-0.37c0-0.36-0.13-0.49-0.55-0.49c-0.38,0-0.53,0.19-0.53,0.55H111.01z M111.4,21.62
		c0,0.28,0.13,0.48,0.48,0.48c0.53,0,0.66-0.32,0.66-0.64V20.7C112,20.98,111.4,21.02,111.4,21.62z"/>
	<path d="M116.01,20.88c0,0.52,0.03,1.24,0.69,1.24c0.55,0,0.61-0.42,0.63-0.81h0.49c0,0.59-0.28,1.18-1.09,1.18
		c-1.1,0-1.25-0.81-1.25-1.62c0-0.83,0.22-1.7,1.25-1.7c0.72,0,1.09,0.48,1.09,1.07h-0.49c0-0.34-0.13-0.69-0.61-0.69
		C116.11,19.56,116.01,20.24,116.01,20.88z"/>
	<path d="M120.99,20.84c0,1.29-0.5,1.66-1.29,1.66c-0.78,0-1.29-0.38-1.29-1.67c0-1.05,0.4-1.65,1.29-1.65
		C120.59,19.19,120.99,19.78,120.99,20.84z M118.94,20.88c0,0.74,0.16,1.24,0.75,1.24c0.61,0,0.76-0.5,0.76-1.24
		c0-0.95-0.22-1.31-0.76-1.31C119.15,19.56,118.94,19.92,118.94,20.88z"/>
	<path d="M122.31,19.61L122.31,19.61c0.22-0.26,0.51-0.43,0.9-0.43c0.54,0,0.89,0.25,0.89,0.81v2.43h-0.51v-2.31
		c0-0.32-0.12-0.55-0.54-0.55c-0.44,0-0.74,0.3-0.74,0.68v2.18h-0.51v-3.15h0.51V19.61z"/>
	<path d="M125.56,22.42h-0.51v-4.25h0.51V22.42z"/>
	<path d="M128.65,21.37c0,0.62-0.33,1.13-1.09,1.13s-1.19-0.39-1.19-1.66c0-0.79,0.2-1.65,1.15-1.65c1.02,0,1.13,0.94,1.13,1.77
		h-1.75c0,0.72,0.05,1.17,0.65,1.17c0.49,0,0.59-0.39,0.59-0.75H128.65z M128.12,20.58c0-0.48-0.07-1.01-0.59-1.01
		c-0.57,0-0.63,0.59-0.63,1.01H128.12z"/>
	<path d="M129.62,19.27l0.85,2.51h0.01l0.8-2.51h0.53l-1.12,3.17c-0.2,0.58-0.38,1.06-1.11,1.06c-0.12,0-0.24-0.02-0.36-0.05v-0.39
		c0.11,0.04,0.26,0.07,0.38,0.07c0.36,0,0.51-0.28,0.63-0.65l-1.15-3.2H129.62z"/>
	<path d="M133.83,20.11c0-0.37-0.16-0.55-0.57-0.55c-0.36,0-0.51,0.2-0.51,0.48c0,0.34,0.26,0.46,0.65,0.57
		c0.53,0.17,1.07,0.37,1.07,0.95c0,0.6-0.43,0.94-1.19,0.94c-0.83,0-1.12-0.32-1.12-1.01h0.49c0,0.4,0.14,0.62,0.61,0.62
		c0.42,0,0.69-0.15,0.69-0.53c0-0.4-0.45-0.48-0.82-0.61c-0.56-0.21-0.88-0.41-0.88-0.92c0-0.54,0.4-0.88,1.02-0.88
		c0.68,0,1.09,0.32,1.09,0.93h-0.53V20.11z"/>
	<path d="M135.83,21.86v0.57h-0.59v-0.57H135.83z"/>
	<path d="M139.12,18.17v4.25h-0.51v-0.39h-0.01c-0.22,0.38-0.43,0.47-0.86,0.47c-0.89,0-1.05-0.82-1.05-1.73
		c0-0.91,0.35-1.58,1.08-1.58c0.37,0,0.59,0.14,0.83,0.41h0.01v-1.43H139.12z M137.22,20.84c0,0.6,0.04,1.29,0.69,1.29
		c0.53,0,0.7-0.48,0.7-1.33c0-0.41-0.05-1.23-0.71-1.23C137.27,19.56,137.22,20.29,137.22,20.84z"/>
	<path d="M142.21,21.37c0,0.62-0.33,1.13-1.09,1.13s-1.19-0.39-1.19-1.66c0-0.79,0.2-1.65,1.15-1.65c1.02,0,1.13,0.94,1.13,1.77
		h-1.75c0,0.72,0.05,1.17,0.65,1.17c0.49,0,0.59-0.39,0.59-0.75H142.21z M141.68,20.58c0-0.48-0.07-1.01-0.59-1.01
		c-0.57,0-0.63,0.59-0.63,1.01H141.68z"/>
</g>
<g>
	<path fill="#282525" d="M16.21,1.36v3.29h-1.18C14.84,3.96,14.6,3.41,14.31,3c-0.29-0.4-0.63-0.7-1.02-0.87s-0.85-0.26-1.4-0.26
		c-0.82,0-1.54,0.27-2.18,0.81s-1.14,1.36-1.5,2.44c-0.36,1.09-0.55,2.4-0.55,3.94c0,1.55,0.15,2.87,0.45,3.97
		c0.3,1.1,0.74,1.92,1.33,2.48c0.58,0.56,1.31,0.84,2.16,0.84c0.65,0,1.18-0.09,1.59-0.28c0.41-0.19,0.76-0.48,1.04-0.88
		c0.28-0.4,0.55-1,0.8-1.78h1.18v3.4c-0.74,0.19-1.51,0.35-2.28,0.44c-0.78,0.1-1.64,0.15-2.57,0.15c-2.01,0-3.53-0.68-4.56-2.04
		C5.77,14,5.26,11.97,5.26,9.27c0-1.69,0.27-3.18,0.8-4.45c0.53-1.27,1.32-2.26,2.35-2.95c1.04-0.69,2.27-1.04,3.72-1.04
		c0.72,0,1.38,0.04,1.99,0.11C14.72,1.01,15.42,1.15,16.21,1.36z"/>
	<path fill="#282525" d="M26.96,17.21v-0.58c0.4-0.08,0.69-0.17,0.88-0.26s0.34-0.23,0.43-0.4s0.14-0.4,0.14-0.68
		c0-0.27-0.03-0.56-0.1-0.87c-0.06-0.31-0.15-0.66-0.27-1.05l-0.43-1.54h-5.53l-0.4,1.16c-0.21,0.58-0.34,1.03-0.4,1.33
		c-0.06,0.3-0.09,0.57-0.09,0.82c0,0.48,0.12,0.82,0.36,1.04c0.24,0.22,0.61,0.37,1.11,0.44v0.58H17.6v-0.58
		c0.44-0.07,0.83-0.33,1.16-0.77c0.33-0.44,0.65-1.08,0.96-1.9l4.92-13.13h1.88l4.03,13.23c0.19,0.62,0.36,1.09,0.5,1.41
		c0.15,0.32,0.32,0.58,0.53,0.76s0.49,0.31,0.84,0.4v0.58L26.96,17.21L26.96,17.21z M22.4,10.8h4.96l-2.25-7.65L22.4,10.8z"/>
	<path fill="#282525" d="M32.01,1.02h12.84v4.13h-1.16c-0.17-0.68-0.35-1.22-0.52-1.61c-0.17-0.4-0.35-0.69-0.54-0.9
		s-0.4-0.35-0.61-0.44c-0.22-0.09-0.54-0.13-0.98-0.13h-1.51v12.15c0,0.47,0.03,0.84,0.08,1.11c0.05,0.28,0.13,0.5,0.24,0.66
		c0.11,0.16,0.25,0.29,0.43,0.38c0.18,0.09,0.47,0.18,0.85,0.27v0.58h-5.42v-0.58c0.24-0.06,0.45-0.11,0.63-0.18
		c0.18-0.06,0.33-0.14,0.44-0.23c0.11-0.09,0.21-0.21,0.29-0.35c0.08-0.14,0.13-0.34,0.18-0.58c0.04-0.25,0.06-0.6,0.06-1.08V2.06
		h-1.49c-0.37,0-0.68,0.04-0.92,0.1c-0.24,0.06-0.46,0.22-0.67,0.44c-0.21,0.23-0.39,0.54-0.56,0.96s-0.33,0.94-0.48,1.57h-1.18
		L32.01,1.02L32.01,1.02z"/>
	<path fill="#282525" d="M53.15,17.21v-0.58c0.4-0.08,0.69-0.17,0.89-0.26c0.19-0.09,0.34-0.23,0.43-0.4
		c0.09-0.17,0.14-0.4,0.14-0.68c0-0.27-0.03-0.56-0.09-0.87c-0.06-0.31-0.15-0.66-0.27-1.05l-0.44-1.54h-5.53l-0.4,1.16
		c-0.21,0.58-0.34,1.03-0.4,1.33c-0.06,0.3-0.09,0.57-0.09,0.82c0,0.48,0.12,0.82,0.36,1.04c0.24,0.22,0.61,0.37,1.11,0.44v0.58
		h-5.07v-0.58c0.44-0.07,0.83-0.33,1.16-0.77c0.33-0.44,0.65-1.08,0.96-1.9l4.93-13.13h1.88l4.03,13.23
		c0.19,0.62,0.36,1.09,0.5,1.41c0.15,0.32,0.32,0.58,0.53,0.76s0.49,0.31,0.84,0.4v0.58L53.15,17.21L53.15,17.21L53.15,17.21z
		 M48.6,10.8h4.96l-2.25-7.65L48.6,10.8z"/>
	<path fill="#282525" d="M63.89,16.12H67c0.34,0,0.63-0.02,0.85-0.06c0.23-0.04,0.42-0.1,0.59-0.19s0.31-0.2,0.44-0.35
		c0.13-0.15,0.25-0.34,0.37-0.57c0.12-0.24,0.23-0.54,0.34-0.9c0.11-0.36,0.24-0.9,0.4-1.62h1.2l-0.24,4.77H60.28v-0.58
		c0.49-0.13,0.82-0.27,0.99-0.42s0.28-0.37,0.33-0.66c0.05-0.28,0.08-0.72,0.08-1.31V3.98c0-0.55-0.02-0.94-0.06-1.19
		s-0.1-0.44-0.19-0.58c-0.1-0.14-0.22-0.25-0.37-0.34c-0.15-0.09-0.41-0.18-0.77-0.28V1.02h5V1.6c-0.35,0.1-0.59,0.18-0.74,0.26
		c-0.15,0.07-0.27,0.17-0.36,0.3c-0.09,0.13-0.17,0.32-0.21,0.58C63.93,3,63.91,3.42,63.91,3.99L63.89,16.12L63.89,16.12z"/>
	<path fill="#282525" d="M79.47,17.4c-0.95,0-1.81-0.16-2.59-0.47c-0.78-0.31-1.45-0.8-2.01-1.46c-0.56-0.66-0.99-1.51-1.29-2.53
		c-0.31-1.03-0.46-2.26-0.46-3.69c0-1.77,0.27-3.28,0.81-4.54c0.54-1.27,1.31-2.23,2.31-2.89c1-0.66,2.16-0.99,3.48-0.99
		c1.41,0,2.59,0.31,3.56,0.93c0.96,0.62,1.69,1.53,2.17,2.74s0.73,2.68,0.73,4.41c0,1.85-0.28,3.41-0.83,4.69
		c-0.55,1.27-1.34,2.23-2.34,2.86C81.99,17.09,80.82,17.4,79.47,17.4z M75.57,8.92c0,2.43,0.35,4.27,1.06,5.54
		c0.71,1.27,1.74,1.9,3.1,1.9c0.86,0,1.6-0.27,2.19-0.82c0.6-0.55,1.05-1.35,1.35-2.42c0.3-1.06,0.45-2.3,0.45-3.71
		c0-1.73-0.18-3.15-0.53-4.29c-0.35-1.13-0.83-1.96-1.44-2.47c-0.61-0.52-1.32-0.77-2.13-0.77c-0.71,0-1.32,0.17-1.83,0.5
		s-0.93,0.81-1.27,1.42c-0.34,0.61-0.58,1.36-0.74,2.23C75.64,6.88,75.57,7.85,75.57,8.92z"/>
	<path fill="#282525" d="M100.38,17.15l-0.93,0.25l-0.86-0.92c-0.52,0.31-1.05,0.55-1.61,0.7c-0.56,0.15-1.21,0.23-1.94,0.23
		c-2,0-3.51-0.69-4.52-2.06C89.51,13.98,89,11.94,89,9.24c0-1.69,0.27-3.16,0.83-4.44c0.55-1.27,1.35-2.25,2.39-2.94
		c1.04-0.69,2.25-1.03,3.65-1.03c0.74,0,1.44,0.04,2.13,0.13c0.68,0.08,1.44,0.23,2.27,0.43v3.27H99.1
		c-0.21-0.71-0.47-1.27-0.76-1.67c-0.29-0.4-0.64-0.69-1.05-0.85c-0.41-0.17-0.92-0.26-1.55-0.26c-0.86,0-1.62,0.28-2.27,0.83
		c-0.65,0.56-1.15,1.37-1.52,2.45c-0.36,1.08-0.54,2.38-0.54,3.91c0,1.55,0.15,2.88,0.46,3.97c0.31,1.1,0.76,1.93,1.36,2.49
		c0.6,0.56,1.34,0.84,2.22,0.84c0.94,0,1.63-0.2,2.08-0.61c0.45-0.41,0.68-1.03,0.68-1.88v-0.73c0-0.71-0.04-1.23-0.11-1.54
		c-0.07-0.31-0.21-0.56-0.4-0.73c-0.19-0.18-0.5-0.31-0.94-0.43V9.87h4.79v0.58c-0.28,0.1-0.5,0.2-0.64,0.33
		c-0.14,0.12-0.25,0.27-0.33,0.46c-0.08,0.19-0.13,0.41-0.15,0.67c-0.03,0.27-0.04,0.64-0.04,1.13L100.38,17.15L100.38,17.15
		L100.38,17.15z"/>
	<path fill="#282525" d="M107.48,14.24c0,0.53,0.02,0.92,0.06,1.16c0.03,0.25,0.1,0.44,0.18,0.58c0.08,0.14,0.21,0.26,0.37,0.35
		c0.16,0.1,0.42,0.19,0.79,0.28v0.58h-5.01v-0.58c0.49-0.13,0.82-0.27,0.99-0.42c0.17-0.15,0.27-0.37,0.33-0.66
		c0.05-0.28,0.08-0.72,0.08-1.31V3.98c0-0.55-0.02-0.94-0.06-1.19s-0.1-0.44-0.19-0.58c-0.1-0.14-0.21-0.25-0.36-0.33
		c-0.15-0.08-0.41-0.18-0.77-0.28V1.02h5.01V1.6c-0.35,0.09-0.6,0.17-0.76,0.26c-0.15,0.09-0.27,0.2-0.37,0.33
		c-0.09,0.13-0.16,0.32-0.2,0.59c-0.04,0.26-0.06,0.67-0.06,1.21L107.48,14.24L107.48,14.24z"/>
	<path fill="#282525" d="M114,14.46v2.75h-2.4v-2.75H114z"/>
	<path fill="#282525" d="M120.35,10.18v4.03c0,0.57,0.02,0.98,0.06,1.24s0.11,0.45,0.19,0.58c0.09,0.13,0.21,0.24,0.36,0.32
		s0.41,0.18,0.77,0.28v0.58h-5.01v-0.59c0.49-0.13,0.82-0.27,0.98-0.42c0.17-0.15,0.27-0.37,0.32-0.66
		c0.05-0.28,0.08-0.72,0.08-1.31V3.98c0-0.55-0.02-0.94-0.06-1.19s-0.1-0.44-0.19-0.58c-0.09-0.14-0.21-0.25-0.36-0.33
		c-0.15-0.08-0.41-0.18-0.77-0.28V1.02h5.87c1.85,0,3.23,0.34,4.15,1.01c0.92,0.67,1.38,1.72,1.38,3.13c0,1.08-0.3,2.01-0.9,2.77
		c-0.6,0.76-1.49,1.35-2.69,1.78V9.8c0.48,0.2,0.9,0.48,1.24,0.85s0.73,0.94,1.15,1.71l1.07,1.94c0.31,0.57,0.57,1.01,0.79,1.31
		c0.22,0.3,0.44,0.53,0.68,0.69c0.23,0.16,0.53,0.27,0.91,0.33v0.58h-3.29c-0.3-0.42-0.59-0.87-0.85-1.35
		c-0.27-0.48-0.53-0.97-0.79-1.47l-1.04-1.98c-0.31-0.6-0.57-1.04-0.77-1.33c-0.2-0.28-0.39-0.48-0.56-0.6
		c-0.17-0.12-0.35-0.19-0.54-0.24c-0.19-0.04-0.48-0.06-0.87-0.06H120.35L120.35,10.18L120.35,10.18L120.35,10.18z M120.35,2.11
		v7.05h1.34c0.69,0,1.25-0.05,1.67-0.15c0.43-0.1,0.82-0.29,1.19-0.56c0.37-0.27,0.65-0.66,0.87-1.16c0.22-0.49,0.33-1.1,0.33-1.82
		c0-0.75-0.13-1.38-0.39-1.88s-0.65-0.88-1.17-1.14c-0.52-0.26-1.23-0.39-2.11-0.39C121.37,2.06,120.79,2.07,120.35,2.11z"/>
	<path fill="#282525" d="M143.19,11.61c0,0.86-0.08,1.6-0.23,2.23c-0.15,0.6-0.38,1.12-0.68,1.58c-0.27,0.41-0.62,0.76-1.03,1.05
		c-0.41,0.29-0.91,0.52-1.49,0.68c-0.58,0.16-1.27,0.25-2.06,0.25c-0.96,0-1.77-0.1-2.46-0.32c-0.68-0.21-1.25-0.56-1.69-1.05
		c-0.45-0.48-0.77-1.06-0.97-1.72c-0.2-0.66-0.3-1.5-0.3-2.52V3.98c0-0.62-0.02-1.03-0.06-1.25c-0.04-0.22-0.1-0.39-0.17-0.52
		s-0.19-0.23-0.32-0.33c-0.15-0.09-0.41-0.19-0.8-0.29V1.01h4.98v0.58c-0.44,0.11-0.75,0.23-0.93,0.37
		c-0.17,0.14-0.29,0.35-0.35,0.62c-0.06,0.28-0.1,0.74-0.1,1.39v8.4c0,0.77,0.08,1.41,0.24,1.94c0.16,0.52,0.39,0.93,0.68,1.22
		c0.29,0.29,0.64,0.5,1.04,0.63c0.4,0.13,0.9,0.19,1.51,0.19c0.56,0,1.04-0.1,1.46-0.29c0.42-0.19,0.77-0.49,1.05-0.88
		c0.28-0.4,0.47-0.88,0.57-1.46c0.1-0.58,0.15-1.35,0.15-2.33V3.97c0-0.69-0.03-1.16-0.1-1.41s-0.18-0.45-0.33-0.58
		s-0.48-0.26-0.96-0.39V1.01h4.73v0.58c-0.46,0.12-0.77,0.25-0.94,0.39s-0.29,0.35-0.35,0.62c-0.06,0.27-0.1,0.73-0.1,1.38
		L143.19,11.61L143.19,11.61z"/>
</g>
</svg>
