<?xml version="1.0" encoding="utf-8"?>
<!-- Generator: Adobe Illustrator 13.0.0, SVG Export Plug-In . SVG Version: 6.00 Build 14948)  -->
<!DOCTYPE svg PUBLIC "-//W3C//DTD SVG 1.1//EN" "http://www.w3.org/Graphics/SVG/1.1/DTD/svg11.dtd" [
	<!ENTITY ns_extend "http://ns.adobe.com/Extensibility/1.0/">
	<!ENTITY ns_ai "http://ns.adobe.com/AdobeIllustrator/10.0/">
	<!ENTITY ns_graphs "http://ns.adobe.com/Graphs/1.0/">
	<!ENTITY ns_vars "http://ns.adobe.com/Variables/1.0/">
	<!ENTITY ns_imrep "http://ns.adobe.com/ImageReplacement/1.0/">
	<!ENTITY ns_sfw "http://ns.adobe.com/SaveForWeb/1.0/">
	<!ENTITY ns_custom "http://ns.adobe.com/GenericCustomNamespace/1.0/">
	<!ENTITY ns_adobe_xpath "http://ns.adobe.com/XPath/1.0/">
]>
<svg version="1.1" id="Ebene_1" xmlns:x="&ns_extend;" xmlns:i="&ns_ai;" xmlns:graph="&ns_graphs;"
	 xmlns="http://www.w3.org/2000/svg" xmlns:xlink="http://www.w3.org/1999/xlink" x="0px" y="0px" width="148.67px"
	 height="28.17px" viewBox="2.83 -5 148.67 28.17" enable-background="new 2.83 -5 148.67 28.17" xml:space="preserve">
<metadata>
	<sfw  xmlns="&ns_sfw;">
		<slices></slices>
		<sliceSourceBounds  y="2.48" x="-8120" width="16383" height="22.79" bottomLeftOrigin="true"></sliceSourceBounds>
	</sfw>
</metadata>
<g>
	<path d="M6.86,20.22v-1.06h2.03V22h0.35v1.26H8.76v-0.88H6.59v0.88H6.1V22h0.32C6.76,21.39,6.86,21.04,6.86,20.22z M8.36,19.54
		H7.37v0.92c0,0.66-0.12,1-0.4,1.54h1.4v-2.46H8.36z"/>
	<path d="M12.38,20.77c0,1.32-0.51,1.71-1.33,1.71c-0.8,0-1.33-0.38-1.33-1.71c0-1.08,0.41-1.69,1.33-1.69
		C11.97,19.07,12.38,19.68,12.38,20.77z M10.28,20.8c0,0.77,0.17,1.28,0.78,1.28c0.62,0,0.78-0.52,0.78-1.28
		c0-0.98-0.22-1.35-0.78-1.35C10.5,19.46,10.28,19.82,10.28,20.8z"/>
	<path d="M13.63,20.81c0,0.52,0.03,1.27,0.71,1.27c0.57,0,0.62-0.43,0.65-0.82h0.5c0,0.61-0.29,1.21-1.12,1.21
		c-1.13,0-1.29-0.82-1.29-1.66c0-0.85,0.22-1.74,1.28-1.74c0.74,0,1.13,0.5,1.13,1.1h-0.5c0-0.35-0.13-0.71-0.63-0.71
		C13.73,19.46,13.63,20.14,13.63,20.81z"/>
	<path d="M16.82,22.39v-2.84h-0.97v-0.38h2.46v0.38h-0.97v2.84H16.82z"/>
	<path d="M18.84,20.02c0-0.66,0.38-0.96,1.07-0.96c0.74,0,1.03,0.38,1.03,0.82v1.91c0,0.15,0.06,0.26,0.2,0.26
		c0.03,0,0.09-0.01,0.12-0.01v0.34c-0.03,0.02-0.13,0.03-0.22,0.03c-0.32,0-0.49-0.03-0.57-0.47h-0.01
		c-0.13,0.29-0.47,0.52-0.82,0.52c-0.65,0-0.95-0.31-0.95-0.89c0-0.58,0.28-0.79,0.92-1c0.24-0.08,0.6-0.22,0.66-0.24
		c0.13-0.05,0.14-0.22,0.14-0.38c0-0.37-0.14-0.51-0.56-0.51c-0.4,0-0.54,0.19-0.54,0.57L18.84,20.02L18.84,20.02z M19.24,21.56
		c0,0.29,0.14,0.5,0.49,0.5c0.55,0,0.68-0.32,0.68-0.65v-0.78C19.86,20.91,19.24,20.94,19.24,21.56z"/>
	<path d="M21.92,19.15h1.2c0.56,0,1,0.3,1,0.77c0,0.42-0.24,0.69-0.58,0.77v0.01c0.41,0.09,0.67,0.36,0.67,0.8
		c0,0.56-0.43,0.88-0.92,0.88h-1.38L21.92,19.15L21.92,19.15z M22.44,20.49H23c0.4,0,0.58-0.14,0.58-0.49
		c0-0.31-0.18-0.46-0.56-0.46h-0.58V20.49z M22.44,22h0.62c0.49,0,0.61-0.18,0.61-0.57c0-0.38-0.22-0.56-0.62-0.56h-0.61V22z"/>
	<path d="M25.57,20.66l1.28-1.51h0.63l-1.15,1.26l1.18,1.97H26.9l-0.92-1.61l-0.4,0.46v1.15h-0.53v-3.24h0.53v1.52H25.57z"/>
	<path d="M28.04,20.02c0-0.66,0.38-0.96,1.07-0.96c0.74,0,1.03,0.38,1.03,0.82v1.91c0,0.15,0.06,0.26,0.2,0.26
		c0.03,0,0.09-0.01,0.12-0.01v0.34c-0.03,0.02-0.13,0.03-0.22,0.03c-0.32,0-0.49-0.03-0.57-0.47h-0.01
		c-0.13,0.29-0.47,0.52-0.82,0.52c-0.65,0-0.95-0.31-0.95-0.89c0-0.58,0.28-0.79,0.92-1c0.24-0.08,0.6-0.22,0.66-0.24
		c0.13-0.05,0.14-0.22,0.14-0.38c0-0.37-0.14-0.51-0.56-0.51c-0.4,0-0.54,0.19-0.54,0.57L28.04,20.02L28.04,20.02z M28.44,21.56
		c0,0.29,0.14,0.5,0.49,0.5c0.55,0,0.68-0.32,0.68-0.65v-0.78C29.07,20.91,28.44,20.94,28.44,21.56z"/>
	<path d="M33.37,22.39v-2.84H32.4v-0.38h2.46v0.38H33.9v2.84H33.37z"/>
	<path d="M37.96,20.77c0,1.32-0.51,1.71-1.33,1.71c-0.8,0-1.33-0.38-1.33-1.71c0-1.08,0.41-1.69,1.33-1.69S37.96,19.68,37.96,20.77z
		 M35.86,20.8c0,0.77,0.17,1.28,0.78,1.28c0.62,0,0.78-0.52,0.78-1.28c0-0.98-0.22-1.35-0.78-1.35
		C36.07,19.46,35.86,19.82,35.86,20.8z"/>
	<path d="M38.8,19.15H40c0.56,0,1,0.3,1,0.77c0,0.42-0.24,0.69-0.58,0.77v0.01c0.41,0.09,0.67,0.36,0.67,0.8
		c0,0.56-0.43,0.88-0.92,0.88H38.8V19.15z M39.32,20.49h0.56c0.4,0,0.58-0.14,0.58-0.49c0-0.31-0.18-0.46-0.56-0.46h-0.58V20.49z
		 M39.32,22h0.62c0.49,0,0.61-0.18,0.61-0.57c0-0.38-0.22-0.56-0.62-0.56h-0.61V22z"/>
	<path d="M41.86,20.02c0-0.66,0.38-0.96,1.07-0.96c0.74,0,1.03,0.38,1.03,0.82v1.91c0,0.15,0.06,0.26,0.2,0.26
		c0.03,0,0.09-0.01,0.12-0.01v0.34c-0.03,0.02-0.13,0.03-0.22,0.03c-0.32,0-0.49-0.03-0.57-0.47h-0.01
		c-0.13,0.29-0.47,0.52-0.82,0.52c-0.65,0-0.95-0.31-0.95-0.89c0-0.58,0.28-0.79,0.92-1c0.24-0.08,0.6-0.22,0.66-0.24
		c0.13-0.05,0.14-0.22,0.14-0.38c0-0.37-0.14-0.51-0.56-0.51c-0.4,0-0.54,0.19-0.54,0.57L41.86,20.02L41.86,20.02z M42.26,21.56
		c0,0.29,0.14,0.5,0.49,0.5c0.55,0,0.68-0.32,0.68-0.65v-0.78C42.89,20.91,42.26,20.94,42.26,21.56z"/>
	<path d="M45.47,19.52L45.47,19.52c0.17-0.31,0.51-0.45,0.76-0.45c0.94,0,1.21,0.74,1.21,1.65c0,0.99-0.25,1.75-1.18,1.75
		c-0.38,0-0.6-0.16-0.8-0.42v1.46h-0.53v-4.36h0.53v0.37H45.47z M45.47,20.77c0,0.62,0.04,1.32,0.71,1.32c0.55,0,0.72-0.5,0.72-1.37
		c0-0.43-0.06-1.26-0.73-1.26C45.52,19.46,45.47,20.2,45.47,20.77z"/>
	<path d="M50.8,20.77c0,1.32-0.51,1.71-1.33,1.71c-0.8,0-1.33-0.38-1.33-1.71c0-1.08,0.41-1.69,1.33-1.69
		C50.39,19.07,50.8,19.68,50.8,20.77z M48.69,20.8c0,0.77,0.17,1.28,0.78,1.28c0.62,0,0.78-0.52,0.78-1.28
		c0-0.98-0.22-1.35-0.78-1.35C48.91,19.46,48.69,19.82,48.69,20.8z"/>
	<path d="M51.63,19.15h1.2c0.56,0,1,0.3,1,0.77c0,0.42-0.24,0.69-0.58,0.77v0.01c0.41,0.09,0.67,0.36,0.67,0.8
		c0,0.56-0.43,0.88-0.92,0.88h-1.38L51.63,19.15L51.63,19.15z M52.16,20.49h0.56c0.4,0,0.58-0.14,0.58-0.49
		c0-0.31-0.18-0.46-0.56-0.46h-0.58V20.49z M52.16,22h0.62c0.49,0,0.61-0.18,0.61-0.57c0-0.38-0.22-0.56-0.62-0.56h-0.61V22z"/>
	<path d="M56.96,19.15v2.46c0,0.11-0.03,0.27-0.06,0.38h0.01c0.04-0.15,0.08-0.31,0.11-0.38l1.23-2.46h0.64v3.24h-0.53v-2.45
		c0-0.09,0.03-0.3,0.06-0.4h-0.01c-0.02,0.11-0.08,0.35-0.11,0.4l-1.23,2.45h-0.64v-3.24H56.96z"/>
	<path d="M59.64,20.02c0.03-0.51,0.46-0.95,1.13-0.95c0.63,0,1.1,0.35,1.1,0.81c0,0.44-0.28,0.7-0.66,0.79v0.01
		c0.35,0.06,0.76,0.31,0.76,0.83c0,0.57-0.45,0.96-1.17,0.96c-0.77,0-1.15-0.35-1.21-1.1h0.49c0.06,0.55,0.26,0.72,0.69,0.72
		c0.4,0,0.67-0.16,0.67-0.6c0-0.35-0.22-0.6-0.62-0.6h-0.29V20.5h0.28c0.3,0,0.54-0.2,0.54-0.53c0-0.25-0.17-0.51-0.59-0.51
		c-0.42,0-0.61,0.25-0.63,0.57L59.64,20.02L59.64,20.02z"/>
	<path d="M65,19.15v2.46c0,0.11-0.03,0.27-0.06,0.38h0.01c0.03-0.15,0.08-0.31,0.11-0.38l1.23-2.46h0.64v3.24H66.4v-2.45
		c0-0.09,0.03-0.3,0.06-0.4h-0.01c-0.02,0.11-0.08,0.35-0.11,0.4l-1.23,2.45h-0.64v-3.24H65z"/>
	<path d="M68.43,20.49h1.31v-1.33h0.53v3.24h-0.53v-1.51h-1.31v1.51H67.9v-3.24h0.53V20.49z"/>
	<path d="M71.83,22.39v-2.84h-0.97v-0.38h2.46v0.38h-0.97v2.84H71.83z"/>
	<path d="M76.11,21.31c0,0.64-0.34,1.16-1.12,1.16c-0.78,0-1.23-0.41-1.23-1.71c0-0.81,0.21-1.69,1.19-1.69
		c1.05,0,1.16,0.96,1.16,1.81h-1.8c0,0.74,0.05,1.21,0.67,1.21c0.51,0,0.6-0.41,0.6-0.78H76.11z M75.57,20.49
		c0-0.49-0.08-1.04-0.6-1.04c-0.58,0-0.65,0.6-0.65,1.04H75.57z"/>
	<path d="M77.48,19.52L77.48,19.52c0.17-0.31,0.51-0.45,0.76-0.45c0.94,0,1.21,0.74,1.21,1.65c0,0.99-0.25,1.75-1.18,1.75
		c-0.38,0-0.6-0.16-0.8-0.42v1.46h-0.53v-4.36h0.53L77.48,19.52L77.48,19.52z M77.48,20.77c0,0.62,0.04,1.32,0.71,1.32
		c0.55,0,0.72-0.5,0.72-1.37c0-0.43-0.06-1.26-0.73-1.26C77.53,19.46,77.48,20.2,77.48,20.77z"/>
	<path d="M80.82,20.49h1.31v-1.33h0.53v3.24h-0.53v-1.51h-1.31v1.51h-0.53v-3.24h0.53V20.49z"/>
	<path d="M85.84,21.31c0,0.64-0.34,1.16-1.12,1.16c-0.78,0-1.23-0.41-1.23-1.71c0-0.81,0.21-1.69,1.19-1.69
		c1.05,0,1.16,0.96,1.16,1.81h-1.8c0,0.74,0.05,1.21,0.67,1.21c0.51,0,0.6-0.41,0.6-0.78H85.84z M85.3,20.49
		c0-0.49-0.08-1.04-0.6-1.04c-0.58,0-0.65,0.6-0.65,1.04H85.3z"/>
	<path d="M87.26,22.39v-2.84h-0.97v-0.38h2.46v0.38h-0.96v2.84H87.26z"/>
	<path d="M90.88,20.71v0.41h-1.74v-0.41H90.88z"/>
	<path d="M92.48,19.15l0.67,2.13c0.05,0.15,0.09,0.44,0.13,0.65h0.01c0.04-0.22,0.07-0.48,0.13-0.65l0.67-2.13h0.82v3.24H94.4v-2.84
		l0,0l-0.94,2.84h-0.35l-0.93-2.84h-0.01v2.84h-0.51v-3.24H92.48z"/>
	<path d="M95.83,20.02c0-0.66,0.38-0.96,1.07-0.96c0.74,0,1.03,0.38,1.03,0.82v1.91c0,0.15,0.06,0.26,0.2,0.26
		c0.04,0,0.09-0.01,0.12-0.01v0.34c-0.04,0.02-0.13,0.03-0.22,0.03c-0.32,0-0.49-0.03-0.57-0.47h-0.01
		c-0.13,0.29-0.46,0.52-0.82,0.52c-0.65,0-0.95-0.31-0.95-0.89c0-0.58,0.28-0.79,0.92-1c0.24-0.08,0.6-0.22,0.66-0.24
		c0.13-0.05,0.14-0.22,0.14-0.38c0-0.37-0.14-0.51-0.56-0.51c-0.4,0-0.54,0.19-0.54,0.57L95.83,20.02L95.83,20.02z M96.23,21.56
		c0,0.29,0.14,0.5,0.49,0.5c0.55,0,0.68-0.32,0.68-0.65v-0.78C96.85,20.91,96.23,20.94,96.23,21.56z"/>
	<path d="M100.86,19.15v0.38h-1.43v2.84H98.9v-3.24L100.86,19.15L100.86,19.15z"/>
	<path d="M101.39,20.02c0-0.66,0.38-0.96,1.07-0.96c0.74,0,1.03,0.38,1.03,0.82v1.91c0,0.15,0.06,0.26,0.2,0.26
		c0.04,0,0.09-0.01,0.12-0.01v0.34c-0.04,0.02-0.13,0.03-0.22,0.03c-0.32,0-0.49-0.03-0.57-0.47h-0.01
		c-0.13,0.29-0.46,0.52-0.82,0.52c-0.65,0-0.95-0.31-0.95-0.89c0-0.58,0.28-0.79,0.92-1c0.24-0.08,0.6-0.22,0.66-0.24
		c0.13-0.05,0.14-0.22,0.14-0.38c0-0.37-0.14-0.51-0.56-0.51c-0.4,0-0.54,0.19-0.54,0.57L101.39,20.02L101.39,20.02z M101.79,21.56
		c0,0.29,0.14,0.5,0.49,0.5c0.55,0,0.68-0.32,0.68-0.65v-0.78C102.41,20.91,101.79,20.94,101.79,21.56z"/>
	<path d="M104.24,20.02c0.03-0.51,0.46-0.95,1.13-0.95c0.63,0,1.1,0.35,1.1,0.81c0,0.44-0.28,0.7-0.66,0.79v0.01
		c0.35,0.06,0.76,0.31,0.76,0.83c0,0.57-0.45,0.96-1.17,0.96c-0.77,0-1.15-0.35-1.21-1.1h0.49c0.06,0.55,0.26,0.72,0.69,0.72
		c0.4,0,0.67-0.16,0.67-0.6c0-0.35-0.22-0.6-0.62-0.6h-0.29V20.5h0.29c0.3,0,0.54-0.2,0.54-0.53c0-0.25-0.17-0.51-0.59-0.51
		s-0.61,0.25-0.63,0.57L104.24,20.02L104.24,20.02z"/>
	<path d="M107.93,19.15v2.46c0,0.11-0.03,0.27-0.06,0.38h0.01c0.04-0.15,0.08-0.31,0.11-0.38l1.23-2.46h0.64v3.24h-0.53v-2.45
		c0-0.09,0.04-0.3,0.06-0.4h-0.01c-0.02,0.11-0.08,0.35-0.11,0.4l-1.23,2.45h-0.64v-3.24H107.93z"/>
	<path d="M111.37,20.49h1.31v-1.33h0.53v3.24h-0.53v-1.51h-1.31v1.51h-0.53v-3.24h0.53V20.49z"/>
	<path d="M114.12,20.02c0-0.66,0.38-0.96,1.07-0.96c0.74,0,1.03,0.38,1.03,0.82v1.91c0,0.15,0.06,0.26,0.2,0.26
		c0.04,0,0.09-0.01,0.12-0.01v0.34c-0.04,0.02-0.13,0.03-0.22,0.03c-0.32,0-0.49-0.03-0.57-0.47h-0.01
		c-0.13,0.29-0.46,0.52-0.82,0.52c-0.65,0-0.95-0.31-0.95-0.89c0-0.58,0.28-0.79,0.92-1c0.24-0.08,0.6-0.22,0.66-0.24
		c0.13-0.05,0.14-0.22,0.14-0.38c0-0.37-0.14-0.51-0.56-0.51c-0.4,0-0.54,0.19-0.54,0.57L114.12,20.02L114.12,20.02z M114.52,21.56
		c0,0.29,0.14,0.5,0.49,0.5c0.55,0,0.68-0.32,0.68-0.65v-0.78C115.15,20.91,114.52,20.94,114.52,21.56z"/>
	<path d="M119,19.16v-0.29c0-0.54,0.09-0.86,0.84-0.86c0.08,0,0.17,0.01,0.26,0.01v0.38c-0.07-0.01-0.15-0.01-0.21-0.01
		c-0.27,0-0.37,0.09-0.37,0.41v0.35h0.58v0.38h-0.58v2.84H119v-2.84h-0.54v-0.38L119,19.16L119,19.16z"/>
	<path d="M120.66,20.02c0-0.66,0.38-0.96,1.07-0.96c0.74,0,1.03,0.38,1.03,0.82v1.91c0,0.15,0.06,0.26,0.2,0.26
		c0.04,0,0.09-0.01,0.12-0.01v0.34c-0.04,0.02-0.13,0.03-0.22,0.03c-0.32,0-0.49-0.03-0.57-0.47h-0.01
		c-0.13,0.29-0.46,0.52-0.82,0.52c-0.65,0-0.95-0.31-0.95-0.89c0-0.58,0.28-0.79,0.92-1c0.24-0.08,0.6-0.22,0.66-0.24
		c0.13-0.05,0.14-0.22,0.14-0.38c0-0.37-0.14-0.51-0.56-0.51c-0.4,0-0.54,0.19-0.54,0.57L120.66,20.02L120.66,20.02z M121.06,21.56
		c0,0.29,0.14,0.5,0.49,0.5c0.55,0,0.68-0.32,0.68-0.65v-0.78C121.69,20.91,121.06,20.94,121.06,21.56z"/>
	<path d="M123.74,18.61v-0.58h0.53v0.58H123.74z M124.26,22.39h-0.53v-3.24h0.53V22.39z"/>
	<path d="M125.77,19.48L125.77,19.48c0.22-0.29,0.46-0.42,0.79-0.42c0.94,0,1.17,0.79,1.17,1.66c0,0.91-0.2,1.75-1.15,1.75
		c-0.32,0-0.58-0.04-0.81-0.41h-0.01v0.33h-0.53v-4.36h0.53v1.45H125.77z M125.77,20.76c0,0.62,0.02,1.33,0.69,1.33
		c0.55,0,0.72-0.5,0.72-1.37c0-0.43-0.06-1.26-0.73-1.26C125.8,19.46,125.77,20.19,125.77,20.76z"/>
	<path d="M130.77,21.31c0,0.64-0.34,1.16-1.12,1.16c-0.78,0-1.23-0.41-1.23-1.71c0-0.81,0.21-1.69,1.19-1.69
		c1.05,0,1.16,0.96,1.16,1.81h-1.8c0,0.74,0.05,1.21,0.67,1.21c0.51,0,0.6-0.41,0.6-0.78H130.77z M130.22,20.49
		c0-0.49-0.08-1.04-0.6-1.04c-0.58,0-0.65,0.6-0.65,1.04H130.22z"/>
	<path d="M132.13,22.39h-0.53v-4.36h0.53V22.39z"/>
	<path d="M134.65,20.02c0-0.38-0.17-0.57-0.59-0.57c-0.38,0-0.53,0.21-0.53,0.5c0,0.35,0.27,0.46,0.67,0.58
		c0.55,0.17,1.1,0.38,1.1,0.97c0,0.62-0.44,0.96-1.23,0.96c-0.85,0-1.15-0.33-1.15-1.03h0.5c0,0.42,0.15,0.64,0.62,0.64
		c0.43,0,0.71-0.15,0.71-0.55c0-0.41-0.47-0.49-0.85-0.63c-0.58-0.21-0.9-0.43-0.9-0.94c0-0.56,0.41-0.9,1.05-0.9
		c0.7,0,1.12,0.33,1.12,0.95L134.65,20.02L134.65,20.02z"/>
	<path d="M136.72,21.8v0.58h-0.6V21.8H136.72z"/>
	<path d="M140.1,18.03v4.36h-0.53v-0.4h-0.01c-0.23,0.38-0.44,0.49-0.89,0.49c-0.92,0-1.08-0.85-1.08-1.78
		c0-0.93,0.36-1.62,1.11-1.62c0.38,0,0.6,0.14,0.85,0.42h0.01v-1.46L140.1,18.03L140.1,18.03z M138.14,20.77
		c0,0.62,0.04,1.32,0.71,1.32c0.55,0,0.72-0.5,0.72-1.37c0-0.43-0.06-1.26-0.73-1.26C138.2,19.46,138.14,20.2,138.14,20.77z"/>
	<path d="M143.28,21.31c0,0.64-0.34,1.16-1.12,1.16s-1.23-0.41-1.23-1.71c0-0.81,0.21-1.69,1.19-1.69c1.05,0,1.16,0.96,1.16,1.81
		h-1.8c0,0.74,0.05,1.21,0.67,1.21c0.51,0,0.6-0.41,0.6-0.78H143.28z M142.74,20.49c0-0.49-0.08-1.04-0.6-1.04
		c-0.58,0-0.65,0.6-0.65,1.04H142.74z"/>
</g>
<g>
	<path fill="#282525" d="M16.21,1.36v3.29h-1.18C14.84,3.96,14.6,3.41,14.31,3c-0.29-0.4-0.63-0.7-1.02-0.87s-0.85-0.26-1.4-0.26
		c-0.82,0-1.54,0.27-2.18,0.81s-1.14,1.36-1.5,2.44c-0.36,1.09-0.55,2.4-0.55,3.94c0,1.55,0.15,2.87,0.45,3.97
		c0.3,1.1,0.74,1.92,1.33,2.48c0.58,0.56,1.31,0.84,2.16,0.84c0.65,0,1.18-0.09,1.59-0.28c0.41-0.19,0.76-0.48,1.04-0.88
		c0.28-0.4,0.55-1,0.8-1.78h1.18v3.4c-0.74,0.19-1.51,0.35-2.28,0.44c-0.78,0.1-1.64,0.15-2.57,0.15c-2.01,0-3.53-0.68-4.56-2.04
		C5.77,14,5.26,11.97,5.26,9.27c0-1.69,0.27-3.18,0.8-4.45c0.53-1.27,1.32-2.26,2.35-2.95c1.04-0.69,2.27-1.04,3.72-1.04
		c0.72,0,1.38,0.04,1.99,0.11C14.72,1.01,15.42,1.15,16.21,1.36z"/>
	<path fill="#282525" d="M26.96,17.21v-0.58c0.4-0.08,0.69-0.17,0.88-0.26s0.34-0.23,0.43-0.4s0.14-0.4,0.14-0.68
		c0-0.27-0.03-0.56-0.1-0.87c-0.06-0.31-0.15-0.66-0.27-1.05l-0.43-1.54h-5.53l-0.4,1.16c-0.21,0.58-0.34,1.03-0.4,1.33
		c-0.06,0.3-0.09,0.57-0.09,0.82c0,0.48,0.12,0.82,0.36,1.04c0.24,0.22,0.61,0.37,1.11,0.44v0.58H17.6v-0.58
		c0.44-0.07,0.83-0.33,1.16-0.77c0.33-0.44,0.65-1.08,0.96-1.9l4.92-13.13h1.88l4.03,13.23c0.19,0.62,0.36,1.09,0.5,1.41
		c0.15,0.32,0.32,0.58,0.53,0.76s0.49,0.31,0.84,0.4v0.58L26.96,17.21L26.96,17.21z M22.4,10.8h4.96l-2.25-7.65L22.4,10.8z"/>
	<path fill="#282525" d="M32.01,1.02h12.84v4.13h-1.16c-0.17-0.68-0.35-1.22-0.52-1.61c-0.17-0.4-0.35-0.69-0.54-0.9
		s-0.4-0.35-0.61-0.44c-0.22-0.09-0.54-0.13-0.98-0.13h-1.51v12.15c0,0.47,0.03,0.84,0.08,1.11c0.05,0.28,0.13,0.5,0.24,0.66
		c0.11,0.16,0.25,0.29,0.43,0.38c0.18,0.09,0.47,0.18,0.85,0.27v0.58h-5.42v-0.58c0.24-0.06,0.45-0.11,0.63-0.18
		c0.18-0.06,0.33-0.14,0.44-0.23c0.11-0.09,0.21-0.21,0.29-0.35c0.08-0.14,0.13-0.34,0.18-0.58c0.04-0.25,0.06-0.6,0.06-1.08V2.06
		h-1.49c-0.37,0-0.68,0.04-0.92,0.1c-0.24,0.06-0.46,0.22-0.67,0.44c-0.21,0.23-0.39,0.54-0.56,0.96s-0.33,0.94-0.48,1.57h-1.18
		L32.01,1.02L32.01,1.02z"/>
	<path fill="#282525" d="M53.15,17.21v-0.58c0.4-0.08,0.69-0.17,0.89-0.26c0.19-0.09,0.34-0.23,0.43-0.4
		c0.09-0.17,0.14-0.4,0.14-0.68c0-0.27-0.03-0.56-0.09-0.87c-0.06-0.31-0.15-0.66-0.27-1.05l-0.44-1.54h-5.53l-0.4,1.16
		c-0.21,0.58-0.34,1.03-0.4,1.33c-0.06,0.3-0.09,0.57-0.09,0.82c0,0.48,0.12,0.82,0.36,1.04c0.24,0.22,0.61,0.37,1.11,0.44v0.58
		h-5.07v-0.58c0.44-0.07,0.83-0.33,1.16-0.77c0.33-0.44,0.65-1.08,0.96-1.9l4.93-13.13h1.88l4.03,13.23
		c0.19,0.62,0.36,1.09,0.5,1.41c0.15,0.32,0.32,0.58,0.53,0.76s0.49,0.31,0.84,0.4v0.58L53.15,17.21L53.15,17.21L53.15,17.21z
		 M48.6,10.8h4.96l-2.25-7.65L48.6,10.8z"/>
	<path fill="#282525" d="M63.89,16.12H67c0.34,0,0.63-0.02,0.85-0.06c0.23-0.04,0.42-0.1,0.59-0.19s0.31-0.2,0.44-0.35
		c0.13-0.15,0.25-0.34,0.37-0.57c0.12-0.24,0.23-0.54,0.34-0.9c0.11-0.36,0.24-0.9,0.4-1.62h1.2l-0.24,4.77H60.28v-0.58
		c0.49-0.13,0.82-0.27,0.99-0.42s0.28-0.37,0.33-0.66c0.05-0.28,0.08-0.72,0.08-1.31V3.98c0-0.55-0.02-0.94-0.06-1.19
		s-0.1-0.44-0.19-0.58c-0.1-0.14-0.22-0.25-0.37-0.34c-0.15-0.09-0.41-0.18-0.77-0.28V1.02h5V1.6c-0.35,0.1-0.59,0.18-0.74,0.26
		c-0.15,0.07-0.27,0.17-0.36,0.3c-0.09,0.13-0.17,0.32-0.21,0.58C63.93,3,63.91,3.42,63.91,3.99L63.89,16.12L63.89,16.12z"/>
	<path fill="#282525" d="M79.47,17.4c-0.95,0-1.81-0.16-2.59-0.47c-0.78-0.31-1.45-0.8-2.01-1.46c-0.56-0.66-0.99-1.51-1.29-2.53
		c-0.31-1.03-0.46-2.26-0.46-3.69c0-1.77,0.27-3.28,0.81-4.54c0.54-1.27,1.31-2.23,2.31-2.89c1-0.66,2.16-0.99,3.48-0.99
		c1.41,0,2.59,0.31,3.56,0.93c0.96,0.62,1.69,1.53,2.17,2.74s0.73,2.68,0.73,4.41c0,1.85-0.28,3.41-0.83,4.69
		c-0.55,1.27-1.34,2.23-2.34,2.86C81.99,17.09,80.82,17.4,79.47,17.4z M75.57,8.92c0,2.43,0.35,4.27,1.06,5.54
		c0.71,1.27,1.74,1.9,3.1,1.9c0.86,0,1.6-0.27,2.19-0.82c0.6-0.55,1.05-1.35,1.35-2.42c0.3-1.06,0.45-2.3,0.45-3.71
		c0-1.73-0.18-3.15-0.53-4.29c-0.35-1.13-0.83-1.96-1.44-2.47c-0.61-0.52-1.32-0.77-2.13-0.77c-0.71,0-1.32,0.17-1.83,0.5
		s-0.93,0.81-1.27,1.42c-0.34,0.61-0.58,1.36-0.74,2.23C75.64,6.88,75.57,7.85,75.57,8.92z"/>
	<path fill="#282525" d="M100.38,17.15l-0.93,0.25l-0.86-0.92c-0.52,0.31-1.05,0.55-1.61,0.7c-0.56,0.15-1.21,0.23-1.94,0.23
		c-2,0-3.51-0.69-4.52-2.06C89.51,13.98,89,11.94,89,9.24c0-1.69,0.27-3.16,0.83-4.44c0.55-1.27,1.35-2.25,2.39-2.94
		c1.04-0.69,2.25-1.03,3.65-1.03c0.74,0,1.44,0.04,2.13,0.13c0.68,0.08,1.44,0.23,2.27,0.43v3.27H99.1
		c-0.21-0.71-0.47-1.27-0.76-1.67c-0.29-0.4-0.64-0.69-1.05-0.85c-0.41-0.17-0.92-0.26-1.55-0.26c-0.86,0-1.62,0.28-2.27,0.83
		c-0.65,0.56-1.15,1.37-1.52,2.45c-0.36,1.08-0.54,2.38-0.54,3.91c0,1.55,0.15,2.88,0.46,3.97c0.31,1.1,0.76,1.93,1.36,2.49
		c0.6,0.56,1.34,0.84,2.22,0.84c0.94,0,1.63-0.2,2.08-0.61c0.45-0.41,0.68-1.03,0.68-1.88v-0.73c0-0.71-0.04-1.23-0.11-1.54
		c-0.07-0.31-0.21-0.56-0.4-0.73c-0.19-0.18-0.5-0.31-0.94-0.43V9.87h4.79v0.58c-0.28,0.1-0.5,0.2-0.64,0.33
		c-0.14,0.12-0.25,0.27-0.33,0.46c-0.08,0.19-0.13,0.41-0.15,0.67c-0.03,0.27-0.04,0.64-0.04,1.13L100.38,17.15L100.38,17.15
		L100.38,17.15z"/>
	<path fill="#282525" d="M107.48,14.24c0,0.53,0.02,0.92,0.06,1.16c0.03,0.25,0.1,0.44,0.18,0.58c0.08,0.14,0.21,0.26,0.37,0.35
		c0.16,0.1,0.42,0.19,0.79,0.28v0.58h-5.01v-0.58c0.49-0.13,0.82-0.27,0.99-0.42c0.17-0.15,0.27-0.37,0.33-0.66
		c0.05-0.28,0.08-0.72,0.08-1.31V3.98c0-0.55-0.02-0.94-0.06-1.19s-0.1-0.44-0.19-0.58c-0.1-0.14-0.21-0.25-0.36-0.33
		c-0.15-0.08-0.41-0.18-0.77-0.28V1.02h5.01V1.6c-0.35,0.09-0.6,0.17-0.76,0.26c-0.15,0.09-0.27,0.2-0.37,0.33
		c-0.09,0.13-0.16,0.32-0.2,0.59c-0.04,0.26-0.06,0.67-0.06,1.21L107.48,14.24L107.48,14.24z"/>
	<path fill="#282525" d="M114,14.46v2.75h-2.4v-2.75H114z"/>
	<path fill="#282525" d="M120.35,10.18v4.03c0,0.57,0.02,0.98,0.06,1.24s0.11,0.45,0.19,0.58c0.09,0.13,0.21,0.24,0.36,0.32
		s0.41,0.18,0.77,0.28v0.58h-5.01v-0.59c0.49-0.13,0.82-0.27,0.98-0.42c0.17-0.15,0.27-0.37,0.32-0.66
		c0.05-0.28,0.08-0.72,0.08-1.31V3.98c0-0.55-0.02-0.94-0.06-1.19s-0.1-0.44-0.19-0.58c-0.09-0.14-0.21-0.25-0.36-0.33
		c-0.15-0.08-0.41-0.18-0.77-0.28V1.02h5.87c1.85,0,3.23,0.34,4.15,1.01c0.92,0.67,1.38,1.72,1.38,3.13c0,1.08-0.3,2.01-0.9,2.77
		c-0.6,0.76-1.49,1.35-2.69,1.78V9.8c0.48,0.2,0.9,0.48,1.24,0.85s0.73,0.94,1.15,1.71l1.07,1.94c0.31,0.57,0.57,1.01,0.79,1.31
		c0.22,0.3,0.44,0.53,0.68,0.69c0.23,0.16,0.53,0.27,0.91,0.33v0.58h-3.29c-0.3-0.42-0.59-0.87-0.85-1.35
		c-0.27-0.48-0.53-0.97-0.79-1.47l-1.04-1.98c-0.31-0.6-0.57-1.04-0.77-1.33c-0.2-0.28-0.39-0.48-0.56-0.6
		c-0.17-0.12-0.35-0.19-0.54-0.24c-0.19-0.04-0.48-0.06-0.87-0.06H120.35L120.35,10.18L120.35,10.18L120.35,10.18z M120.35,2.11
		v7.05h1.34c0.69,0,1.25-0.05,1.67-0.15c0.43-0.1,0.82-0.29,1.19-0.56c0.37-0.27,0.65-0.66,0.87-1.16c0.22-0.49,0.33-1.1,0.33-1.82
		c0-0.75-0.13-1.38-0.39-1.88s-0.65-0.88-1.17-1.14c-0.52-0.26-1.23-0.39-2.11-0.39C121.37,2.06,120.79,2.07,120.35,2.11z"/>
	<path fill="#282525" d="M143.19,11.61c0,0.86-0.08,1.6-0.23,2.23c-0.15,0.6-0.38,1.12-0.68,1.58c-0.27,0.41-0.62,0.76-1.03,1.05
		c-0.41,0.29-0.91,0.52-1.49,0.68c-0.58,0.16-1.27,0.25-2.06,0.25c-0.96,0-1.77-0.1-2.46-0.32c-0.68-0.21-1.25-0.56-1.69-1.05
		c-0.45-0.48-0.77-1.06-0.97-1.72c-0.2-0.66-0.3-1.5-0.3-2.52V3.98c0-0.62-0.02-1.03-0.06-1.25c-0.04-0.22-0.1-0.39-0.17-0.52
		s-0.19-0.23-0.32-0.33c-0.15-0.09-0.41-0.19-0.8-0.29V1.01h4.98v0.58c-0.44,0.11-0.75,0.23-0.93,0.37
		c-0.17,0.14-0.29,0.35-0.35,0.62c-0.06,0.28-0.1,0.74-0.1,1.39v8.4c0,0.77,0.08,1.41,0.24,1.94c0.16,0.52,0.39,0.93,0.68,1.22
		c0.29,0.29,0.64,0.5,1.04,0.63c0.4,0.13,0.9,0.19,1.51,0.19c0.56,0,1.04-0.1,1.46-0.29c0.42-0.19,0.77-0.49,1.05-0.88
		c0.28-0.4,0.47-0.88,0.57-1.46c0.1-0.58,0.15-1.35,0.15-2.33V3.97c0-0.69-0.03-1.16-0.1-1.41s-0.18-0.45-0.33-0.58
		s-0.48-0.26-0.96-0.39V1.01h4.73v0.58c-0.46,0.12-0.77,0.25-0.94,0.39s-0.29,0.35-0.35,0.62c-0.06,0.27-0.1,0.73-0.1,1.38
		L143.19,11.61L143.19,11.61z"/>
</g>
</svg>
