<?xml version="1.0" encoding="utf-8"?>
<!-- Generator: Adobe Illustrator 13.0.0, SVG Export Plug-In . SVG Version: 6.00 Build 14948)  -->
<!DOCTYPE svg PUBLIC "-//W3C//DTD SVG 1.1//EN" "http://www.w3.org/Graphics/SVG/1.1/DTD/svg11.dtd" [
	<!ENTITY ns_extend "http://ns.adobe.com/Extensibility/1.0/">
	<!ENTITY ns_ai "http://ns.adobe.com/AdobeIllustrator/10.0/">
	<!ENTITY ns_graphs "http://ns.adobe.com/Graphs/1.0/">
	<!ENTITY ns_vars "http://ns.adobe.com/Variables/1.0/">
	<!ENTITY ns_imrep "http://ns.adobe.com/ImageReplacement/1.0/">
	<!ENTITY ns_sfw "http://ns.adobe.com/SaveForWeb/1.0/">
	<!ENTITY ns_custom "http://ns.adobe.com/GenericCustomNamespace/1.0/">
	<!ENTITY ns_adobe_xpath "http://ns.adobe.com/XPath/1.0/">
]>
<svg version="1.1" id="Ebene_1" xmlns:x="&ns_extend;" xmlns:i="&ns_ai;" xmlns:graph="&ns_graphs;"
	 xmlns="http://www.w3.org/2000/svg" xmlns:xlink="http://www.w3.org/1999/xlink" x="0px" y="0px" width="148.67px"
	 height="28.17px" viewBox="2.83 -5 148.67 28.17" enable-background="new 2.83 -5 148.67 28.17" xml:space="preserve">
<metadata>
	<sfw  xmlns="&ns_sfw;">
		<slices></slices>
		<sliceSourceBounds  height="23.5" width="139.31" x="2.42" y="1.78" bottomLeftOrigin="true"></sliceSourceBounds>
	</sfw>
</metadata>
<g>
	<path fill="#282525" d="M6.86,20.54v-1.22h2.03v3.26h0.35v1.45H8.76v-1.01H6.59v1.01H6.1v-1.45h0.32
		C6.76,21.89,6.86,21.48,6.86,20.54z M8.36,19.76H7.37v1.06c0,0.76-0.12,1.15-0.4,1.76h1.4V19.76z"/>
	<path fill="#282525" d="M12.38,21.17c0,1.51-0.51,1.96-1.33,1.96c-0.8,0-1.33-0.44-1.33-1.96c0-1.24,0.41-1.94,1.33-1.94
		S12.38,19.92,12.38,21.17z M10.28,21.21c0,0.88,0.17,1.47,0.78,1.47c0.62,0,0.78-0.59,0.78-1.47c0-1.12-0.22-1.55-0.78-1.55
		C10.5,19.67,10.28,20.09,10.28,21.21z"/>
	<path fill="#282525" d="M13.63,21.22c0,0.6,0.03,1.46,0.71,1.46c0.57,0,0.62-0.49,0.65-0.94h0.5c0,0.7-0.29,1.39-1.12,1.39
		c-1.13,0-1.29-0.94-1.29-1.9c0-0.98,0.22-2,1.28-2c0.74,0,1.13,0.57,1.13,1.26h-0.5c0-0.4-0.13-0.81-0.63-0.81
		C13.73,19.67,13.63,20.45,13.63,21.22z"/>
	<path fill="#282525" d="M16.82,23.03v-3.26h-0.97v-0.44h2.46v0.44h-0.97v3.26H16.82z"/>
	<path fill="#282525" d="M18.84,20.32c0-0.76,0.38-1.1,1.07-1.1c0.74,0,1.03,0.44,1.03,0.94v2.19c0,0.17,0.06,0.3,0.2,0.3
		c0.03,0,0.09-0.01,0.12-0.01v0.39c-0.03,0.02-0.13,0.04-0.22,0.04c-0.32,0-0.49-0.04-0.57-0.54h-0.01c-0.13,0.33-0.47,0.6-0.82,0.6
		c-0.65,0-0.95-0.35-0.95-1.02c0-0.66,0.28-0.9,0.92-1.15c0.24-0.09,0.6-0.25,0.66-0.28c0.13-0.06,0.14-0.25,0.14-0.44
		c0-0.42-0.14-0.58-0.56-0.58c-0.4,0-0.54,0.22-0.54,0.65H18.84z M19.24,22.08c0,0.33,0.14,0.57,0.49,0.57
		c0.55,0,0.68-0.37,0.68-0.75v-0.9C19.86,21.33,19.24,21.37,19.24,22.08z"/>
	<path fill="#282525" d="M21.92,19.32h1.2c0.56,0,1,0.34,1,0.88c0,0.48-0.24,0.79-0.58,0.88v0.01c0.41,0.1,0.67,0.41,0.67,0.92
		c0,0.64-0.43,1.01-0.92,1.01h-1.38V19.32z M22.44,20.85H23c0.4,0,0.58-0.16,0.58-0.56c0-0.36-0.18-0.53-0.56-0.53h-0.58V20.85z
		 M22.44,22.58h0.62c0.49,0,0.61-0.21,0.61-0.65c0-0.43-0.22-0.64-0.62-0.64h-0.61V22.58z"/>
	<path fill="#282525" d="M25.57,21.05l1.28-1.73h0.63l-1.15,1.44l1.18,2.26H26.9l-0.92-1.85l-0.4,0.53v1.32h-0.53v-3.71h0.53V21.05z
		"/>
	<path fill="#282525" d="M28.04,20.32c0-0.76,0.38-1.1,1.07-1.1c0.74,0,1.03,0.44,1.03,0.94v2.19c0,0.17,0.06,0.3,0.2,0.3
		c0.03,0,0.09-0.01,0.12-0.01v0.39c-0.03,0.02-0.13,0.04-0.22,0.04c-0.32,0-0.49-0.04-0.57-0.54h-0.01c-0.13,0.33-0.47,0.6-0.82,0.6
		c-0.65,0-0.95-0.35-0.95-1.02c0-0.66,0.28-0.9,0.92-1.15c0.24-0.09,0.6-0.25,0.66-0.28c0.13-0.06,0.14-0.25,0.14-0.44
		c0-0.42-0.14-0.58-0.56-0.58c-0.4,0-0.54,0.22-0.54,0.65H28.04z M28.44,22.08c0,0.33,0.14,0.57,0.49,0.57
		c0.55,0,0.68-0.37,0.68-0.75v-0.9C29.07,21.33,28.44,21.37,28.44,22.08z"/>
	<path fill="#282525" d="M33.37,23.03v-3.26H32.4v-0.44h2.46v0.44H33.9v3.26H33.37z"/>
	<path fill="#282525" d="M37.96,21.17c0,1.51-0.51,1.96-1.33,1.96c-0.8,0-1.33-0.44-1.33-1.96c0-1.24,0.41-1.94,1.33-1.94
		S37.96,19.92,37.96,21.17z M35.86,21.21c0,0.88,0.17,1.47,0.78,1.47c0.62,0,0.78-0.59,0.78-1.47c0-1.12-0.22-1.55-0.78-1.55
		C36.07,19.67,35.86,20.09,35.86,21.21z"/>
	<path fill="#282525" d="M38.8,19.32H40c0.56,0,1,0.34,1,0.88c0,0.48-0.24,0.79-0.58,0.88v0.01c0.41,0.1,0.67,0.41,0.67,0.92
		c0,0.64-0.43,1.01-0.92,1.01H38.8V19.32z M39.32,20.85h0.56c0.4,0,0.58-0.16,0.58-0.56c0-0.36-0.18-0.53-0.56-0.53h-0.58V20.85z
		 M39.32,22.58h0.62c0.49,0,0.61-0.21,0.61-0.65c0-0.43-0.22-0.64-0.62-0.64h-0.61V22.58z"/>
	<path fill="#282525" d="M41.86,20.32c0-0.76,0.38-1.1,1.07-1.1c0.74,0,1.03,0.44,1.03,0.94v2.19c0,0.17,0.06,0.3,0.2,0.3
		c0.03,0,0.09-0.01,0.12-0.01v0.39c-0.03,0.02-0.13,0.04-0.22,0.04c-0.32,0-0.49-0.04-0.57-0.54h-0.01c-0.13,0.33-0.47,0.6-0.82,0.6
		c-0.65,0-0.95-0.35-0.95-1.02c0-0.66,0.28-0.9,0.92-1.15c0.24-0.09,0.6-0.25,0.66-0.28c0.13-0.06,0.14-0.25,0.14-0.44
		c0-0.42-0.14-0.58-0.56-0.58c-0.4,0-0.54,0.22-0.54,0.65H41.86z M42.26,22.08c0,0.33,0.14,0.57,0.49,0.57
		c0.55,0,0.68-0.37,0.68-0.75v-0.9C42.89,21.33,42.26,21.37,42.26,22.08z"/>
	<path fill="#282525" d="M45.47,19.74L45.47,19.74c0.17-0.35,0.51-0.51,0.76-0.51c0.94,0,1.21,0.85,1.21,1.89
		c0,1.13-0.25,2.01-1.18,2.01c-0.38,0-0.6-0.18-0.8-0.48v1.67h-0.53v-5h0.53V19.74z M45.47,21.17c0,0.71,0.04,1.51,0.71,1.51
		c0.55,0,0.72-0.57,0.72-1.57c0-0.49-0.06-1.44-0.73-1.44C45.52,19.67,45.47,20.52,45.47,21.17z"/>
	<path fill="#282525" d="M50.8,21.17c0,1.51-0.51,1.96-1.33,1.96c-0.8,0-1.33-0.44-1.33-1.96c0-1.24,0.41-1.94,1.33-1.94
		S50.8,19.92,50.8,21.17z M48.69,21.21c0,0.88,0.17,1.47,0.78,1.47c0.62,0,0.78-0.59,0.78-1.47c0-1.12-0.22-1.55-0.78-1.55
		C48.91,19.67,48.69,20.09,48.69,21.21z"/>
	<path fill="#282525" d="M51.63,19.32h1.2c0.56,0,1,0.34,1,0.88c0,0.48-0.24,0.79-0.58,0.88v0.01c0.41,0.1,0.67,0.41,0.67,0.92
		c0,0.64-0.43,1.01-0.92,1.01h-1.38V19.32z M52.16,20.85h0.56c0.4,0,0.58-0.16,0.58-0.56c0-0.36-0.18-0.53-0.56-0.53h-0.58V20.85z
		 M52.16,22.58h0.62c0.49,0,0.61-0.21,0.61-0.65c0-0.43-0.22-0.64-0.62-0.64h-0.61V22.58z"/>
	<path fill="#282525" d="M56.96,19.32v2.82c0,0.13-0.03,0.31-0.06,0.44h0.01c0.04-0.17,0.08-0.36,0.11-0.44l1.23-2.82h0.64v3.71
		h-0.53v-2.81c0-0.1,0.03-0.34,0.06-0.46h-0.01c-0.02,0.13-0.08,0.4-0.11,0.46l-1.23,2.81h-0.64v-3.71H56.96z"/>
	<path fill="#282525" d="M59.64,20.31c0.03-0.58,0.46-1.09,1.13-1.09c0.63,0,1.1,0.4,1.1,0.93c0,0.5-0.28,0.8-0.66,0.91v0.01
		c0.35,0.07,0.76,0.35,0.76,0.95c0,0.65-0.45,1.1-1.17,1.1c-0.77,0-1.15-0.4-1.21-1.26h0.49c0.06,0.63,0.26,0.82,0.69,0.82
		c0.4,0,0.67-0.18,0.67-0.69c0-0.4-0.22-0.69-0.62-0.69h-0.29v-0.44h0.28c0.3,0,0.54-0.23,0.54-0.61c0-0.29-0.17-0.58-0.59-0.58
		c-0.42,0-0.61,0.29-0.63,0.65H59.64z"/>
	<path fill="#282525" d="M65,19.32v2.82c0,0.13-0.03,0.31-0.06,0.44h0.01c0.03-0.17,0.08-0.36,0.11-0.44l1.23-2.82h0.64v3.71H66.4
		v-2.81c0-0.1,0.03-0.34,0.06-0.46h-0.01c-0.02,0.13-0.08,0.4-0.11,0.46l-1.23,2.81h-0.64v-3.71H65z"/>
	<path fill="#282525" d="M68.43,20.85h1.31v-1.53h0.53v3.71h-0.53V21.3h-1.31v1.73H67.9v-3.71h0.53V20.85z"/>
	<path fill="#282525" d="M71.83,23.03v-3.26h-0.97v-0.44h2.46v0.44h-0.97v3.26H71.83z"/>
	<path fill="#282525" d="M76.11,21.79c0,0.73-0.34,1.33-1.12,1.33s-1.23-0.47-1.23-1.96c0-0.93,0.21-1.94,1.19-1.94
		c1.05,0,1.16,1.1,1.16,2.08h-1.8c0,0.85,0.05,1.38,0.67,1.38c0.51,0,0.6-0.47,0.6-0.89H76.11z M75.57,20.85
		c0-0.56-0.08-1.19-0.6-1.19c-0.58,0-0.65,0.69-0.65,1.19H75.57z"/>
	<path fill="#282525" d="M77.48,19.74L77.48,19.74c0.17-0.35,0.51-0.51,0.76-0.51c0.94,0,1.21,0.85,1.21,1.89
		c0,1.13-0.25,2.01-1.18,2.01c-0.38,0-0.6-0.18-0.8-0.48v1.67h-0.53v-5h0.53V19.74z M77.48,21.17c0,0.71,0.04,1.51,0.71,1.51
		c0.55,0,0.72-0.57,0.72-1.57c0-0.49-0.06-1.44-0.73-1.44C77.53,19.67,77.48,20.52,77.48,21.17z"/>
	<path fill="#282525" d="M80.82,20.85h1.31v-1.53h0.53v3.71h-0.53V21.3h-1.31v1.73h-0.53v-3.71h0.53V20.85z"/>
	<path fill="#282525" d="M85.84,21.79c0,0.73-0.34,1.33-1.12,1.33s-1.23-0.47-1.23-1.96c0-0.93,0.21-1.94,1.19-1.94
		c1.05,0,1.16,1.1,1.16,2.08h-1.8c0,0.85,0.05,1.38,0.67,1.38c0.51,0,0.6-0.47,0.6-0.89H85.84z M85.3,20.85
		c0-0.56-0.08-1.19-0.6-1.19c-0.58,0-0.65,0.69-0.65,1.19H85.3z"/>
	<path fill="#282525" d="M87.26,23.03v-3.26h-0.97v-0.44h2.46v0.44h-0.96v3.26H87.26z"/>
	<path fill="#282525" d="M90.88,21.1v0.47h-1.74V21.1H90.88z"/>
	<path fill="#282525" d="M92.48,19.32l0.67,2.44c0.05,0.17,0.09,0.5,0.13,0.75h0.01c0.04-0.25,0.07-0.55,0.13-0.75l0.67-2.44h0.82
		v3.71h-0.51v-3.26H94.4l-0.94,3.26h-0.35l-0.93-3.26h-0.01v3.26h-0.51v-3.71H92.48z"/>
	<path fill="#282525" d="M95.83,20.32c0-0.76,0.38-1.1,1.07-1.1c0.74,0,1.03,0.44,1.03,0.94v2.19c0,0.17,0.06,0.3,0.2,0.3
		c0.04,0,0.09-0.01,0.12-0.01v0.39c-0.04,0.02-0.13,0.04-0.22,0.04c-0.32,0-0.49-0.04-0.57-0.54h-0.01c-0.13,0.33-0.46,0.6-0.82,0.6
		c-0.65,0-0.95-0.35-0.95-1.02c0-0.66,0.28-0.9,0.92-1.15c0.24-0.09,0.6-0.25,0.66-0.28c0.13-0.06,0.14-0.25,0.14-0.44
		c0-0.42-0.14-0.58-0.56-0.58c-0.4,0-0.54,0.22-0.54,0.65H95.83z M96.23,22.08c0,0.33,0.14,0.57,0.49,0.57
		c0.55,0,0.68-0.37,0.68-0.75v-0.9C96.85,21.33,96.23,21.37,96.23,22.08z"/>
	<path fill="#282525" d="M100.86,19.32v0.44h-1.43v3.26h-0.53v-3.71H100.86z"/>
	<path fill="#282525" d="M101.39,20.32c0-0.76,0.38-1.1,1.07-1.1c0.74,0,1.03,0.44,1.03,0.94v2.19c0,0.17,0.06,0.3,0.2,0.3
		c0.04,0,0.09-0.01,0.12-0.01v0.39c-0.04,0.02-0.13,0.04-0.22,0.04c-0.32,0-0.49-0.04-0.57-0.54h-0.01c-0.13,0.33-0.46,0.6-0.82,0.6
		c-0.65,0-0.95-0.35-0.95-1.02c0-0.66,0.28-0.9,0.92-1.15c0.24-0.09,0.6-0.25,0.66-0.28c0.13-0.06,0.14-0.25,0.14-0.44
		c0-0.42-0.14-0.58-0.56-0.58c-0.4,0-0.54,0.22-0.54,0.65H101.39z M101.79,22.08c0,0.33,0.14,0.57,0.49,0.57
		c0.55,0,0.68-0.37,0.68-0.75v-0.9C102.41,21.33,101.79,21.37,101.79,22.08z"/>
	<path fill="#282525" d="M104.24,20.31c0.03-0.58,0.46-1.09,1.13-1.09c0.63,0,1.1,0.4,1.1,0.93c0,0.5-0.28,0.8-0.66,0.91v0.01
		c0.35,0.07,0.76,0.35,0.76,0.95c0,0.65-0.45,1.1-1.17,1.1c-0.77,0-1.15-0.4-1.21-1.26h0.49c0.06,0.63,0.26,0.82,0.69,0.82
		c0.4,0,0.67-0.18,0.67-0.69c0-0.4-0.22-0.69-0.62-0.69h-0.29v-0.44h0.29c0.3,0,0.54-0.23,0.54-0.61c0-0.29-0.17-0.58-0.59-0.58
		c-0.42,0-0.61,0.29-0.63,0.65H104.24z"/>
	<path fill="#282525" d="M107.93,19.32v2.82c0,0.13-0.03,0.31-0.06,0.44h0.01c0.04-0.17,0.08-0.36,0.11-0.44l1.23-2.82h0.64v3.71
		h-0.53v-2.81c0-0.1,0.04-0.34,0.06-0.46h-0.01c-0.02,0.13-0.08,0.4-0.11,0.46l-1.23,2.81h-0.64v-3.71H107.93z"/>
	<path fill="#282525" d="M111.37,20.85h1.31v-1.53h0.53v3.71h-0.53V21.3h-1.31v1.73h-0.53v-3.71h0.53V20.85z"/>
	<path fill="#282525" d="M114.12,20.32c0-0.76,0.38-1.1,1.07-1.1c0.74,0,1.03,0.44,1.03,0.94v2.19c0,0.17,0.06,0.3,0.2,0.3
		c0.04,0,0.09-0.01,0.12-0.01v0.39c-0.04,0.02-0.13,0.04-0.22,0.04c-0.32,0-0.49-0.04-0.57-0.54h-0.01c-0.13,0.33-0.46,0.6-0.82,0.6
		c-0.65,0-0.95-0.35-0.95-1.02c0-0.66,0.28-0.9,0.92-1.15c0.24-0.09,0.6-0.25,0.66-0.28c0.13-0.06,0.14-0.25,0.14-0.44
		c0-0.42-0.14-0.58-0.56-0.58c-0.4,0-0.54,0.22-0.54,0.65H114.12z M114.52,22.08c0,0.33,0.14,0.57,0.49,0.57
		c0.55,0,0.68-0.37,0.68-0.75v-0.9C115.15,21.33,114.52,21.37,114.52,22.08z"/>
	<path fill="#282525" d="M120.71,19.33h0.53v3.69c0,0.91-0.51,1.28-1.31,1.28c-0.59,0-1.03-0.28-1.1-0.91h0.51
		c0.04,0.33,0.25,0.46,0.56,0.46c0.59,0,0.81-0.22,0.81-0.91V22.6h-0.05c-0.22,0.38-0.44,0.53-0.78,0.53
		c-0.83,0-1.15-0.62-1.15-1.96c0-0.87,0.15-1.94,1.14-1.94c0.34,0,0.65,0.17,0.83,0.52h0.01V19.33z M119.27,21.17
		c0,0.71,0.04,1.51,0.71,1.51c0.55,0,0.72-0.57,0.72-1.57c0-0.49-0.06-1.44-0.73-1.44C119.33,19.67,119.27,20.52,119.27,21.17z"/>
	<path fill="#282525" d="M122.21,18.7v-0.67h0.53v0.67H122.21z M122.74,23.03h-0.53v-3.71h0.53V23.03z"/>
	<path fill="#282525" d="M124.24,19.73L124.24,19.73c0.22-0.31,0.53-0.51,0.92-0.51c0.55,0,0.92,0.29,0.92,0.94v2.86h-0.53v-2.71
		c0-0.38-0.13-0.65-0.56-0.65c-0.45,0-0.76,0.35-0.76,0.8v2.56h-0.53v-3.71h0.53V19.73z"/>
	<path fill="#282525" d="M128.89,19.33h0.53v3.69c0,0.91-0.51,1.28-1.31,1.28c-0.59,0-1.03-0.28-1.1-0.91h0.51
		c0.04,0.33,0.25,0.46,0.56,0.46c0.59,0,0.81-0.22,0.81-0.91V22.6h-0.05c-0.22,0.38-0.44,0.53-0.78,0.53
		c-0.83,0-1.15-0.62-1.15-1.96c0-0.87,0.15-1.94,1.14-1.94c0.34,0,0.65,0.17,0.83,0.52h0.01V19.33z M127.46,21.17
		c0,0.71,0.04,1.51,0.71,1.51c0.55,0,0.72-0.57,0.72-1.57c0-0.49-0.06-1.44-0.73-1.44C127.52,19.67,127.46,20.52,127.46,21.17z"/>
	<path fill="#282525" d="M130.33,20.32c0-0.76,0.38-1.1,1.07-1.1c0.74,0,1.03,0.44,1.03,0.94v2.19c0,0.17,0.06,0.3,0.2,0.3
		c0.04,0,0.09-0.01,0.12-0.01v0.39c-0.04,0.02-0.13,0.04-0.22,0.04c-0.32,0-0.49-0.04-0.57-0.54h-0.01c-0.13,0.33-0.46,0.6-0.82,0.6
		c-0.65,0-0.95-0.35-0.95-1.02c0-0.66,0.28-0.9,0.92-1.15c0.24-0.09,0.6-0.25,0.66-0.28c0.13-0.06,0.14-0.25,0.14-0.44
		c0-0.42-0.14-0.58-0.56-0.58c-0.4,0-0.54,0.22-0.54,0.65H130.33z M130.74,22.08c0,0.33,0.14,0.57,0.49,0.57
		c0.55,0,0.68-0.37,0.68-0.75v-0.9C131.36,21.33,130.74,21.37,130.74,22.08z"/>
	<path fill="#282525" d="M133.94,19.92L133.94,19.92c0.2-0.44,0.46-0.65,0.93-0.65c0.05,0,0.09,0.01,0.15,0.01v0.51
		c-0.08-0.01-0.15-0.02-0.22-0.02c-0.54,0-0.85,0.4-0.85,1v2.25h-0.53v-3.71h0.53V19.92z"/>
	<path fill="#282525" d="M136.23,22.36v0.67h-0.6v-0.67H136.23z"/>
	<path fill="#282525" d="M139.62,18.03v5h-0.53v-0.46h-0.01c-0.23,0.44-0.44,0.56-0.89,0.56c-0.92,0-1.08-0.97-1.08-2.04
		s0.36-1.86,1.11-1.86c0.38,0,0.6,0.16,0.85,0.48h0.01v-1.67H139.62z M137.66,21.17c0,0.71,0.04,1.51,0.71,1.51
		c0.55,0,0.72-0.57,0.72-1.57c0-0.49-0.06-1.44-0.73-1.44C137.71,19.67,137.66,20.52,137.66,21.17z"/>
	<path fill="#282525" d="M142.8,21.79c0,0.73-0.34,1.33-1.12,1.33s-1.23-0.47-1.23-1.96c0-0.93,0.21-1.94,1.19-1.94
		c1.05,0,1.16,1.1,1.16,2.08H141c0,0.85,0.05,1.38,0.67,1.38c0.51,0,0.6-0.47,0.6-0.89H142.8z M142.25,20.85
		c0-0.56-0.08-1.19-0.6-1.19c-0.58,0-0.65,0.69-0.65,1.19H142.25z"/>
</g>
<g>
	<path fill="#282525" d="M16.21,1.36v3.29h-1.18C14.84,3.96,14.6,3.41,14.31,3c-0.29-0.4-0.63-0.7-1.02-0.87s-0.85-0.26-1.4-0.26
		c-0.82,0-1.54,0.27-2.18,0.81s-1.14,1.36-1.5,2.44c-0.36,1.09-0.55,2.4-0.55,3.94c0,1.55,0.15,2.87,0.45,3.97
		c0.3,1.1,0.74,1.92,1.33,2.48c0.58,0.56,1.31,0.84,2.16,0.84c0.65,0,1.18-0.09,1.59-0.28c0.41-0.19,0.76-0.48,1.04-0.88
		c0.28-0.4,0.55-1,0.8-1.78h1.18v3.4c-0.74,0.19-1.51,0.35-2.28,0.44c-0.78,0.1-1.64,0.15-2.57,0.15c-2.01,0-3.53-0.68-4.56-2.04
		C5.77,14,5.26,11.97,5.26,9.27c0-1.69,0.27-3.18,0.8-4.45c0.53-1.27,1.32-2.26,2.35-2.95c1.04-0.69,2.27-1.04,3.72-1.04
		c0.72,0,1.38,0.04,1.99,0.11C14.72,1.01,15.42,1.15,16.21,1.36z"/>
	<path fill="#282525" d="M26.96,17.21v-0.58c0.4-0.08,0.69-0.17,0.88-0.26s0.34-0.23,0.43-0.4s0.14-0.4,0.14-0.68
		c0-0.27-0.03-0.56-0.1-0.87c-0.06-0.31-0.15-0.66-0.27-1.05l-0.43-1.54h-5.53l-0.4,1.16c-0.21,0.58-0.34,1.03-0.4,1.33
		c-0.06,0.3-0.09,0.57-0.09,0.82c0,0.48,0.12,0.82,0.36,1.04c0.24,0.22,0.61,0.37,1.11,0.44v0.58H17.6v-0.58
		c0.44-0.07,0.83-0.33,1.16-0.77c0.33-0.44,0.65-1.08,0.96-1.9l4.92-13.13h1.88l4.03,13.23c0.19,0.62,0.36,1.09,0.5,1.41
		c0.15,0.32,0.32,0.58,0.53,0.76s0.49,0.31,0.84,0.4v0.58L26.96,17.21L26.96,17.21z M22.4,10.8h4.96l-2.25-7.65L22.4,10.8z"/>
	<path fill="#282525" d="M32.01,1.02h12.84v4.13h-1.16c-0.17-0.68-0.35-1.22-0.52-1.61c-0.17-0.4-0.35-0.69-0.54-0.9
		s-0.4-0.35-0.61-0.44c-0.22-0.09-0.54-0.13-0.98-0.13h-1.51v12.15c0,0.47,0.03,0.84,0.08,1.11c0.05,0.28,0.13,0.5,0.24,0.66
		c0.11,0.16,0.25,0.29,0.43,0.38c0.18,0.09,0.47,0.18,0.85,0.27v0.58h-5.42v-0.58c0.24-0.06,0.45-0.11,0.63-0.18
		c0.18-0.06,0.33-0.14,0.44-0.23c0.11-0.09,0.21-0.21,0.29-0.35c0.08-0.14,0.13-0.34,0.18-0.58c0.04-0.25,0.06-0.6,0.06-1.08V2.06
		h-1.49c-0.37,0-0.68,0.04-0.92,0.1c-0.24,0.06-0.46,0.22-0.67,0.44c-0.21,0.23-0.39,0.54-0.56,0.96s-0.33,0.94-0.48,1.57h-1.18
		L32.01,1.02L32.01,1.02z"/>
	<path fill="#282525" d="M53.15,17.21v-0.58c0.4-0.08,0.69-0.17,0.89-0.26c0.19-0.09,0.34-0.23,0.43-0.4
		c0.09-0.17,0.14-0.4,0.14-0.68c0-0.27-0.03-0.56-0.09-0.87c-0.06-0.31-0.15-0.66-0.27-1.05l-0.44-1.54h-5.53l-0.4,1.16
		c-0.21,0.58-0.34,1.03-0.4,1.33c-0.06,0.3-0.09,0.57-0.09,0.82c0,0.48,0.12,0.82,0.36,1.04c0.24,0.22,0.61,0.37,1.11,0.44v0.58
		h-5.07v-0.58c0.44-0.07,0.83-0.33,1.16-0.77c0.33-0.44,0.65-1.08,0.96-1.9l4.93-13.13h1.88l4.03,13.23
		c0.19,0.62,0.36,1.09,0.5,1.41c0.15,0.32,0.32,0.58,0.53,0.76s0.49,0.31,0.84,0.4v0.58L53.15,17.21L53.15,17.21L53.15,17.21z
		 M48.6,10.8h4.96l-2.25-7.65L48.6,10.8z"/>
	<path fill="#282525" d="M63.89,16.12H67c0.34,0,0.63-0.02,0.85-0.06c0.23-0.04,0.42-0.1,0.59-0.19s0.31-0.2,0.44-0.35
		c0.13-0.15,0.25-0.34,0.37-0.57c0.12-0.24,0.23-0.54,0.34-0.9c0.11-0.36,0.24-0.9,0.4-1.62h1.2l-0.24,4.77H60.28v-0.58
		c0.49-0.13,0.82-0.27,0.99-0.42s0.28-0.37,0.33-0.66c0.05-0.28,0.08-0.72,0.08-1.31V3.98c0-0.55-0.02-0.94-0.06-1.19
		s-0.1-0.44-0.19-0.58c-0.1-0.14-0.22-0.25-0.37-0.34c-0.15-0.09-0.41-0.18-0.77-0.28V1.02h5V1.6c-0.35,0.1-0.59,0.18-0.74,0.26
		c-0.15,0.07-0.27,0.17-0.36,0.3c-0.09,0.13-0.17,0.32-0.21,0.58C63.93,3,63.91,3.42,63.91,3.99L63.89,16.12L63.89,16.12z"/>
	<path fill="#282525" d="M79.47,17.4c-0.95,0-1.81-0.16-2.59-0.47c-0.78-0.31-1.45-0.8-2.01-1.46c-0.56-0.66-0.99-1.51-1.29-2.53
		c-0.31-1.03-0.46-2.26-0.46-3.69c0-1.77,0.27-3.28,0.81-4.54c0.54-1.27,1.31-2.23,2.31-2.89c1-0.66,2.16-0.99,3.48-0.99
		c1.41,0,2.59,0.31,3.56,0.93c0.96,0.62,1.69,1.53,2.17,2.74s0.73,2.68,0.73,4.41c0,1.85-0.28,3.41-0.83,4.69
		c-0.55,1.27-1.34,2.23-2.34,2.86C81.99,17.09,80.82,17.4,79.47,17.4z M75.57,8.92c0,2.43,0.35,4.27,1.06,5.54
		c0.71,1.27,1.74,1.9,3.1,1.9c0.86,0,1.6-0.27,2.19-0.82c0.6-0.55,1.05-1.35,1.35-2.42c0.3-1.06,0.45-2.3,0.45-3.71
		c0-1.73-0.18-3.15-0.53-4.29c-0.35-1.13-0.83-1.96-1.44-2.47c-0.61-0.52-1.32-0.77-2.13-0.77c-0.71,0-1.32,0.17-1.83,0.5
		s-0.93,0.81-1.27,1.42c-0.34,0.61-0.58,1.36-0.74,2.23C75.64,6.88,75.57,7.85,75.57,8.92z"/>
	<path fill="#282525" d="M100.38,17.15l-0.93,0.25l-0.86-0.92c-0.52,0.31-1.05,0.55-1.61,0.7c-0.56,0.15-1.21,0.23-1.94,0.23
		c-2,0-3.51-0.69-4.52-2.06C89.51,13.98,89,11.94,89,9.24c0-1.69,0.27-3.16,0.83-4.44c0.55-1.27,1.35-2.25,2.39-2.94
		c1.04-0.69,2.25-1.03,3.65-1.03c0.74,0,1.44,0.04,2.13,0.13c0.68,0.08,1.44,0.23,2.27,0.43v3.27H99.1
		c-0.21-0.71-0.47-1.27-0.76-1.67c-0.29-0.4-0.64-0.69-1.05-0.85c-0.41-0.17-0.92-0.26-1.55-0.26c-0.86,0-1.62,0.28-2.27,0.83
		c-0.65,0.56-1.15,1.37-1.52,2.45c-0.36,1.08-0.54,2.38-0.54,3.91c0,1.55,0.15,2.88,0.46,3.97c0.31,1.1,0.76,1.93,1.36,2.49
		c0.6,0.56,1.34,0.84,2.22,0.84c0.94,0,1.63-0.2,2.08-0.61c0.45-0.41,0.68-1.03,0.68-1.88v-0.73c0-0.71-0.04-1.23-0.11-1.54
		c-0.07-0.31-0.21-0.56-0.4-0.73c-0.19-0.18-0.5-0.31-0.94-0.43V9.87h4.79v0.58c-0.28,0.1-0.5,0.2-0.64,0.33
		c-0.14,0.12-0.25,0.27-0.33,0.46c-0.08,0.19-0.13,0.41-0.15,0.67c-0.03,0.27-0.04,0.64-0.04,1.13L100.38,17.15L100.38,17.15
		L100.38,17.15z"/>
	<path fill="#282525" d="M107.48,14.24c0,0.53,0.02,0.92,0.06,1.16c0.03,0.25,0.1,0.44,0.18,0.58c0.08,0.14,0.21,0.26,0.37,0.35
		c0.16,0.1,0.42,0.19,0.79,0.28v0.58h-5.01v-0.58c0.49-0.13,0.82-0.27,0.99-0.42c0.17-0.15,0.27-0.37,0.33-0.66
		c0.05-0.28,0.08-0.72,0.08-1.31V3.98c0-0.55-0.02-0.94-0.06-1.19s-0.1-0.44-0.19-0.58c-0.1-0.14-0.21-0.25-0.36-0.33
		c-0.15-0.08-0.41-0.18-0.77-0.28V1.02h5.01V1.6c-0.35,0.09-0.6,0.17-0.76,0.26c-0.15,0.09-0.27,0.2-0.37,0.33
		c-0.09,0.13-0.16,0.32-0.2,0.59c-0.04,0.26-0.06,0.67-0.06,1.21L107.48,14.24L107.48,14.24z"/>
	<path fill="#282525" d="M114,14.46v2.75h-2.4v-2.75H114z"/>
	<path fill="#282525" d="M120.35,10.18v4.03c0,0.57,0.02,0.98,0.06,1.24s0.11,0.45,0.19,0.58c0.09,0.13,0.21,0.24,0.36,0.32
		s0.41,0.18,0.77,0.28v0.58h-5.01v-0.59c0.49-0.13,0.82-0.27,0.98-0.42c0.17-0.15,0.27-0.37,0.32-0.66
		c0.05-0.28,0.08-0.72,0.08-1.31V3.98c0-0.55-0.02-0.94-0.06-1.19s-0.1-0.44-0.19-0.58c-0.09-0.14-0.21-0.25-0.36-0.33
		c-0.15-0.08-0.41-0.18-0.77-0.28V1.02h5.87c1.85,0,3.23,0.34,4.15,1.01c0.92,0.67,1.38,1.72,1.38,3.13c0,1.08-0.3,2.01-0.9,2.77
		c-0.6,0.76-1.49,1.35-2.69,1.78V9.8c0.48,0.2,0.9,0.48,1.24,0.85s0.73,0.94,1.15,1.71l1.07,1.94c0.31,0.57,0.57,1.01,0.79,1.31
		c0.22,0.3,0.44,0.53,0.68,0.69c0.23,0.16,0.53,0.27,0.91,0.33v0.58h-3.29c-0.3-0.42-0.59-0.87-0.85-1.35
		c-0.27-0.48-0.53-0.97-0.79-1.47l-1.04-1.98c-0.31-0.6-0.57-1.04-0.77-1.33c-0.2-0.28-0.39-0.48-0.56-0.6
		c-0.17-0.12-0.35-0.19-0.54-0.24c-0.19-0.04-0.48-0.06-0.87-0.06H120.35L120.35,10.18L120.35,10.18L120.35,10.18z M120.35,2.11
		v7.05h1.34c0.69,0,1.25-0.05,1.67-0.15c0.43-0.1,0.82-0.29,1.19-0.56c0.37-0.27,0.65-0.66,0.87-1.16c0.22-0.49,0.33-1.1,0.33-1.82
		c0-0.75-0.13-1.38-0.39-1.88s-0.65-0.88-1.17-1.14c-0.52-0.26-1.23-0.39-2.11-0.39C121.37,2.06,120.79,2.07,120.35,2.11z"/>
	<path fill="#282525" d="M143.19,11.61c0,0.86-0.08,1.6-0.23,2.23c-0.15,0.6-0.38,1.12-0.68,1.58c-0.27,0.41-0.62,0.76-1.03,1.05
		c-0.41,0.29-0.91,0.52-1.49,0.68c-0.58,0.16-1.27,0.25-2.06,0.25c-0.96,0-1.77-0.1-2.46-0.32c-0.68-0.21-1.25-0.56-1.69-1.05
		c-0.45-0.48-0.77-1.06-0.97-1.72c-0.2-0.66-0.3-1.5-0.3-2.52V3.98c0-0.62-0.02-1.03-0.06-1.25c-0.04-0.22-0.1-0.39-0.17-0.52
		s-0.19-0.23-0.32-0.33c-0.15-0.09-0.41-0.19-0.8-0.29V1.01h4.98v0.58c-0.44,0.11-0.75,0.23-0.93,0.37
		c-0.17,0.14-0.29,0.35-0.35,0.62c-0.06,0.28-0.1,0.74-0.1,1.39v8.4c0,0.77,0.08,1.41,0.24,1.94c0.16,0.52,0.39,0.93,0.68,1.22
		c0.29,0.29,0.64,0.5,1.04,0.63c0.4,0.13,0.9,0.19,1.51,0.19c0.56,0,1.04-0.1,1.46-0.29c0.42-0.19,0.77-0.49,1.05-0.88
		c0.28-0.4,0.47-0.88,0.57-1.46c0.1-0.58,0.15-1.35,0.15-2.33V3.97c0-0.69-0.03-1.16-0.1-1.41s-0.18-0.45-0.33-0.58
		s-0.48-0.26-0.96-0.39V1.01h4.73v0.58c-0.46,0.12-0.77,0.25-0.94,0.39s-0.29,0.35-0.35,0.62c-0.06,0.27-0.1,0.73-0.1,1.38
		L143.19,11.61L143.19,11.61z"/>
</g>
</svg>
