<?xml version="1.0" encoding="utf-8"?>
<!-- Generator: Adobe Illustrator 17.0.0, SVG Export Plug-In . SVG Version: 6.00 Build 0)  -->
<!DOCTYPE svg PUBLIC "-//W3C//DTD SVG 1.1//EN" "http://www.w3.org/Graphics/SVG/1.1/DTD/svg11.dtd">
<svg version="1.1" id="Ebene_1" xmlns="http://www.w3.org/2000/svg" xmlns:xlink="http://www.w3.org/1999/xlink" x="0px" y="0px"
	 width="162px" height="17px" viewBox="0 0 162 17" enable-background="new 0 0 162 17" xml:space="preserve">
<g>
	<path fill="#000000" d="M4.249,12.999c0,2.7,0.2,3,2.25,3.275v0.35H0v-0.35c2.05-0.275,2.25-0.575,2.25-3.275V4.001
		c0-2.7-0.2-3-2.25-3.275v-0.35h6.499v0.35c-2.05,0.275-2.25,0.575-2.25,3.275V12.999z"/>
	<path fill="#000000" d="M11.224,0.376l6.149,12.973l6.099-12.973h3.825v0.35c-2.175,0.3-2.325,0.525-2.25,3.275l0.225,8.999
		c0.075,2.775,0.15,2.975,2.35,3.275v0.35h-6.524v-0.35c2.1-0.3,2.175-0.5,2.15-3.275l-0.1-10.324h-0.1l-6.299,13.673h-0.275
		L10.449,3.101h-0.05L10.174,10c-0.1,2.6,0,3.975,0.125,4.749c0.15,0.925,0.75,1.275,2.375,1.525v0.35H6.798v-0.35
		c1.4-0.225,1.9-0.6,2.15-1.525c0.2-0.775,0.4-2.275,0.525-4.749l0.25-5.249c0.15-3.325,0-3.725-2.35-4.025v-0.35
		C7.373,0.376,11.224,0.376,11.224,0.376z"/>
	<path fill="#000000" d="M32.47,12.999c0,2.7,0.2,3,2.625,3.275v0.35h-6.874v-0.35c2.05-0.275,2.25-0.575,2.25-3.275V4.001
		c0-2.7-0.2-3-2.125-3.275v-0.35h6.199c1.675,0,3.125,0.275,4.174,1.05c0.975,0.7,1.575,1.85,1.575,3.425
		c0,2.975-2.475,4.724-4.874,5.024c-0.4,0.05-0.825,0.05-1.025,0.05l-1.925-0.5V12.999z M32.47,8.9
		c0.325,0.125,0.9,0.275,1.825,0.275c1.675,0,3.7-0.9,3.7-4.249c0-2.875-1.525-4.05-4.074-4.05c-0.675,0-1.025,0.05-1.225,0.125
		c-0.15,0.05-0.225,0.175-0.225,0.675C32.47,1.676,32.47,8.9,32.47,8.9z"/>
	<path fill="#000000" d="M45.293,12.999c0,2.7,0.2,3,2.25,3.275v0.35h-6.499v-0.35c2.1-0.275,2.3-0.575,2.3-3.275V4.001
		c0-2.7-0.2-3-2.2-3.275v-0.35h6.224c1.575,0,2.975,0.225,3.925,0.85c1,0.625,1.65,1.75,1.65,3.2c0,2-1.275,3.55-3.375,4.399
		c0.425,0.75,1.45,2.45,2.2,3.55c0.825,1.2,1.5,2.05,2.25,2.925c0.7,0.8,1.1,1.05,1.85,1.2l-0.025,0.3c-0.3,0-0.725-0.025-1.5-0.1
		c-1.6-0.175-2.5-0.675-3.525-2.125c-1-1.425-1.875-3.025-2.625-4.274c-0.45-0.75-0.925-0.925-1.8-0.925h-1.1
		C45.293,9.375,45.293,12.999,45.293,12.999z M45.293,8.875h1.175c1.175,0,2.15-0.125,2.85-0.65c1.075-0.85,1.45-2.075,1.45-3.45
		c0-2.75-1.825-3.9-3.9-3.9c-0.8,0-1.15,0.05-1.35,0.125c-0.15,0.05-0.225,0.175-0.225,0.675V8.875z"/>
	<path fill="#000000" d="M57.891,4.001c0-2.7-0.2-3-2.2-3.275v-0.35H66.54c0.025,0.425,0.15,2.25,0.275,3.65L66.44,4.101
		c-0.35-1.25-0.775-1.9-1.125-2.3C64.94,1.376,64.19,0.926,62.29,0.926h-1.65c-0.7,0-0.75,0.05-0.75,0.75v6.099h2.525
		c2.15,0,2.225-0.25,2.725-2.1h0.375v4.949H65.14c-0.25-0.95-0.4-1.475-0.75-1.75c-0.35-0.3-0.9-0.35-1.975-0.35h-2.525v4.799
		c0,1.425,0.15,2.025,0.575,2.35c0.525,0.4,1.425,0.4,2.6,0.4c1.425,0,2.6-0.4,3.15-1c0.425-0.45,0.875-1.3,1.45-2.45l0.375,0.075
		c-0.125,0.7-0.675,3.25-0.875,3.925H55.441v-0.35c2.25-0.275,2.45-0.575,2.45-3.275V4.001z"/>
	<path fill="#000000" d="M68.89,12.2c0.475,1.15,1.875,4.124,4.624,4.124c1.9,0,3.125-1.125,3.125-3.2
		c0-2.525-2.025-3.325-3.375-4.025c-0.975-0.5-4.124-1.65-4.124-4.524c0-2.425,1.825-4.574,5.074-4.574c1.425,0,2.25,0.4,3,0.575
		c0.1,0.875,0.25,1.875,0.45,3.4l-0.375,0.075c-0.55-1.525-1.3-3.45-3.625-3.45c-1.925,0-2.8,1.3-2.8,2.875
		c0,1.85,1.425,2.75,3.325,3.625c1.85,0.825,4.249,1.9,4.249,4.874c0,2.8-2.35,4.974-5.499,5.024c-0.9-0.05-1.75-0.225-2.35-0.425
		c-0.625-0.2-1.05-0.4-1.325-0.525c-0.225-0.65-0.5-2.425-0.75-3.75L68.89,12.2z"/>
	<path fill="#000000" d="M79.713,12.2c0.475,1.15,1.875,4.124,4.624,4.124c1.9,0,3.125-1.125,3.125-3.2
		c0-2.525-2.025-3.325-3.375-4.025c-0.975-0.5-4.124-1.65-4.124-4.524c0-2.425,1.825-4.574,5.074-4.574c1.425,0,2.25,0.4,3,0.575
		c0.1,0.875,0.25,1.875,0.45,3.4l-0.375,0.075c-0.55-1.525-1.3-3.45-3.625-3.45c-1.925,0-2.8,1.3-2.8,2.875
		c0,1.85,1.425,2.75,3.325,3.625c1.85,0.825,4.249,1.9,4.249,4.874c0,2.8-2.35,4.974-5.499,5.024c-0.9-0.05-1.75-0.225-2.35-0.425
		c-0.625-0.2-1.05-0.4-1.325-0.525c-0.225-0.65-0.5-2.425-0.75-3.75L79.713,12.2z"/>
	<path fill="#000000" d="M94.285,12.999c0,2.7,0.2,3,2.25,3.275v0.35h-6.499v-0.35c2.05-0.275,2.25-0.575,2.25-3.275V4.001
		c0-2.7-0.2-3-2.25-3.275v-0.35h6.499v0.35c-2.05,0.275-2.25,0.575-2.25,3.275V12.999z"/>
	<path fill="#000000" d="M106.059,0.001c4.274,0,7.874,3.35,7.874,8.249c0,5.224-3.6,8.749-8.374,8.749
		c-4.749,0-8.049-3.6-8.049-8.274C97.51,4.475,100.36,0.001,106.059,0.001z M106.109,16.449c2.975,0,5.424-2.6,5.424-7.249
		c0-5.449-2.525-8.649-6.174-8.649c-2.925,0-5.449,2.675-5.449,7.449C99.91,12.824,102.359,16.449,106.109,16.449z"/>
	<path fill="#000000" d="M129.455,16.799h-0.4L117.881,3.226h-0.05V10c0,2.625,0.175,3.975,0.325,4.749
		c0.175,0.875,0.85,1.325,2.5,1.525v0.35h-6.024v-0.35c1.375-0.175,2.025-0.65,2.2-1.525c0.15-0.775,0.325-2.125,0.325-4.749V4.625
		c0-2.125-0.025-2.275-0.475-2.825c-0.475-0.575-1.15-0.875-2.225-1.075v-0.35h3.625l10.649,12.798h0.05V7
		c0-2.625-0.175-3.975-0.325-4.749c-0.175-0.875-0.85-1.325-2.5-1.525v-0.35h6.024v0.35c-1.375,0.175-2.025,0.65-2.2,1.525
		c-0.15,0.775-0.325,2.125-0.325,4.749V16.799z"/>
	<path fill="#000000" d="M134.429,4.001c0-2.7-0.2-3-2.2-3.275v-0.35h10.849c0.025,0.425,0.15,2.25,0.275,3.65l-0.375,0.075
		c-0.35-1.25-0.775-1.9-1.125-2.3c-0.375-0.425-1.125-0.875-3.025-0.875h-1.65c-0.7,0-0.75,0.05-0.75,0.75v6.099h2.525
		c2.15,0,2.225-0.25,2.725-2.1h0.375v4.949h-0.375c-0.25-0.95-0.4-1.475-0.75-1.75c-0.35-0.3-0.9-0.35-1.975-0.35h-2.525v4.799
		c0,1.425,0.15,2.025,0.575,2.35c0.525,0.4,1.425,0.4,2.6,0.4c1.425,0,2.6-0.4,3.15-1c0.425-0.45,0.875-1.3,1.45-2.45l0.375,0.075
		c-0.125,0.7-0.675,3.25-0.875,3.925H131.98v-0.35c2.25-0.275,2.45-0.575,2.45-3.275V4.001z"/>
	<path fill="#000000" d="M159.475,16.799h-0.4L147.902,3.226h-0.05V10c0,2.625,0.175,3.975,0.325,4.749
		c0.175,0.875,0.85,1.325,2.5,1.525v0.35h-6.024v-0.35c1.375-0.175,2.025-0.65,2.2-1.525c0.15-0.775,0.325-2.125,0.325-4.749V4.625
		c0-2.125-0.025-2.275-0.475-2.825c-0.475-0.575-1.15-0.875-2.225-1.075v-0.35h3.625l10.649,12.798h0.05V7
		c0-2.625-0.175-3.975-0.325-4.749c-0.175-0.875-0.85-1.325-2.5-1.525v-0.35H162v0.35c-1.375,0.175-2.025,0.65-2.2,1.525
		c-0.15,0.775-0.325,2.125-0.325,4.749L159.475,16.799L159.475,16.799z"/>
</g>
</svg>
