<?xml version="1.0" encoding="utf-8"?>
<!-- Generator: Adobe Illustrator 13.0.0, SVG Export Plug-In . SVG Version: 6.00 Build 14948)  -->
<!DOCTYPE svg PUBLIC "-//W3C//DTD SVG 1.1//EN" "http://www.w3.org/Graphics/SVG/1.1/DTD/svg11.dtd">
<svg version="1.1" id="Ebene_1" xmlns="http://www.w3.org/2000/svg" xmlns:xlink="http://www.w3.org/1999/xlink" x="0px" y="0px"
	 width="139.539px" height="23.639px" viewBox="10.488 0 139.539 23.639" enable-background="new 10.488 0 139.539 23.639"
	 xml:space="preserve">
<g>
	<path d="M10.963,0.813V4.1H9.788c-0.19-0.688-0.431-1.236-0.724-1.645C8.771,2.049,8.431,1.758,8.043,1.584
		c-0.388-0.174-0.854-0.261-1.4-0.261c-0.815,0-1.541,0.271-2.177,0.813C3.829,2.678,3.328,3.493,2.965,4.58
		C2.601,5.668,2.419,6.983,2.419,8.525c0,1.551,0.15,2.873,0.451,3.969c0.301,1.096,0.744,1.923,1.329,2.48s1.305,0.836,2.159,0.836
		c0.649,0,1.179-0.094,1.59-0.278c0.411-0.187,0.757-0.479,1.038-0.885c0.281-0.403,0.548-0.996,0.801-1.779h1.175v3.395
		c-0.744,0.196-1.505,0.346-2.284,0.444c-0.779,0.1-1.636,0.147-2.569,0.147c-2.009,0-3.528-0.681-4.556-2.04
		c-1.028-1.361-1.542-3.391-1.542-6.087c0-1.693,0.267-3.176,0.801-4.45c0.534-1.273,1.319-2.258,2.355-2.954
		c1.036-0.696,2.274-1.044,3.714-1.044c0.72,0,1.384,0.038,1.993,0.113C9.483,0.467,10.179,0.607,10.963,0.813z"/>
	<path d="M21.713,16.665v-0.581c0.396-0.079,0.69-0.166,0.884-0.262c0.194-0.095,0.338-0.227,0.433-0.397
		c0.095-0.17,0.143-0.396,0.143-0.682c0-0.27-0.032-0.56-0.095-0.872s-0.154-0.663-0.273-1.051l-0.439-1.53h-5.529l-0.404,1.163
		c-0.206,0.585-0.34,1.028-0.403,1.329c-0.063,0.3-0.095,0.573-0.095,0.818c0,0.475,0.121,0.821,0.362,1.044
		c0.241,0.222,0.611,0.368,1.109,0.438v0.581H12.34v-0.581c0.443-0.07,0.829-0.328,1.157-0.771c0.328-0.443,0.646-1.076,0.955-1.898
		L19.4,0.279h1.875l4.034,13.229c0.19,0.617,0.358,1.089,0.504,1.412c0.146,0.324,0.322,0.577,0.528,0.761
		c0.206,0.182,0.487,0.315,0.843,0.402v0.581H21.713z M17.157,10.258h4.959l-2.254-7.652L17.157,10.258z"/>
	<path d="M26.767,0.469h12.838v4.129h-1.162c-0.174-0.682-0.346-1.219-0.516-1.614c-0.17-0.396-0.35-0.696-0.54-0.902
		s-0.394-0.352-0.611-0.438c-0.217-0.087-0.544-0.131-0.979-0.131H34.29v12.149c0,0.467,0.026,0.839,0.077,1.115
		c0.051,0.277,0.13,0.497,0.237,0.658c0.107,0.163,0.251,0.289,0.433,0.38s0.467,0.181,0.854,0.268v0.581h-5.422v-0.581
		c0.237-0.056,0.447-0.114,0.628-0.179c0.182-0.063,0.331-0.14,0.445-0.231c0.114-0.091,0.209-0.207,0.285-0.35
		s0.134-0.336,0.178-0.581s0.065-0.604,0.065-1.08V1.513h-1.495c-0.372,0-0.678,0.035-0.919,0.106
		c-0.241,0.071-0.465,0.22-0.67,0.445c-0.205,0.225-0.393,0.545-0.563,0.961c-0.17,0.415-0.331,0.938-0.48,1.572h-1.175
		L26.767,0.469L26.767,0.469z"/>
	<path d="M47.911,16.665v-0.581c0.396-0.079,0.69-0.166,0.884-0.262c0.194-0.095,0.338-0.227,0.433-0.397
		c0.095-0.17,0.143-0.396,0.143-0.682c0-0.27-0.032-0.56-0.095-0.872s-0.154-0.663-0.273-1.051l-0.439-1.53h-5.529l-0.404,1.163
		c-0.206,0.585-0.34,1.028-0.403,1.329c-0.063,0.3-0.095,0.573-0.095,0.818c0,0.475,0.121,0.821,0.362,1.044
		c0.241,0.222,0.611,0.368,1.109,0.438v0.581h-5.066v-0.581c0.443-0.07,0.829-0.328,1.157-0.771
		c0.328-0.443,0.646-1.076,0.955-1.898l4.948-13.135h1.875l4.034,13.229c0.19,0.617,0.358,1.089,0.504,1.412
		c0.146,0.324,0.322,0.577,0.528,0.761c0.206,0.182,0.487,0.315,0.843,0.402v0.581H47.911z M43.355,10.258h4.959L46.06,2.605
		L43.355,10.258z"/>
	<path d="M58.65,15.573h3.107c0.34,0,0.625-0.02,0.854-0.06c0.229-0.039,0.425-0.102,0.587-0.185s0.309-0.197,0.439-0.344
		c0.129-0.147,0.254-0.339,0.373-0.576s0.231-0.535,0.338-0.896c0.107-0.359,0.24-0.899,0.397-1.619h1.198l-0.237,4.77H55.042
		v-0.581c0.491-0.127,0.819-0.268,0.985-0.422s0.275-0.373,0.327-0.658c0.051-0.284,0.077-0.72,0.077-1.306V3.435
		c0-0.546-0.02-0.943-0.059-1.192S56.266,1.8,56.176,1.661c-0.091-0.138-0.212-0.249-0.362-0.332
		c-0.15-0.083-0.408-0.176-0.771-0.279v-0.58h4.996v0.58c-0.348,0.096-0.595,0.181-0.742,0.256C59.15,1.38,59.03,1.481,58.935,1.608
		c-0.095,0.126-0.166,0.32-0.214,0.582c-0.047,0.261-0.071,0.676-0.071,1.246V15.573z"/>
	<path d="M74.229,16.854c-0.948,0-1.813-0.156-2.592-0.469s-1.447-0.8-2.006-1.459c-0.558-0.66-0.988-1.506-1.293-2.533
		c-0.306-1.028-0.457-2.26-0.457-3.69c0-1.764,0.269-3.278,0.807-4.544c0.537-1.265,1.307-2.229,2.308-2.889
		c1-0.66,2.161-0.991,3.481-0.991c1.408,0,2.594,0.311,3.555,0.932s1.686,1.535,2.171,2.741c0.485,1.207,0.729,2.676,0.729,4.408
		c0,1.851-0.276,3.413-0.83,4.687c-0.555,1.274-1.336,2.228-2.344,2.859C76.751,16.539,75.574,16.854,74.229,16.854z M70.325,8.371
		c0,2.429,0.354,4.275,1.063,5.541c0.709,1.267,1.742,1.898,3.103,1.898c0.862,0,1.594-0.274,2.194-0.824
		c0.602-0.55,1.053-1.354,1.354-2.415c0.301-1.06,0.451-2.298,0.451-3.714c0-1.725-0.178-3.154-0.527-4.289
		c-0.354-1.135-0.834-1.96-1.441-2.474c-0.609-0.515-1.317-0.771-2.125-0.771c-0.711,0-1.322,0.166-1.832,0.498
		c-0.512,0.333-0.934,0.805-1.27,1.418c-0.338,0.613-0.582,1.355-0.736,2.225C70.402,6.334,70.325,7.303,70.325,8.371z"/>
	<path d="M95.137,16.605l-0.927,0.249l-0.866-0.925c-0.514,0.315-1.052,0.55-1.612,0.699c-0.562,0.149-1.207,0.226-1.935,0.226
		c-2.002,0-3.509-0.687-4.521-2.06c-1.014-1.372-1.52-3.411-1.52-6.115c0-1.686,0.276-3.164,0.83-4.438
		c0.555-1.274,1.35-2.252,2.387-2.937c1.035-0.685,2.254-1.026,3.653-1.026c0.735,0,1.443,0.042,2.124,0.125
		c0.68,0.083,1.436,0.228,2.266,0.433V4.1h-1.174c-0.213-0.712-0.468-1.269-0.76-1.667c-0.293-0.399-0.643-0.685-1.05-0.854
		c-0.408-0.17-0.924-0.255-1.549-0.255c-0.862,0-1.618,0.277-2.267,0.831c-0.649,0.554-1.152,1.37-1.514,2.45
		c-0.359,1.08-0.54,2.383-0.54,3.91c0,1.551,0.152,2.875,0.457,3.975c0.306,1.1,0.759,1.929,1.358,2.486
		c0.602,0.558,1.341,0.836,2.219,0.836c0.934,0,1.626-0.203,2.077-0.611c0.45-0.407,0.676-1.034,0.676-1.88v-0.712
		c0-0.712-0.037-1.228-0.112-1.543c-0.074-0.316-0.207-0.563-0.396-0.735c-0.19-0.174-0.504-0.315-0.938-0.428V9.32h4.793v0.581
		c-0.285,0.096-0.498,0.204-0.642,0.327c-0.142,0.122-0.251,0.273-0.326,0.456s-0.126,0.405-0.153,0.671
		c-0.027,0.265-0.041,0.643-0.041,1.133v4.117H95.137z"/>
	<path d="M102.243,13.698c0,0.53,0.019,0.918,0.054,1.163s0.096,0.438,0.178,0.582c0.084,0.142,0.205,0.261,0.369,0.354
		c0.16,0.096,0.424,0.189,0.789,0.285v0.581h-5.009v-0.581c0.49-0.127,0.819-0.268,0.985-0.422s0.273-0.373,0.326-0.658
		c0.051-0.284,0.076-0.72,0.076-1.306V3.435c0-0.546-0.021-0.943-0.06-1.192c-0.04-0.249-0.104-0.443-0.194-0.582
		c-0.093-0.138-0.213-0.249-0.363-0.332c-0.149-0.083-0.406-0.176-0.771-0.279v-0.58h5.009v0.58
		c-0.35,0.088-0.601,0.175-0.754,0.262c-0.154,0.087-0.277,0.195-0.369,0.327c-0.09,0.13-0.158,0.325-0.201,0.587
		c-0.043,0.261-0.064,0.665-0.064,1.21L102.243,13.698L102.243,13.698z"/>
	<path d="M108.758,13.912v2.753h-2.396v-2.753H108.758z"/>
	<path d="M115.105,9.629v4.034c0,0.569,0.021,0.983,0.064,1.24c0.043,0.257,0.108,0.45,0.195,0.581s0.206,0.237,0.355,0.32
		c0.15,0.083,0.408,0.176,0.771,0.278v0.581h-5.008v-0.581c0.49-0.127,0.818-0.268,0.984-0.422s0.274-0.373,0.326-0.658
		c0.051-0.284,0.077-0.72,0.077-1.306V3.435c0-0.546-0.021-0.943-0.06-1.192c-0.041-0.249-0.104-0.443-0.195-0.582
		c-0.092-0.138-0.212-0.249-0.361-0.332c-0.15-0.083-0.408-0.176-0.771-0.279v-0.58h5.874c1.851,0,3.233,0.336,4.151,1.009
		s1.377,1.716,1.377,3.132c0,1.084-0.299,2.005-0.896,2.765c-0.598,0.761-1.493,1.354-2.688,1.78V9.25
		c0.481,0.198,0.896,0.48,1.239,0.85c0.345,0.367,0.726,0.938,1.146,1.715l1.068,1.944c0.309,0.569,0.572,1.006,0.795,1.307
		c0.222,0.301,0.445,0.529,0.676,0.688c0.229,0.159,0.533,0.271,0.914,0.333v0.581h-3.287c-0.301-0.419-0.586-0.87-0.854-1.353
		c-0.271-0.482-0.534-0.974-0.795-1.473l-1.045-1.98c-0.315-0.601-0.575-1.044-0.776-1.329c-0.201-0.284-0.388-0.484-0.559-0.599
		c-0.17-0.115-0.352-0.194-0.545-0.237c-0.193-0.044-0.484-0.065-0.873-0.065h-1.301V9.629z M115.105,1.561v7.048h1.341
		c0.688,0,1.246-0.049,1.673-0.148c0.428-0.099,0.822-0.287,1.188-0.563c0.365-0.276,0.653-0.663,0.871-1.157
		c0.219-0.494,0.326-1.102,0.326-1.821c0-0.751-0.128-1.376-0.386-1.875c-0.257-0.498-0.646-0.878-1.168-1.139
		s-1.228-0.392-2.112-0.392C116.126,1.513,115.549,1.529,115.105,1.561z"/>
	<path d="M137.946,11.064c0,0.862-0.079,1.605-0.237,2.229c-0.15,0.595-0.376,1.12-0.677,1.578
		c-0.276,0.412-0.621,0.762-1.032,1.051c-0.41,0.288-0.908,0.517-1.494,0.683s-1.273,0.249-2.064,0.249
		c-0.957,0-1.777-0.106-2.463-0.32c-0.684-0.213-1.25-0.563-1.695-1.05c-0.447-0.486-0.77-1.061-0.968-1.721
		c-0.197-0.66-0.296-1.501-0.296-2.521V3.435c0-0.617-0.021-1.034-0.061-1.252s-0.097-0.39-0.172-0.517
		c-0.074-0.126-0.186-0.234-0.326-0.326c-0.143-0.091-0.408-0.188-0.795-0.291v-0.58h4.983v0.58
		c-0.443,0.111-0.753,0.235-0.927,0.374c-0.174,0.14-0.293,0.347-0.355,0.623c-0.063,0.277-0.096,0.74-0.096,1.389v8.4
		c0,0.769,0.082,1.412,0.244,1.935c0.162,0.521,0.39,0.928,0.683,1.217c0.292,0.289,0.642,0.498,1.044,0.629
		c0.402,0.13,0.904,0.195,1.507,0.195c0.554,0,1.04-0.098,1.46-0.29c0.42-0.194,0.77-0.489,1.051-0.885
		c0.279-0.396,0.473-0.883,0.574-1.459c0.102-0.577,0.154-1.354,0.154-2.326V3.435c0-0.688-0.033-1.159-0.102-1.412
		c-0.066-0.253-0.178-0.447-0.332-0.581c-0.153-0.135-0.473-0.265-0.955-0.393v-0.58h4.734v0.58
		c-0.459,0.119-0.773,0.249-0.943,0.393c-0.17,0.142-0.287,0.348-0.351,0.617c-0.063,0.269-0.095,0.728-0.095,1.376L137.946,11.064
		L137.946,11.064z"/>
</g>
<g>
	<path d="M1.203,19.764v-1.088h1.804v2.903h0.315v1.292H2.889v-0.896H0.961v0.896H0.528V21.58h0.284
		C1.11,20.962,1.203,20.598,1.203,19.764z M2.537,19.071H1.654v0.945c0,0.674-0.105,1.02-0.358,1.563h1.242L2.537,19.071
		L2.537,19.071z"/>
	<path d="M6.115,20.319c0,1.348-0.458,1.743-1.181,1.743c-0.71,0-1.18-0.396-1.18-1.749c0-1.102,0.365-1.726,1.18-1.726
		C5.75,18.589,6.115,19.213,6.115,20.319z M4.242,20.362c0,0.779,0.148,1.305,0.692,1.305c0.556,0,0.692-0.524,0.692-1.305
		c0-1.001-0.198-1.378-0.692-1.378C4.434,18.984,4.242,19.361,4.242,20.362z"/>
	<path d="M7.221,20.369c0,0.537,0.031,1.298,0.63,1.298c0.506,0,0.556-0.438,0.581-0.841h0.445c0,0.624-0.26,1.236-0.995,1.236
		c-1.007,0-1.149-0.841-1.149-1.693c0-0.872,0.198-1.78,1.143-1.78c0.661,0,1.001,0.508,1.001,1.119H8.432
		c0-0.357-0.117-0.724-0.562-0.724C7.307,18.984,7.221,19.683,7.221,20.369z"/>
	<path d="M10.056,21.976v-2.904H9.191v-0.396h2.194v0.396h-0.859v2.904H10.056z"/>
	<path d="M11.847,19.565c0-0.68,0.333-0.978,0.952-0.978c0.661,0,0.921,0.396,0.921,0.842v1.945c0,0.154,0.056,0.267,0.179,0.267
		c0.031,0,0.08-0.006,0.105-0.013v0.347c-0.031,0.019-0.111,0.037-0.191,0.037c-0.284,0-0.433-0.037-0.507-0.482h-0.012
		c-0.111,0.291-0.414,0.532-0.729,0.532c-0.575,0-0.847-0.311-0.847-0.909c0-0.587,0.247-0.797,0.822-1.021
		c0.216-0.079,0.538-0.223,0.587-0.246c0.117-0.057,0.124-0.224,0.124-0.391c0-0.377-0.124-0.513-0.5-0.513
		c-0.353,0-0.482,0.198-0.482,0.581L11.847,19.565L11.847,19.565z M12.206,21.135c0,0.291,0.124,0.507,0.439,0.507
		c0.488,0,0.605-0.327,0.605-0.667v-0.797C12.762,20.462,12.206,20.499,12.206,21.135z"/>
	<path d="M14.585,18.677h1.069c0.495,0,0.89,0.303,0.89,0.783c0,0.428-0.216,0.705-0.513,0.785v0.013
		c0.364,0.087,0.593,0.364,0.593,0.821c0,0.569-0.383,0.896-0.815,0.896h-1.224V18.677z M15.054,20.041h0.494
		c0.358,0,0.519-0.142,0.519-0.5c0-0.32-0.161-0.47-0.5-0.47h-0.513V20.041z M15.054,21.58h0.55c0.433,0,0.544-0.186,0.544-0.575
		c0-0.383-0.198-0.567-0.55-0.567h-0.544V21.58z"/>
	<path d="M17.834,20.214l1.143-1.537h0.556l-1.02,1.284l1.051,2.016h-0.55l-0.822-1.645l-0.358,0.471v1.174h-0.47v-3.3h0.47V20.214z
		"/>
	<path d="M20.028,19.565c0-0.68,0.333-0.978,0.952-0.978c0.661,0,0.921,0.396,0.921,0.842v1.945c0,0.154,0.056,0.267,0.179,0.267
		c0.031,0,0.08-0.006,0.105-0.013v0.347c-0.031,0.019-0.111,0.037-0.191,0.037c-0.284,0-0.433-0.037-0.507-0.482h-0.012
		c-0.111,0.291-0.414,0.532-0.729,0.532c-0.575,0-0.847-0.311-0.847-0.909c0-0.587,0.248-0.797,0.822-1.021
		c0.216-0.079,0.538-0.223,0.587-0.246c0.117-0.057,0.124-0.224,0.124-0.391c0-0.377-0.124-0.513-0.5-0.513
		c-0.353,0-0.482,0.198-0.482,0.581L20.028,19.565L20.028,19.565z M20.386,21.135c0,0.291,0.124,0.507,0.439,0.507
		c0.488,0,0.605-0.327,0.605-0.667v-0.797C20.942,20.462,20.386,20.499,20.386,21.135z"/>
	<path d="M24.766,21.976v-2.904h-0.865v-0.396h2.194v0.396h-0.859v2.904H24.766z"/>
	<path d="M28.85,20.319c0,1.348-0.457,1.743-1.18,1.743c-0.71,0-1.18-0.396-1.18-1.749c0-1.102,0.365-1.726,1.18-1.726
		C28.486,18.589,28.85,19.213,28.85,20.319z M26.978,20.362c0,0.779,0.148,1.305,0.692,1.305c0.556,0,0.692-0.524,0.692-1.305
		c0-1.001-0.198-1.378-0.692-1.378C27.17,18.984,26.978,19.361,26.978,20.362z"/>
	<path d="M29.591,18.677h1.069c0.495,0,0.89,0.303,0.89,0.783c0,0.428-0.216,0.705-0.513,0.785v0.013
		c0.365,0.087,0.594,0.364,0.594,0.821c0,0.569-0.383,0.896-0.816,0.896h-1.224V18.677z M30.061,20.041h0.494
		c0.358,0,0.519-0.142,0.519-0.5c0-0.32-0.161-0.47-0.5-0.47h-0.513V20.041z M30.061,21.58h0.55c0.433,0,0.544-0.186,0.544-0.575
		c0-0.383-0.198-0.567-0.55-0.567h-0.544V21.58z"/>
	<path d="M32.316,19.565c0-0.68,0.333-0.978,0.952-0.978c0.661,0,0.921,0.396,0.921,0.842v1.945c0,0.154,0.056,0.267,0.179,0.267
		c0.031,0,0.08-0.006,0.105-0.013v0.347c-0.031,0.019-0.111,0.037-0.191,0.037c-0.284,0-0.433-0.037-0.507-0.482h-0.012
		c-0.111,0.291-0.414,0.532-0.729,0.532c-0.575,0-0.847-0.311-0.847-0.909c0-0.587,0.248-0.797,0.822-1.021
		c0.216-0.079,0.538-0.223,0.587-0.246c0.117-0.057,0.124-0.224,0.124-0.391c0-0.377-0.124-0.513-0.5-0.513
		c-0.353,0-0.482,0.198-0.482,0.581L32.316,19.565L32.316,19.565z M32.674,21.135c0,0.291,0.124,0.507,0.439,0.507
		c0.488,0,0.605-0.327,0.605-0.667v-0.797C33.23,20.462,32.674,20.499,32.674,21.135z"/>
	<path d="M35.522,19.046h0.006c0.148-0.309,0.445-0.457,0.674-0.457c0.834,0,1.082,0.762,1.082,1.682
		c0,1.002-0.223,1.793-1.051,1.793c-0.333,0-0.531-0.161-0.71-0.427v1.488h-0.47v-4.448h0.47v0.369H35.522z M35.522,20.319
		c0,0.631,0.037,1.348,0.63,1.348c0.488,0,0.643-0.507,0.643-1.396c0-0.434-0.049-1.285-0.649-1.285
		C35.572,18.984,35.522,19.745,35.522,20.319z"/>
	<path d="M40.262,20.319c0,1.348-0.458,1.743-1.181,1.743c-0.71,0-1.18-0.396-1.18-1.749c0-1.102,0.365-1.726,1.18-1.726
		C39.897,18.589,40.262,19.213,40.262,20.319z M38.389,20.362c0,0.779,0.148,1.305,0.692,1.305c0.556,0,0.692-0.524,0.692-1.305
		c0-1.001-0.198-1.378-0.692-1.378C38.58,18.984,38.389,19.361,38.389,20.362z"/>
	<path d="M41.002,18.677h1.069c0.495,0,0.89,0.303,0.89,0.783c0,0.428-0.216,0.705-0.513,0.785v0.013
		c0.365,0.087,0.594,0.364,0.594,0.821c0,0.569-0.383,0.896-0.816,0.896h-1.224V18.677z M41.472,20.041h0.494
		c0.358,0,0.519-0.142,0.519-0.5c0-0.32-0.161-0.47-0.5-0.47h-0.513V20.041z M41.472,21.58h0.55c0.433,0,0.544-0.186,0.544-0.575
		c0-0.383-0.198-0.567-0.55-0.567h-0.544V21.58z"/>
	<path d="M45.735,18.677v2.509c0,0.117-0.025,0.277-0.049,0.396h0.006c0.031-0.153,0.068-0.32,0.099-0.396l1.094-2.509h0.568v3.3
		h-0.47v-2.503c0-0.094,0.031-0.304,0.05-0.408h-0.006c-0.019,0.111-0.074,0.357-0.099,0.408l-1.094,2.503h-0.568v-3.3H45.735z"/>
	<path d="M48.119,19.56c0.025-0.521,0.408-0.972,1.007-0.972c0.556,0,0.977,0.358,0.977,0.828c0,0.445-0.248,0.717-0.587,0.811
		v0.013c0.309,0.063,0.674,0.309,0.674,0.847c0,0.581-0.402,0.978-1.044,0.978c-0.686,0-1.02-0.354-1.075-1.125h0.433
		c0.049,0.563,0.235,0.729,0.612,0.729c0.358,0,0.599-0.161,0.599-0.611c0-0.354-0.198-0.618-0.55-0.618h-0.26v-0.396h0.253
		c0.266,0,0.482-0.204,0.482-0.544c0-0.259-0.148-0.513-0.525-0.513s-0.544,0.254-0.563,0.575H48.119z"/>
	<path d="M52.883,18.677v2.509c0,0.117-0.025,0.277-0.049,0.396h0.006c0.031-0.153,0.068-0.32,0.099-0.396l1.094-2.509h0.568v3.3
		h-0.47v-2.503c0-0.094,0.031-0.304,0.05-0.408h-0.006c-0.019,0.111-0.074,0.357-0.099,0.408l-1.094,2.503h-0.569v-3.3H52.883z"/>
	<path d="M55.935,20.041h1.168v-1.364h0.47v3.3h-0.47v-1.539h-1.168v1.539h-0.47v-3.3h0.47V20.041z"/>
	<path d="M58.956,21.976v-2.904h-0.865v-0.396h2.194v0.396h-0.859v2.904H58.956z"/>
	<path d="M62.768,20.876c0,0.648-0.303,1.188-0.994,1.188c-0.692,0-1.094-0.414-1.094-1.743c0-0.828,0.186-1.73,1.057-1.73
		c0.934,0,1.031,0.978,1.031,1.849h-1.601c0,0.754,0.043,1.229,0.593,1.229c0.451,0,0.539-0.414,0.539-0.791L62.768,20.876
		L62.768,20.876z M62.28,20.041c0-0.5-0.067-1.057-0.538-1.057c-0.52,0-0.575,0.618-0.575,1.057H62.28z"/>
	<path d="M63.979,19.046h0.007c0.147-0.309,0.444-0.457,0.674-0.457c0.834,0,1.082,0.762,1.082,1.682
		c0,1.002-0.224,1.793-1.051,1.793c-0.333,0-0.531-0.161-0.71-0.427v1.488H63.51v-4.448h0.471v0.369H63.979z M63.979,20.319
		c0,0.631,0.037,1.348,0.631,1.348c0.488,0,0.643-0.507,0.643-1.396c0-0.434-0.049-1.285-0.648-1.285
		C64.028,18.984,63.979,19.745,63.979,20.319z"/>
	<path d="M66.95,20.041h1.168v-1.364h0.47v3.3h-0.47v-1.539H66.95v1.539h-0.47v-3.3h0.47V20.041z"/>
	<path d="M71.418,20.876c0,0.648-0.303,1.188-0.994,1.188c-0.692,0-1.095-0.414-1.095-1.743c0-0.828,0.187-1.73,1.058-1.73
		c0.934,0,1.031,0.978,1.031,1.849h-1.601c0,0.754,0.043,1.229,0.593,1.229c0.451,0,0.538-0.414,0.538-0.791L71.418,20.876
		L71.418,20.876z M70.93,20.041c0-0.5-0.068-1.057-0.539-1.057c-0.519,0-0.574,0.618-0.574,1.057H70.93z"/>
	<path d="M72.678,21.976v-2.904h-0.865v-0.396h2.193v0.396h-0.859v2.904H72.678z"/>
	<path d="M75.896,20.258v0.421h-1.545v-0.421H75.896z"/>
	<path d="M77.318,18.677l0.6,2.175c0.043,0.153,0.08,0.444,0.117,0.668h0.006c0.037-0.224,0.063-0.488,0.111-0.668l0.6-2.175h0.729
		v3.3h-0.45v-2.904h-0.007l-0.834,2.904h-0.315l-0.827-2.904H77.04v2.904h-0.45v-3.3H77.318z"/>
	<path d="M80.289,19.565c0-0.68,0.334-0.978,0.952-0.978c0.661,0,0.92,0.396,0.92,0.842v1.945c0,0.154,0.056,0.267,0.181,0.267
		c0.03,0,0.08-0.006,0.104-0.013v0.347c-0.031,0.019-0.111,0.037-0.192,0.037c-0.283,0-0.433-0.037-0.507-0.482h-0.012
		c-0.111,0.291-0.414,0.532-0.729,0.532c-0.574,0-0.847-0.311-0.847-0.909c0-0.587,0.247-0.797,0.822-1.021
		c0.216-0.079,0.536-0.223,0.587-0.246c0.117-0.057,0.123-0.224,0.123-0.391c0-0.377-0.123-0.513-0.5-0.513
		c-0.354,0-0.482,0.198-0.482,0.581L80.289,19.565L80.289,19.565z M80.646,21.135c0,0.291,0.125,0.507,0.438,0.507
		c0.488,0,0.605-0.327,0.605-0.667v-0.797C81.204,20.462,80.646,20.499,80.646,21.135z"/>
	<path d="M84.77,18.677v0.396h-1.273v2.904h-0.47v-3.3H84.77z"/>
	<path d="M85.231,19.565c0-0.68,0.334-0.978,0.952-0.978c0.66,0,0.92,0.396,0.92,0.842v1.945c0,0.154,0.056,0.267,0.18,0.267
		c0.031,0,0.08-0.006,0.105-0.013v0.347c-0.031,0.019-0.111,0.037-0.192,0.037c-0.284,0-0.433-0.037-0.507-0.482h-0.012
		c-0.111,0.291-0.414,0.532-0.729,0.532c-0.574,0-0.847-0.311-0.847-0.909c0-0.587,0.246-0.797,0.822-1.021
		c0.215-0.079,0.536-0.223,0.586-0.246c0.117-0.057,0.125-0.224,0.125-0.391c0-0.377-0.125-0.513-0.502-0.513
		c-0.353,0-0.481,0.198-0.481,0.581L85.231,19.565L85.231,19.565z M85.59,21.135c0,0.291,0.125,0.507,0.438,0.507
		c0.487,0,0.606-0.327,0.606-0.667v-0.797C86.146,20.462,85.59,20.499,85.59,21.135z"/>
	<path d="M87.77,19.56c0.025-0.521,0.408-0.972,1.009-0.972c0.556,0,0.978,0.358,0.978,0.828c0,0.445-0.248,0.717-0.588,0.811v0.013
		c0.309,0.063,0.674,0.309,0.674,0.847c0,0.581-0.401,0.978-1.045,0.978c-0.686,0-1.02-0.354-1.074-1.125h0.433
		c0.049,0.563,0.233,0.729,0.61,0.729c0.358,0,0.601-0.161,0.601-0.611c0-0.354-0.196-0.618-0.55-0.618h-0.26v-0.396h0.254
		c0.266,0,0.48-0.204,0.48-0.544c0-0.259-0.148-0.513-0.525-0.513s-0.543,0.254-0.563,0.575H87.77z"/>
	<path d="M91.053,18.677v2.509c0,0.117-0.024,0.277-0.051,0.396h0.008c0.029-0.153,0.066-0.32,0.099-0.396l1.094-2.509h0.567v3.3
		h-0.469v-2.503c0-0.094,0.03-0.304,0.049-0.408h-0.006c-0.02,0.111-0.074,0.357-0.1,0.408l-1.094,2.503h-0.568v-3.3H91.053z"/>
	<path d="M94.104,20.041h1.168v-1.364h0.47v3.3h-0.47v-1.539h-1.168v1.539h-0.471v-3.3h0.471V20.041z"/>
	<path d="M96.551,19.565c0-0.68,0.334-0.978,0.951-0.978c0.661,0,0.92,0.396,0.92,0.842v1.945c0,0.154,0.057,0.267,0.18,0.267
		c0.031,0,0.08-0.006,0.105-0.013v0.347c-0.031,0.019-0.111,0.037-0.191,0.037c-0.284,0-0.434-0.037-0.508-0.482h-0.012
		c-0.111,0.291-0.414,0.532-0.729,0.532c-0.574,0-0.848-0.311-0.848-0.909c0-0.587,0.247-0.797,0.822-1.021
		c0.216-0.079,0.537-0.223,0.587-0.246c0.117-0.057,0.124-0.224,0.124-0.391c0-0.377-0.124-0.513-0.501-0.513
		c-0.353,0-0.481,0.198-0.481,0.581L96.551,19.565L96.551,19.565z M96.908,21.135c0,0.291,0.124,0.507,0.438,0.507
		c0.488,0,0.606-0.327,0.606-0.667v-0.797C97.465,20.462,96.908,20.499,96.908,21.135z"/>
	<path d="M100.77,18.119v-0.593h0.47v0.593H100.77z M101.239,21.976h-0.47v-3.3h0.47V21.976z"/>
	<path d="M102.574,19.04h0.006c0.154-0.223,0.421-0.451,0.816-0.451c0.352,0,0.654,0.131,0.771,0.501
		c0.217-0.34,0.543-0.501,0.864-0.501c0.47,0,0.815,0.241,0.815,0.842v2.546h-0.469v-2.373c0-0.371-0.094-0.618-0.494-0.618
		c-0.354,0-0.675,0.241-0.675,0.754v2.237h-0.47V19.56c0-0.348-0.117-0.575-0.507-0.575c-0.327,0-0.661,0.241-0.661,0.754v2.237
		h-0.471v-3.3h0.471v0.363H102.574z"/>
	<path d="M107.182,19.046h0.006c0.148-0.309,0.445-0.457,0.675-0.457c0.834,0,1.081,0.762,1.081,1.682
		c0,1.002-0.223,1.793-1.051,1.793c-0.334,0-0.531-0.161-0.711-0.427v1.488h-0.469v-4.448h0.469V19.046z M107.182,20.319
		c0,0.631,0.037,1.348,0.631,1.348c0.488,0,0.643-0.507,0.643-1.396c0-0.434-0.049-1.285-0.648-1.285
		C107.232,18.984,107.182,19.745,107.182,20.319z"/>
	<path d="M110.154,19.213h0.006c0.173-0.389,0.408-0.581,0.822-0.581c0.043,0,0.08,0.008,0.13,0.014v0.457
		c-0.067-0.013-0.136-0.02-0.198-0.02c-0.48,0-0.76,0.358-0.76,0.892v2.002h-0.471v-3.3h0.471V19.213z"/>
	<path d="M113.577,20.876c0,0.648-0.303,1.188-0.995,1.188c-0.691,0-1.094-0.414-1.094-1.743c0-0.828,0.186-1.73,1.059-1.73
		c0.932,0,1.03,0.978,1.03,1.849h-1.601c0,0.754,0.043,1.229,0.594,1.229c0.451,0,0.537-0.414,0.537-0.791L113.577,20.876
		L113.577,20.876z M113.09,20.041c0-0.5-0.068-1.057-0.537-1.057c-0.521,0-0.576,0.618-0.576,1.057H113.09z"/>
	<path d="M115.696,19.56c0-0.391-0.147-0.575-0.524-0.575c-0.334,0-0.471,0.21-0.471,0.507c0,0.358,0.241,0.477,0.594,0.6
		c0.488,0.174,0.977,0.384,0.977,0.988c0,0.631-0.396,0.983-1.094,0.983c-0.761,0-1.025-0.34-1.025-1.051h0.445
		c0,0.426,0.129,0.654,0.556,0.654c0.384,0,0.631-0.154,0.631-0.557c0-0.42-0.414-0.501-0.754-0.644
		c-0.515-0.217-0.804-0.433-0.804-0.958c0-0.567,0.363-0.921,0.934-0.921c0.624,0,0.994,0.341,0.994,0.972L115.696,19.56
		L115.696,19.56z"/>
	<path d="M118.328,19.56c0-0.391-0.148-0.575-0.525-0.575c-0.332,0-0.47,0.21-0.47,0.507c0,0.358,0.241,0.477,0.595,0.6
		c0.487,0.174,0.977,0.384,0.977,0.988c0,0.631-0.396,0.983-1.094,0.983c-0.762,0-1.026-0.34-1.026-1.051h0.444
		c0,0.426,0.131,0.654,0.557,0.654c0.385,0,0.631-0.154,0.631-0.557c0-0.42-0.414-0.501-0.754-0.644
		c-0.514-0.217-0.804-0.433-0.804-0.958c0-0.567,0.364-0.921,0.934-0.921c0.624,0,0.994,0.341,0.994,0.972L118.328,19.56
		L118.328,19.56z"/>
	<path d="M119.582,18.119v-0.593h0.471v0.593H119.582z M120.053,21.976h-0.471v-3.3h0.471V21.976z"/>
	<path d="M123.153,20.319c0,1.348-0.458,1.743-1.181,1.743c-0.711,0-1.182-0.396-1.182-1.749c0-1.102,0.365-1.726,1.182-1.726
		C122.788,18.588,123.153,19.213,123.153,20.319z M121.28,20.362c0,0.779,0.147,1.305,0.692,1.305c0.557,0,0.691-0.524,0.691-1.305
		c0-1.001-0.197-1.378-0.691-1.378C121.473,18.984,121.28,19.361,121.28,20.362z"/>
	<path d="M124.364,19.04h0.006c0.19-0.271,0.464-0.451,0.815-0.451c0.494,0,0.815,0.261,0.815,0.842v2.546h-0.47V19.56
		c0-0.34-0.111-0.575-0.494-0.575c-0.402,0-0.674,0.314-0.674,0.711v2.28h-0.471v-3.3h0.471L124.364,19.04L124.364,19.04z"/>
	<path d="M128.831,20.876c0,0.648-0.303,1.188-0.995,1.188c-0.691,0-1.094-0.414-1.094-1.743c0-0.828,0.186-1.73,1.059-1.73
		c0.933,0,1.03,0.978,1.03,1.849h-1.601c0,0.754,0.044,1.229,0.594,1.229c0.451,0,0.537-0.414,0.537-0.791L128.831,20.876
		L128.831,20.876z M128.344,20.041c0-0.5-0.067-1.057-0.537-1.057c-0.521,0-0.575,0.618-0.575,1.057H128.344z"/>
	<path d="M130.042,19.04h0.007c0.19-0.271,0.463-0.451,0.815-0.451c0.494,0,0.815,0.261,0.815,0.842v2.546h-0.471V19.56
		c0-0.34-0.111-0.575-0.494-0.575c-0.402,0-0.674,0.314-0.674,0.711v2.28h-0.47v-3.3h0.47L130.042,19.04L130.042,19.04z"/>
	<path d="M133.125,21.383v0.594h-0.537v-0.594H133.125z"/>
	<path d="M136.135,17.526v4.449h-0.471v-0.408h-0.006c-0.204,0.396-0.396,0.495-0.791,0.495c-0.816,0-0.965-0.859-0.965-1.817
		s0.32-1.656,0.988-1.656c0.341,0,0.537,0.144,0.761,0.428h0.013v-1.489L136.135,17.526L136.135,17.526z M134.391,20.319
		c0,0.631,0.037,1.348,0.631,1.348c0.488,0,0.643-0.507,0.643-1.396c0-0.434-0.05-1.285-0.648-1.285
		C134.44,18.984,134.391,19.745,134.391,20.319z"/>
	<path d="M138.963,20.876c0,0.648-0.303,1.188-0.994,1.188s-1.095-0.414-1.095-1.743c0-0.828,0.187-1.73,1.058-1.73
		c0.934,0,1.031,0.978,1.031,1.849h-1.601c0,0.754,0.044,1.229,0.594,1.229c0.451,0,0.537-0.414,0.537-0.791L138.963,20.876
		L138.963,20.876z M138.475,20.041c0-0.5-0.067-1.057-0.537-1.057c-0.521,0-0.575,0.618-0.575,1.057H138.475z"/>
</g>
</svg>
