<?xml version="1.0" encoding="utf-8"?>
<!-- Generator: Adobe Illustrator 13.0.0, SVG Export Plug-In . SVG Version: 6.00 Build 14948)  -->
<!DOCTYPE svg PUBLIC "-//W3C//DTD SVG 1.1//EN" "http://www.w3.org/Graphics/SVG/1.1/DTD/svg11.dtd">
<svg version="1.1" id="Ebene_1" xmlns="http://www.w3.org/2000/svg" xmlns:xlink="http://www.w3.org/1999/xlink" x="0px" y="0px"
	 width="141.732px" height="25.512px" viewBox="-90.231 112.926 141.732 25.512"
	 enable-background="new -90.231 112.926 141.732 25.512" xml:space="preserve">
<g>
	<path d="M11.638,2.339v3.287h-1.176c-0.189-0.688-0.431-1.236-0.724-1.646C9.446,3.575,9.106,3.284,8.718,3.11
		C8.33,2.936,7.864,2.847,7.318,2.847c-0.815,0-1.541,0.271-2.177,0.813C4.504,4.203,4.003,5.018,3.64,6.105
		c-0.364,1.088-0.546,2.402-0.546,3.944c0,1.553,0.149,2.873,0.45,3.971c0.302,1.097,0.744,1.923,1.329,2.479
		s1.306,0.836,2.159,0.836c0.649,0,1.179-0.094,1.59-0.278c0.411-0.187,0.757-0.479,1.038-0.885
		c0.281-0.401,0.548-0.996,0.801-1.777h1.176v3.396c-0.744,0.195-1.506,0.346-2.284,0.443c-0.779,0.101-1.637,0.146-2.569,0.146
		c-2.009,0-3.528-0.681-4.556-2.04c-1.028-1.359-1.542-3.391-1.542-6.087c0-1.691,0.267-3.176,0.801-4.45
		c0.534-1.271,1.319-2.258,2.354-2.954c1.036-0.693,2.274-1.044,3.715-1.044c0.72,0,1.384,0.038,1.992,0.113
		C10.158,1.993,10.854,2.133,11.638,2.339z"/>
	<path d="M22.388,18.192v-0.581c0.396-0.078,0.689-0.166,0.884-0.264c0.193-0.095,0.338-0.227,0.433-0.396
		c0.095-0.17,0.144-0.396,0.144-0.683c0-0.271-0.032-0.562-0.096-0.872c-0.063-0.313-0.153-0.663-0.272-1.053l-0.439-1.528h-5.528
		l-0.404,1.163c-0.206,0.585-0.34,1.026-0.403,1.327c-0.063,0.302-0.095,0.573-0.095,0.818c0,0.477,0.121,0.82,0.362,1.044
		c0.24,0.224,0.61,0.368,1.108,0.438v0.581h-5.065v-0.581c0.442-0.069,0.829-0.328,1.156-0.771c0.328-0.441,0.646-1.076,0.955-1.896
		l4.948-13.135h1.875l4.034,13.229c0.189,0.616,0.357,1.089,0.504,1.411c0.146,0.324,0.322,0.577,0.528,0.762
		c0.206,0.182,0.486,0.314,0.843,0.401v0.581L22.388,18.192L22.388,18.192z M17.832,11.784h4.959l-2.254-7.652L17.832,11.784z"/>
	<path d="M27.442,1.995H40.28v4.129h-1.162c-0.174-0.683-0.346-1.219-0.516-1.614s-0.351-0.694-0.54-0.9
		c-0.19-0.206-0.395-0.354-0.611-0.438c-0.217-0.087-0.544-0.131-0.979-0.131h-1.508V15.19c0,0.468,0.026,0.839,0.077,1.113
		c0.051,0.277,0.13,0.497,0.237,0.658c0.107,0.163,0.251,0.289,0.433,0.38c0.183,0.091,0.468,0.183,0.854,0.27v0.581h-5.422v-0.581
		c0.236-0.058,0.446-0.113,0.628-0.181c0.182-0.063,0.331-0.14,0.444-0.229c0.114-0.09,0.209-0.207,0.285-0.353
		c0.076-0.143,0.135-0.336,0.179-0.579c0.044-0.245,0.064-0.604,0.064-1.08V3.04H31.25c-0.372,0-0.678,0.035-0.919,0.105
		c-0.241,0.069-0.465,0.221-0.67,0.443c-0.205,0.227-0.393,0.545-0.563,0.961c-0.17,0.415-0.331,0.938-0.48,1.572h-1.175
		L27.442,1.995L27.442,1.995z"/>
	<path d="M48.586,18.192v-0.581c0.396-0.078,0.69-0.166,0.885-0.264c0.193-0.095,0.338-0.227,0.433-0.396s0.143-0.396,0.143-0.683
		c0-0.271-0.031-0.562-0.095-0.872c-0.063-0.313-0.154-0.663-0.272-1.053l-0.439-1.528H43.71l-0.403,1.163
		c-0.206,0.585-0.341,1.026-0.403,1.327c-0.063,0.302-0.095,0.573-0.095,0.818c0,0.477,0.121,0.82,0.361,1.044
		c0.241,0.224,0.611,0.368,1.109,0.438v0.581h-5.066v-0.581c0.443-0.069,0.829-0.328,1.157-0.771
		c0.328-0.441,0.646-1.076,0.955-1.896l4.948-13.137h1.875l4.034,13.229c0.189,0.616,0.357,1.089,0.504,1.411
		c0.146,0.324,0.321,0.577,0.527,0.762c0.206,0.182,0.487,0.314,0.844,0.401v0.581h-5.472V18.192L48.586,18.192z M44.03,11.784
		h4.959l-2.254-7.653L44.03,11.784z"/>
	<path d="M59.325,17.099h3.107c0.34,0,0.625-0.02,0.854-0.06c0.229-0.039,0.425-0.103,0.587-0.186s0.31-0.196,0.439-0.346
		c0.129-0.146,0.254-0.339,0.373-0.574c0.119-0.236,0.23-0.535,0.338-0.896c0.106-0.359,0.24-0.899,0.396-1.619h1.198l-0.237,4.771
		H55.717v-0.581c0.491-0.127,0.819-0.27,0.985-0.422c0.166-0.153,0.275-0.373,0.327-0.658c0.051-0.283,0.077-0.722,0.077-1.308V4.96
		c0-0.546-0.021-0.941-0.06-1.19s-0.105-0.443-0.195-0.583c-0.091-0.14-0.212-0.249-0.362-0.332s-0.408-0.178-0.771-0.278v-0.58
		h4.996v0.58c-0.348,0.096-0.595,0.181-0.741,0.256c-0.147,0.074-0.268,0.175-0.362,0.302c-0.095,0.126-0.166,0.32-0.214,0.582
		c-0.047,0.263-0.071,0.678-0.071,1.246V17.099z"/>
	<path d="M74.904,18.38c-0.947,0-1.813-0.156-2.592-0.469c-0.779-0.313-1.447-0.801-2.006-1.459
		c-0.559-0.66-0.988-1.506-1.293-2.533c-0.307-1.028-0.457-2.26-0.457-3.688c0-1.766,0.269-3.277,0.807-4.544
		C69.9,4.42,70.67,3.458,71.672,2.796c1-0.66,2.16-0.991,3.479-0.991c1.407,0,2.594,0.313,3.556,0.935
		c0.961,0.62,1.687,1.534,2.172,2.74c0.483,1.207,0.729,2.677,0.729,4.406c0,1.854-0.275,3.413-0.83,4.688
		c-0.555,1.271-1.336,2.228-2.344,2.856C77.425,18.066,76.249,18.38,74.904,18.38z M71,9.898c0,2.43,0.354,4.273,1.063,5.541
		s1.741,1.896,3.103,1.896c0.862,0,1.595-0.272,2.194-0.824c0.603-0.55,1.053-1.354,1.354-2.415c0.302-1.06,0.451-2.298,0.451-3.714
		c0-1.725-0.179-3.152-0.526-4.289c-0.354-1.135-0.834-1.96-1.441-2.474c-0.607-0.516-1.316-0.771-2.125-0.771
		c-0.711,0-1.32,0.166-1.832,0.498c-0.512,0.333-0.934,0.807-1.27,1.418c-0.339,0.613-0.583,1.355-0.736,2.228
		C71.077,7.861,71,8.829,71,9.898z"/>
	<path d="M95.812,18.131l-0.929,0.249l-0.864-0.925c-0.515,0.314-1.054,0.55-1.611,0.698c-0.563,0.147-1.207,0.227-1.936,0.227
		c-2.002,0-3.511-0.688-4.521-2.061c-1.014-1.371-1.52-3.41-1.52-6.114c0-1.687,0.274-3.164,0.83-4.438
		c0.555-1.273,1.35-2.254,2.387-2.938c1.035-0.686,2.254-1.026,3.651-1.026c0.735,0,1.442,0.042,2.125,0.125
		c0.681,0.083,1.437,0.229,2.267,0.435v3.265h-1.174c-0.213-0.712-0.47-1.27-0.761-1.667c-0.293-0.397-0.644-0.686-1.051-0.854
		c-0.408-0.17-0.925-0.257-1.55-0.257c-0.86,0-1.616,0.277-2.267,0.831c-0.649,0.556-1.151,1.37-1.515,2.45
		c-0.358,1.08-0.541,2.383-0.541,3.91c0,1.551,0.152,2.875,0.457,3.975c0.308,1.103,0.76,1.931,1.357,2.486
		c0.604,0.56,1.342,0.836,2.219,0.836c0.937,0,1.627-0.203,2.078-0.609c0.449-0.407,0.676-1.034,0.676-1.882v-0.712
		c0-0.712-0.037-1.228-0.11-1.543c-0.073-0.314-0.207-0.563-0.396-0.733c-0.189-0.176-0.504-0.314-0.938-0.43v-0.582h4.794v0.581
		c-0.284,0.098-0.498,0.204-0.644,0.327c-0.143,0.122-0.252,0.272-0.326,0.456c-0.074,0.185-0.125,0.405-0.151,0.671
		c-0.026,0.267-0.041,0.645-0.041,1.133v4.117H95.812z"/>
	<path d="M102.917,15.224c0,0.53,0.021,0.92,0.056,1.163c0.034,0.245,0.096,0.438,0.178,0.582c0.084,0.144,0.205,0.263,0.369,0.354
		c0.16,0.096,0.424,0.188,0.789,0.284v0.581h-5.011v-0.581c0.489-0.127,0.819-0.27,0.985-0.422c0.166-0.153,0.272-0.373,0.326-0.658
		c0.051-0.283,0.076-0.722,0.076-1.308V4.96c0-0.546-0.021-0.941-0.063-1.19c-0.039-0.249-0.104-0.442-0.192-0.582
		c-0.095-0.14-0.214-0.249-0.362-0.332c-0.149-0.083-0.406-0.178-0.771-0.278V1.996h5.009v0.58
		c-0.351,0.088-0.602,0.175-0.755,0.262c-0.151,0.087-0.274,0.195-0.368,0.327c-0.091,0.13-0.156,0.325-0.199,0.587
		c-0.043,0.261-0.064,0.665-0.064,1.21L102.917,15.224L102.917,15.224z"/>
	<path d="M109.433,15.439v2.753h-2.396v-2.753H109.433z"/>
	<path d="M115.78,11.156v4.033c0,0.567,0.021,0.981,0.063,1.238c0.043,0.259,0.106,0.45,0.192,0.581
		c0.088,0.131,0.207,0.237,0.355,0.32c0.149,0.083,0.407,0.176,0.771,0.277v0.581h-5.008v-0.581c0.49-0.127,0.817-0.27,0.983-0.422
		c0.166-0.153,0.272-0.373,0.325-0.658c0.052-0.283,0.076-0.722,0.076-1.308V4.959c0-0.546-0.021-0.941-0.061-1.19
		c-0.041-0.249-0.104-0.442-0.194-0.582c-0.093-0.14-0.212-0.249-0.36-0.332s-0.407-0.178-0.771-0.278V1.995h5.873
		c1.852,0,3.231,0.336,4.149,1.009c0.919,0.673,1.378,1.716,1.378,3.132c0,1.084-0.3,2.007-0.896,2.767
		c-0.598,0.762-1.493,1.354-2.688,1.778v0.095c0.48,0.196,0.896,0.479,1.239,0.851c0.345,0.367,0.728,0.938,1.146,1.715l1.066,1.944
		c0.311,0.568,0.571,1.006,0.795,1.307c0.223,0.303,0.444,0.529,0.678,0.688c0.229,0.158,0.531,0.271,0.913,0.332v0.581h-3.286
		c-0.302-0.419-0.586-0.869-0.854-1.354c-0.271-0.48-0.533-0.974-0.795-1.473l-1.045-1.98c-0.313-0.601-0.574-1.044-0.774-1.327
		c-0.201-0.284-0.39-0.483-0.561-0.601c-0.17-0.115-0.353-0.194-0.545-0.237c-0.192-0.044-0.483-0.063-0.873-0.063h-1.3v-0.003
		L115.78,11.156L115.78,11.156z M115.78,3.087v7.048h1.34c0.688,0,1.246-0.049,1.675-0.146c0.429-0.102,0.821-0.287,1.188-0.563
		c0.365-0.274,0.652-0.663,0.871-1.155c0.219-0.494,0.326-1.104,0.326-1.82c0-0.751-0.13-1.376-0.388-1.875
		c-0.257-0.498-0.646-0.878-1.168-1.142c-0.521-0.261-1.228-0.392-2.11-0.392C116.8,3.039,116.224,3.055,115.78,3.087z"/>
	<path d="M138.62,12.59c0,0.862-0.077,1.604-0.234,2.229c-0.15,0.596-0.378,1.12-0.679,1.578c-0.274,0.412-0.621,0.763-1.031,1.052
		c-0.409,0.287-0.907,0.517-1.493,0.683s-1.273,0.249-2.064,0.249c-0.957,0-1.775-0.104-2.463-0.318
		c-0.684-0.215-1.25-0.563-1.693-1.052c-0.446-0.484-0.771-1.061-0.969-1.721s-0.297-1.501-0.297-2.521V4.96
		c0-0.617-0.021-1.034-0.061-1.252c-0.041-0.218-0.1-0.391-0.173-0.518c-0.073-0.126-0.187-0.233-0.325-0.325
		c-0.145-0.092-0.408-0.188-0.796-0.291v-0.58h4.981v0.58c-0.442,0.11-0.752,0.234-0.926,0.374c-0.175,0.14-0.293,0.347-0.354,0.622
		c-0.063,0.275-0.097,0.74-0.097,1.39v8.399c0,0.77,0.082,1.412,0.244,1.936c0.162,0.521,0.39,0.928,0.683,1.217
		s0.644,0.498,1.045,0.631c0.401,0.13,0.903,0.193,1.506,0.193c0.556,0,1.041-0.099,1.461-0.29c0.421-0.192,0.771-0.489,1.052-0.885
		c0.278-0.396,0.473-0.884,0.573-1.459c0.103-0.577,0.154-1.354,0.154-2.326V4.96c0-0.688-0.033-1.159-0.103-1.412
		c-0.065-0.253-0.18-0.445-0.332-0.581c-0.154-0.135-0.475-0.265-0.955-0.393v-0.58h4.732v0.58
		c-0.459,0.118-0.771,0.249-0.941,0.393s-0.287,0.35-0.354,0.617c-0.063,0.271-0.096,0.729-0.096,1.376L138.62,12.59L138.62,12.59z"
		/>
</g>
<g>
	<path d="M1.878,21.29v-1.088h1.805v2.902h0.314v1.292H3.564v-0.896H1.636v0.896H1.203v-1.291h0.284
		C1.785,22.489,1.878,22.124,1.878,21.29z M3.212,20.597H2.329v0.945c0,0.674-0.104,1.021-0.357,1.563h1.241L3.212,20.597
		L3.212,20.597z"/>
	<path d="M6.79,21.845c0,1.35-0.458,1.743-1.181,1.743c-0.71,0-1.18-0.396-1.18-1.749c0-1.103,0.364-1.726,1.18-1.726
		C6.425,20.115,6.79,20.74,6.79,21.845z M4.917,21.888c0,0.779,0.148,1.307,0.692,1.307c0.556,0,0.691-0.523,0.691-1.307
		c0-1.001-0.197-1.378-0.691-1.378C5.109,20.51,4.917,20.887,4.917,21.888z"/>
	<path d="M7.896,21.896c0,0.535,0.031,1.298,0.63,1.298c0.506,0,0.556-0.438,0.581-0.841h0.445c0,0.624-0.261,1.234-0.995,1.234
		c-1.008,0-1.149-0.841-1.149-1.691c0-0.872,0.198-1.779,1.143-1.779c0.661,0,1.002,0.508,1.002,1.118H9.107
		c0-0.356-0.117-0.726-0.563-0.726C7.982,20.51,7.896,21.209,7.896,21.896z"/>
	<path d="M10.731,23.502v-2.904H9.866v-0.396h2.194v0.396h-0.859v2.904H10.731z"/>
	<path d="M12.522,21.091c0-0.68,0.333-0.978,0.952-0.978c0.661,0,0.921,0.396,0.921,0.842V22.9c0,0.152,0.056,0.268,0.179,0.268
		c0.031,0,0.08-0.006,0.105-0.014v0.348c-0.031,0.021-0.111,0.037-0.191,0.037c-0.284,0-0.433-0.037-0.507-0.482h-0.012
		c-0.111,0.291-0.414,0.532-0.729,0.532c-0.575,0-0.847-0.312-0.847-0.909c0-0.587,0.247-0.797,0.821-1.021
		c0.217-0.079,0.538-0.224,0.588-0.246c0.116-0.058,0.123-0.225,0.123-0.392c0-0.377-0.123-0.515-0.5-0.515
		c-0.353,0-0.481,0.198-0.481,0.581L12.522,21.091L12.522,21.091z M12.881,22.661c0,0.291,0.124,0.507,0.439,0.507
		c0.488,0,0.604-0.327,0.604-0.667v-0.797C13.437,21.989,12.881,22.026,12.881,22.661z"/>
	<path d="M15.26,20.203h1.068c0.495,0,0.891,0.303,0.891,0.782c0,0.429-0.217,0.705-0.514,0.785v0.014
		c0.364,0.087,0.593,0.363,0.593,0.82c0,0.567-0.383,0.896-0.814,0.896H15.26V20.203z M15.729,21.568h0.494
		c0.357,0,0.519-0.144,0.519-0.5c0-0.319-0.161-0.472-0.5-0.472h-0.513V21.568z M15.729,23.107h0.55
		c0.433,0,0.544-0.188,0.544-0.574c0-0.384-0.198-0.567-0.55-0.567h-0.544V23.107z"/>
	<path d="M18.509,21.74l1.144-1.537h0.556l-1.02,1.283l1.051,2.017h-0.55l-0.822-1.646l-0.358,0.472v1.174h-0.47v-3.3h0.47V21.74z"
		/>
	<path d="M20.703,21.091c0-0.68,0.333-0.978,0.952-0.978c0.661,0,0.921,0.396,0.921,0.842V22.9c0,0.152,0.056,0.268,0.179,0.268
		c0.031,0,0.08-0.006,0.105-0.014v0.348c-0.031,0.021-0.111,0.037-0.191,0.037c-0.283,0-0.433-0.037-0.507-0.482H22.15
		c-0.111,0.291-0.414,0.532-0.729,0.532c-0.574,0-0.847-0.312-0.847-0.909c0-0.587,0.248-0.797,0.822-1.021
		c0.216-0.079,0.538-0.224,0.587-0.246c0.117-0.058,0.124-0.225,0.124-0.392c0-0.377-0.124-0.515-0.5-0.515
		c-0.354,0-0.482,0.198-0.482,0.581L20.703,21.091L20.703,21.091z M21.061,22.661c0,0.291,0.124,0.507,0.438,0.507
		c0.488,0,0.605-0.327,0.605-0.667v-0.797C21.617,21.989,21.061,22.026,21.061,22.661z"/>
	<path d="M25.441,23.502v-2.904h-0.865v-0.396h2.194v0.396h-0.859v2.904H25.441z"/>
	<path d="M29.525,21.845c0,1.35-0.457,1.743-1.18,1.743c-0.71,0-1.181-0.396-1.181-1.749c0-1.103,0.365-1.726,1.181-1.726
		C29.161,20.115,29.525,20.74,29.525,21.845z M27.653,21.888c0,0.779,0.147,1.307,0.692,1.307c0.556,0,0.691-0.523,0.691-1.307
		c0-1.001-0.198-1.378-0.691-1.378C27.845,20.51,27.653,20.887,27.653,21.888z"/>
	<path d="M30.266,20.203h1.068c0.495,0,0.891,0.303,0.891,0.782c0,0.429-0.217,0.705-0.514,0.785v0.014
		c0.365,0.087,0.595,0.363,0.595,0.82c0,0.567-0.384,0.896-0.816,0.896h-1.224V20.203z M30.736,21.568h0.494
		c0.357,0,0.519-0.144,0.519-0.5c0-0.319-0.161-0.472-0.5-0.472h-0.513V21.568z M30.736,23.107h0.55
		c0.434,0,0.544-0.188,0.544-0.574c0-0.384-0.198-0.567-0.55-0.567h-0.544V23.107z"/>
	<path d="M32.991,21.091c0-0.68,0.333-0.978,0.952-0.978c0.661,0,0.921,0.396,0.921,0.842V22.9c0,0.152,0.056,0.268,0.179,0.268
		c0.031,0,0.08-0.006,0.105-0.014v0.348c-0.031,0.021-0.111,0.037-0.191,0.037c-0.284,0-0.433-0.037-0.507-0.482h-0.012
		c-0.111,0.291-0.414,0.532-0.729,0.532c-0.575,0-0.847-0.312-0.847-0.909c0-0.587,0.248-0.797,0.822-1.021
		c0.216-0.079,0.538-0.224,0.587-0.246c0.117-0.058,0.124-0.225,0.124-0.392c0-0.377-0.124-0.515-0.5-0.515
		c-0.354,0-0.482,0.198-0.482,0.581L32.991,21.091L32.991,21.091z M33.349,22.661c0,0.291,0.124,0.507,0.438,0.507
		c0.488,0,0.605-0.327,0.605-0.667v-0.797C33.905,21.989,33.349,22.026,33.349,22.661z"/>
	<path d="M36.197,20.573h0.006c0.148-0.312,0.445-0.457,0.674-0.457c0.834,0,1.082,0.762,1.082,1.682
		c0,1.002-0.223,1.793-1.051,1.793c-0.333,0-0.531-0.161-0.71-0.427v1.487h-0.47v-4.447h0.47L36.197,20.573L36.197,20.573z
		 M36.197,21.845c0,0.633,0.037,1.35,0.63,1.35c0.488,0,0.644-0.507,0.644-1.396c0-0.434-0.05-1.285-0.649-1.285
		C36.247,20.51,36.197,21.272,36.197,21.845z"/>
	<path d="M40.937,21.845c0,1.35-0.458,1.743-1.182,1.743c-0.71,0-1.18-0.396-1.18-1.749c0-1.103,0.365-1.726,1.18-1.726
		C40.572,20.115,40.937,20.74,40.937,21.845z M39.064,21.888c0,0.779,0.147,1.307,0.691,1.307c0.557,0,0.692-0.523,0.692-1.307
		c0-1.001-0.198-1.378-0.692-1.378C39.255,20.51,39.064,20.887,39.064,21.888z"/>
	<path d="M41.677,20.203h1.068c0.495,0,0.891,0.303,0.891,0.782c0,0.429-0.217,0.705-0.514,0.785v0.014
		c0.365,0.087,0.594,0.363,0.594,0.82c0,0.567-0.383,0.896-0.815,0.896h-1.224V20.203z M42.147,21.568h0.494
		c0.357,0,0.519-0.144,0.519-0.5c0-0.319-0.161-0.472-0.5-0.472h-0.513V21.568z M42.147,23.107h0.55
		c0.433,0,0.544-0.188,0.544-0.574c0-0.384-0.198-0.567-0.55-0.567h-0.544V23.107z"/>
	<path d="M46.41,20.203v2.509c0,0.117-0.024,0.277-0.049,0.396h0.006c0.031-0.152,0.068-0.319,0.099-0.396l1.095-2.509h0.567v3.3
		h-0.47V21c0-0.094,0.031-0.305,0.05-0.408h-0.006c-0.019,0.111-0.074,0.357-0.099,0.408l-1.095,2.503h-0.567v-3.3H46.41z"/>
	<path d="M48.794,21.086c0.025-0.521,0.408-0.972,1.007-0.972c0.557,0,0.978,0.355,0.978,0.827c0,0.443-0.248,0.718-0.587,0.812
		v0.013c0.309,0.063,0.674,0.312,0.674,0.85c0,0.58-0.402,0.978-1.044,0.978c-0.686,0-1.021-0.354-1.075-1.125h0.434
		c0.049,0.563,0.234,0.729,0.611,0.729c0.358,0,0.6-0.161,0.6-0.611c0-0.354-0.198-0.618-0.551-0.618h-0.26v-0.396h0.253
		c0.267,0,0.482-0.204,0.482-0.545c0-0.259-0.148-0.515-0.525-0.515s-0.544,0.256-0.563,0.575h-0.434V21.086z"/>
	<path d="M53.558,20.203v2.509c0,0.117-0.025,0.277-0.05,0.396h0.007c0.03-0.152,0.067-0.319,0.099-0.396l1.094-2.509h0.568v3.3
		h-0.47V21c0-0.094,0.03-0.305,0.05-0.408H54.85c-0.02,0.111-0.074,0.357-0.1,0.408l-1.094,2.503h-0.569v-3.3H53.558z"/>
	<path d="M56.61,21.568h1.168v-1.363h0.47v3.3h-0.47v-1.54H56.61v1.539h-0.47v-3.3h0.47V21.568z"/>
	<path d="M59.631,23.502v-2.904h-0.864v-0.396h2.193v0.396h-0.858v2.904H59.631z"/>
	<path d="M63.443,22.403c0,0.646-0.303,1.188-0.994,1.188c-0.692,0-1.094-0.414-1.094-1.743c0-0.826,0.186-1.729,1.057-1.729
		c0.935,0,1.031,0.978,1.031,1.849h-1.602c0,0.754,0.044,1.229,0.594,1.229c0.451,0,0.539-0.414,0.539-0.791L63.443,22.403
		L63.443,22.403z M62.955,21.568c0-0.5-0.066-1.059-0.538-1.059c-0.52,0-0.575,0.618-0.575,1.059H62.955z"/>
	<path d="M64.654,20.573h0.007c0.147-0.312,0.444-0.457,0.674-0.457c0.834,0,1.082,0.762,1.082,1.682
		c0,1.002-0.224,1.793-1.051,1.793c-0.333,0-0.531-0.161-0.71-0.427v1.487h-0.471v-4.447h0.471v0.369H64.654z M64.654,21.845
		c0,0.633,0.037,1.35,0.631,1.35c0.488,0,0.644-0.507,0.644-1.396c0-0.434-0.05-1.285-0.648-1.285
		C64.703,20.51,64.654,21.272,64.654,21.845z"/>
	<path d="M67.625,21.568h1.168v-1.363h0.471v3.3h-0.471v-1.54h-1.168v1.539h-0.47v-3.3h0.47V21.568z"/>
	<path d="M72.093,22.403c0,0.646-0.303,1.188-0.994,1.188c-0.692,0-1.096-0.414-1.096-1.743c0-0.826,0.188-1.729,1.059-1.729
		c0.934,0,1.03,0.978,1.03,1.849H70.49c0,0.754,0.043,1.229,0.593,1.229c0.451,0,0.538-0.414,0.538-0.791L72.093,22.403
		L72.093,22.403z M71.605,21.568c0-0.5-0.068-1.059-0.539-1.059c-0.52,0-0.574,0.618-0.574,1.059H71.605z"/>
	<path d="M73.353,23.502v-2.904h-0.865v-0.396h2.193v0.396h-0.859v2.904H73.353z"/>
	<path d="M76.571,21.784v0.421h-1.545v-0.421H76.571z"/>
	<path d="M77.993,20.203l0.602,2.175c0.043,0.153,0.079,0.444,0.116,0.668h0.006c0.037-0.224,0.063-0.488,0.11-0.668l0.602-2.175
		h0.729v3.3h-0.449v-2.904H79.7l-0.834,2.904h-0.313l-0.826-2.904h-0.011v2.904h-0.448v-3.3H77.993z"/>
	<path d="M80.964,21.091c0-0.68,0.334-0.978,0.951-0.978c0.661,0,0.92,0.396,0.92,0.842V22.9c0,0.152,0.058,0.268,0.183,0.268
		c0.028,0,0.08-0.006,0.104-0.014v0.348c-0.029,0.021-0.108,0.037-0.19,0.037c-0.282,0-0.435-0.037-0.507-0.482H82.41
		c-0.109,0.291-0.414,0.532-0.729,0.532c-0.574,0-0.849-0.312-0.849-0.909c0-0.587,0.247-0.797,0.821-1.021
		c0.217-0.079,0.537-0.224,0.588-0.246c0.117-0.058,0.123-0.225,0.123-0.392c0-0.377-0.123-0.515-0.5-0.515
		c-0.354,0-0.481,0.198-0.481,0.581L80.964,21.091L80.964,21.091z M81.321,22.661c0,0.291,0.125,0.507,0.438,0.507
		c0.487,0,0.604-0.327,0.604-0.667v-0.797C81.878,21.989,81.321,22.026,81.321,22.661z"/>
	<path d="M85.445,20.203v0.396h-1.271v2.904h-0.471v-3.3H85.445z"/>
	<path d="M85.905,21.091c0-0.68,0.334-0.978,0.953-0.978c0.659,0,0.92,0.396,0.92,0.842V22.9c0,0.152,0.056,0.268,0.181,0.268
		c0.03,0,0.079-0.006,0.104-0.014v0.348c-0.031,0.021-0.111,0.037-0.193,0.037c-0.282,0-0.432-0.037-0.506-0.482h-0.013
		c-0.11,0.291-0.413,0.532-0.729,0.532c-0.573,0-0.847-0.312-0.847-0.909c0-0.587,0.246-0.797,0.82-1.021
		c0.217-0.079,0.536-0.224,0.586-0.246c0.116-0.058,0.125-0.225,0.125-0.392c0-0.377-0.125-0.515-0.502-0.515
		c-0.354,0-0.48,0.198-0.48,0.581L85.905,21.091L85.905,21.091z M86.265,22.661c0,0.291,0.125,0.507,0.438,0.507
		c0.488,0,0.605-0.327,0.605-0.667v-0.797C86.821,21.989,86.265,22.026,86.265,22.661z"/>
	<path d="M88.445,21.086c0.025-0.521,0.408-0.972,1.01-0.972c0.558,0,0.979,0.355,0.979,0.827c0,0.443-0.248,0.718-0.588,0.812
		v0.013c0.31,0.063,0.674,0.312,0.674,0.85c0,0.58-0.401,0.978-1.045,0.978c-0.688,0-1.021-0.354-1.073-1.125h0.433
		c0.049,0.563,0.233,0.729,0.61,0.729c0.355,0,0.601-0.161,0.601-0.611c0-0.354-0.194-0.618-0.55-0.618h-0.26v-0.396h0.254
		c0.267,0,0.479-0.204,0.479-0.545c0-0.259-0.147-0.515-0.524-0.515s-0.543,0.256-0.563,0.575h-0.437V21.086z"/>
	<path d="M91.728,20.203v2.509c0,0.117-0.023,0.277-0.051,0.396h0.008c0.028-0.152,0.065-0.319,0.1-0.396l1.094-2.509h0.566v3.3
		h-0.469V21c0-0.094,0.028-0.305,0.049-0.408h-0.006c-0.021,0.111-0.074,0.357-0.101,0.408l-1.095,2.503h-0.567v-3.3H91.728z"/>
	<path d="M94.779,21.568h1.168v-1.363h0.471v3.3h-0.471v-1.54h-1.168v1.539h-0.471v-3.3h0.471V21.568z"/>
	<path d="M97.226,21.091c0-0.68,0.334-0.978,0.951-0.978c0.659,0,0.92,0.396,0.92,0.842V22.9c0,0.152,0.057,0.268,0.18,0.268
		c0.031,0,0.08-0.006,0.104-0.014v0.348c-0.03,0.021-0.11,0.037-0.19,0.037c-0.283,0-0.435-0.037-0.508-0.482h-0.013
		c-0.11,0.291-0.414,0.532-0.729,0.532c-0.574,0-0.849-0.312-0.849-0.909c0-0.587,0.245-0.797,0.821-1.021
		c0.215-0.079,0.535-0.224,0.586-0.246c0.117-0.058,0.125-0.225,0.125-0.392c0-0.377-0.125-0.515-0.502-0.515
		c-0.354,0-0.479,0.198-0.479,0.581L97.226,21.091L97.226,21.091z M97.583,22.661c0,0.291,0.123,0.507,0.438,0.507
		c0.487,0,0.604-0.327,0.604-0.667v-0.797C98.14,21.989,97.583,22.026,97.583,22.661z"/>
	<path d="M101.445,19.646v-0.595h0.471v0.595H101.445z M101.913,23.502h-0.469v-3.3h0.469V23.502z"/>
	<path d="M103.249,20.567h0.006c0.153-0.225,0.42-0.45,0.815-0.45c0.353,0,0.653,0.131,0.771,0.501
		c0.218-0.341,0.543-0.501,0.864-0.501c0.47,0,0.814,0.24,0.814,0.842v2.546h-0.471v-2.373c0-0.371-0.094-0.618-0.493-0.618
		c-0.354,0-0.675,0.241-0.675,0.754v2.237h-0.471v-2.417c0-0.348-0.117-0.575-0.508-0.575c-0.326,0-0.66,0.241-0.66,0.754v2.237
		h-0.469v-3.3h0.471v0.362L103.249,20.567L103.249,20.567z"/>
	<path d="M107.857,20.573h0.006c0.148-0.312,0.445-0.457,0.676-0.457c0.834,0,1.08,0.762,1.08,1.682
		c0,1.002-0.223,1.793-1.051,1.793c-0.334,0-0.531-0.161-0.711-0.427v1.487h-0.469v-4.447h0.469V20.573z M107.857,21.845
		c0,0.633,0.037,1.35,0.631,1.35c0.488,0,0.645-0.507,0.645-1.396c0-0.434-0.049-1.285-0.646-1.285
		C107.907,20.51,107.857,21.272,107.857,21.845z"/>
	<path d="M110.829,20.74h0.007c0.172-0.392,0.407-0.581,0.821-0.581c0.043,0,0.08,0.008,0.129,0.014v0.457
		c-0.064-0.013-0.135-0.021-0.196-0.021c-0.479,0-0.761,0.356-0.761,0.893v2.002h-0.471v-3.3h0.471V20.74z"/>
	<path d="M114.251,22.403c0,0.646-0.304,1.188-0.994,1.188s-1.095-0.414-1.095-1.743c0-0.826,0.188-1.729,1.061-1.729
		c0.932,0,1.028,0.978,1.028,1.849h-1.601c0,0.754,0.043,1.229,0.594,1.229c0.451,0,0.537-0.414,0.537-0.791L114.251,22.403
		L114.251,22.403z M113.765,21.568c0-0.5-0.068-1.059-0.537-1.059c-0.521,0-0.576,0.618-0.576,1.059H113.765z"/>
	<path d="M116.37,21.086c0-0.392-0.146-0.575-0.521-0.575c-0.334,0-0.472,0.21-0.472,0.509c0,0.356,0.239,0.478,0.595,0.601
		c0.487,0.174,0.977,0.384,0.977,0.987c0,0.632-0.396,0.981-1.094,0.981c-0.763,0-1.025-0.34-1.025-1.051h0.445
		c0,0.426,0.129,0.653,0.557,0.653c0.385,0,0.631-0.153,0.631-0.559c0-0.42-0.414-0.501-0.754-0.644
		c-0.516-0.218-0.805-0.436-0.805-0.958c0-0.567,0.363-0.922,0.936-0.922c0.623,0,0.992,0.342,0.992,0.973L116.37,21.086
		L116.37,21.086z"/>
	<path d="M119.003,21.086c0-0.392-0.147-0.575-0.524-0.575c-0.332,0-0.472,0.21-0.472,0.509c0,0.356,0.242,0.478,0.597,0.601
		c0.485,0.174,0.977,0.384,0.977,0.987c0,0.632-0.396,0.981-1.094,0.981c-0.762,0-1.025-0.34-1.025-1.051h0.443
		c0,0.426,0.131,0.653,0.559,0.653c0.386,0,0.632-0.153,0.632-0.559c0-0.42-0.414-0.501-0.755-0.644
		c-0.516-0.218-0.805-0.436-0.805-0.958c0-0.567,0.363-0.922,0.935-0.922c0.625,0,0.993,0.342,0.993,0.973L119.003,21.086
		L119.003,21.086z"/>
	<path d="M120.257,19.646v-0.595h0.472v0.595H120.257z M120.728,23.502h-0.472v-3.3h0.472V23.502z"/>
	<path d="M123.827,21.845c0,1.35-0.457,1.743-1.18,1.743c-0.711,0-1.184-0.396-1.184-1.749c0-1.103,0.363-1.726,1.184-1.726
		C123.462,20.115,123.827,20.74,123.827,21.845z M121.954,21.888c0,0.779,0.147,1.307,0.693,1.307c0.557,0,0.689-0.523,0.689-1.307
		c0-1.001-0.196-1.378-0.689-1.378C122.148,20.51,121.954,20.887,121.954,21.888z"/>
	<path d="M125.038,20.567h0.007c0.19-0.271,0.466-0.45,0.815-0.45c0.494,0,0.813,0.261,0.813,0.842v2.546h-0.471v-2.417
		c0-0.34-0.109-0.575-0.492-0.575c-0.401,0-0.676,0.314-0.676,0.711v2.28h-0.47v-3.3h0.471L125.038,20.567L125.038,20.567z"/>
	<path d="M129.505,22.403c0,0.646-0.304,1.188-0.993,1.188c-0.691,0-1.095-0.414-1.095-1.743c0-0.826,0.187-1.729,1.06-1.729
		c0.934,0,1.028,0.978,1.028,1.849h-1.601c0,0.754,0.043,1.229,0.595,1.229c0.45,0,0.536-0.414,0.536-0.791L129.505,22.403
		L129.505,22.403z M129.019,21.568c0-0.5-0.066-1.059-0.537-1.059c-0.521,0-0.574,0.618-0.574,1.059H129.019z"/>
	<path d="M130.716,20.567h0.009c0.188-0.271,0.463-0.45,0.813-0.45c0.493,0,0.815,0.261,0.815,0.842v2.546h-0.473v-2.417
		c0-0.34-0.109-0.575-0.493-0.575c-0.401,0-0.675,0.314-0.675,0.711v2.28h-0.469v-3.3h0.471L130.716,20.567L130.716,20.567z"/>
	<path d="M133.8,22.909v0.594h-0.536v-0.594H133.8z"/>
	<path d="M136.81,19.052v4.449h-0.472v-0.408h-0.006c-0.205,0.396-0.396,0.495-0.791,0.495c-0.815,0-0.966-0.857-0.966-1.815
		s0.32-1.655,0.988-1.655c0.34,0,0.537,0.144,0.76,0.428h0.015v-1.489L136.81,19.052L136.81,19.052z M135.066,21.845
		c0,0.633,0.037,1.35,0.631,1.35c0.488,0,0.645-0.507,0.645-1.396c0-0.434-0.051-1.285-0.646-1.285
		C135.114,20.51,135.066,21.272,135.066,21.845z"/>
	<path d="M139.638,22.403c0,0.646-0.304,1.188-0.994,1.188c-0.691,0-1.097-0.414-1.097-1.743c0-0.826,0.188-1.729,1.06-1.729
		c0.936,0,1.031,0.978,1.031,1.849h-1.604c0,0.754,0.045,1.229,0.595,1.229c0.451,0,0.537-0.414,0.537-0.791L139.638,22.403
		L139.638,22.403z M139.15,21.568c0-0.5-0.066-1.059-0.537-1.059c-0.521,0-0.574,0.618-0.574,1.059H139.15z"/>
</g>
</svg>
